         1       347       341       343       348         1
         2       346       337       341       347         1
         3       345       322       337       346         1
         4       344       310       322       345         1
         5       342       305       310       344         1
         6       341       285       314       343         1
         7       337       273       285       341         1
         8       322       261       273       337         1
         9       310       254       261       322         1
        10       305       251       254       310         1
        11       285       239       262       314         1
        12       273       225       239       285         1
        13       261       211       225       273         1
        14       254       204       211       261         1
        15       251       201       204       254         1
        16       239       191       217       262         1
        17       225       176       191       239         1
        18       211       162       176       225         1
        19       204       154       162       211         1
        20       201       151       154       204         1
        21       191       148       366       217         1
        22       176       131       148       191         1
        23       162       121       131       176         1
        24       154       114       121       162         1
        25       151       110       114       154         1
        26        75        81        77        71         2
        27        82        88        81        75         2
        28        93       101        88        82         2
        29       113       120       101        93         2
        30       361       362       120       113         2
        31        81        87        85        77         2
        32        88        96        87        81         2
        33       101       108        96        88         2
        34       120       126       108       101         2
        35       362       363       126       120         2
        36        87        97        92        85         2
        37        96       103        97        87         2
        38       108       117       103        96         2
        39       126       133       117       108         2
        40       363       364       133       126         2
        41        97       104       100        92         2
        42       103       111       104        97         2
        43       117       125       111       103         2
        44       133       141       125       117         2
        45       364       365       141       133         2
        46       104       114       110       100         2
        47       111       121       114       104         2
        48       125       131       121       111         2
        49       141       148       131       125         2
        50       365       366       148       141         2
        51        47        51        50        45         3
        52        52        58        51        47         3
        53        64        69        58        52         3
        54        78        84        69        64         3
        55       356       357        84        78         3
        56        51        57        54        50         3
        57        58        63        57        51         3
        58        69        73        63        58         3
        59        84        91        73        69         3
        60       357       358        91        84         3
        61        57        62        61        54         3
        62        63        70        62        57         3
        63        73        80        70        63         3
        64        91        98        80        73         3
        65       358       359        98        91         3
        66        62        67        66        61         3
        67        70        76        67        62         3
        68        80        86        76        70         3
        69        98       105        86        80         3
        70       359       360       105        98         3
        71        67        75        71        66         3
        72        76        82        75        67         3
        73        86        93        82        76         3
        74       105       113        93        86         3
        75       360       361       113       105         3
        76        28        30        29        25         4
        77        31        35        30        28         4
        78        41        46        35        31         4
        79        56        60        46        41         4
        80       351       352        60        56         4
        81        30        34        33        29         4
        82        35        39        34        30         4
        83        46        49        39        35         4
        84        60        65        49        46         4
        85       352       353        65        60         4
        86        34        38        36        33         4
        87        39        44        38        34         4
        88        49        53        44        39         4
        89        65        68        53        49         4
        90       353       354        68        65         4
        91        38        43        40        36         4
        92        44        48        43        38         4
        93        53        59        48        44         4
        94        68        72        59        53         4
        95       354       355        72        68         4
        96        43        47        45        40         4
        97        48        52        47        43         4
        98        59        64        52        48         4
        99        72        78        64        59         4
       100       355       356        78        72         4
       101        16        18        28        25         5
       102        10        13        18        16         5
       103         6         8        13        10         5
       104         2         4         8         6         5
       105         1         3         4         2         5
       106        18        21        31        28         5
       107        13        14        21        18         5
       108         8         9        14        13         5
       109         4         7         9         8         5
       110         3         5         7         4         5
       111        21        23        41        31         5
       112        14        20        23        21         5
       113         9        15        20        14         5
       114         7        12        15         9         5
       115         5        11        12         7         5
       116        23        37        56        41         5
       117        20        26        37        23         5
       118        15        22        26        20         5
       119        12        19        22        15         5
       120        11        17        19        12         5
       121        37        55       351        56         5
       122        26        42        55        37         5
       123        22        32        42        26         5
       124        19        27        32        22         5
       125        17        24        27        19         5
       126        90        95        79        74         6
       127       109       115        95        90         6
       128       128       132       115       109         6
       129       146       152       132       128         6
       130       169       173       152       146         6
       131       192       197       173       169         6
       132       218       221       197       192         6
       133       241       243       221       218         6
       134       265       267       243       241         6
       135       287       288       267       265         6
       136        95        99        83        79         6
       137       115       119        99        95         6
       138       132       137       119       115         6
       139       152       158       137       132         6
       140       173       179       158       152         6
       141       197       200       179       173         6
       142       221       224       200       197         6
       143       243       245       224       221         6
       144       267       268       245       243         6
       145       288       290       268       267         6
       146        99       106        89        83         6
       147       119       124       106        99         6
       148       137       142       124       119         6
       149       158       159       142       137         6
       150       179       182       159       158         6
       151       200       205       182       179         6
       152       224       228       205       200         6
       153       245       248       228       224         6
       154       268       270       248       245         6
       155       290       291       270       268         6
       156       106       112        94        89         6
       157       124       129       112       106         6
       158       142       144       129       124         6
       159       159       165       144       142         6
       160       182       186       165       159         6
       161       205       209       186       182         6
       162       228       231       209       205         6
       163       248       250       231       228         6
       164       270       272       250       248         6
       165       291       292       272       270         6
       166       112       118       102        94         6
       167       129       134       118       112         6
       168       144       150       134       129         6
       169       165       170       150       144         6
       170       186       190       170       165         6
       171       209       212       190       186         6
       172       231       232       212       209         6
       173       250       253       232       231         6
       174       272       275       253       250         6
       175       292       293       275       272         6
       176       297       299       288       287         6
       177       316       318       299       297         6
       178       299       301       290       288         6
       179       318       321       301       299         6
       180       301       304       291       290         6
       181       321       324       304       301         6
       182       304       307       292       291         6
       183       324       326       307       304         6
       184       307       309       293       292         6
       185       326       328       309       307         6
       186       118       123       107       102         6
       187       134       138       123       118         6
       188       150       157       138       134         6
       189       170       175       157       150         6
       190       190       194       175       170         6
       191       212       214       194       190         6
       192       232       235       214       212         6
       193       253       256       235       232         6
       194       275       277       256       253         6
       195       293       294       277       275         6
       196       123       130       116       107         6
       197       138       143       130       123         6
       198       157       161       143       138         6
       199       175       180       161       157         6
       200       194       198       180       175         6
       201       214       219       198       194         6
       202       235       237       219       214         6
       203       256       257       237       235         6
       204       277       278       257       256         6
       205       294       295       278       277         6
       206       130       136       122       116         6
       207       143       149       136       130         6
       208       161       166       149       143         6
       209       180       185       166       161         6
       210       198       203       185       180         6
       211       219       223       203       198         6
       212       237       240       223       219         6
       213       257       259       240       237         6
       214       278       279       259       257         6
       215       295       296       279       278         6
       216       136       139       127       122         6
       217       149       155       139       136         6
       218       166       171       155       149         6
       219       185       189       171       166         6
       220       203       207       189       185         6
       221       223       227       207       203         6
       222       240       244       227       223         6
       223       259       263       244       240         6
       224       279       280       263       259         6
       225       296       298       280       279         6
       226       139       145       135       127         6
       227       155       163       145       139         6
       228       171       178       163       155         6
       229       189       193       178       171         6
       230       207       213       193       189         6
       231       227       229       213       207         6
       232       244       246       229       227         6
       233       263       264       246       244         6
       234       280       281       264       263         6
       235       298       300       281       280         6
       236       145       153       140       135         6
       237       163       168       153       145         6
       238       178       184       168       163         6
       239       193       199       184       178         6
       240       213       216       199       193         6
       241       229       233       216       213         6
       242       246       249       233       229         6
       243       264       266       249       246         6
       244       281       282       266       264         6
       245       300       302       282       281         6
       246       153       160       147       140         6
       247       168       174       160       153         6
       248       184       188       174       168         6
       249       199       206       188       184         6
       250       216       222       206       199         6
       251       233       236       222       216         6
       252       249       252       236       233         6
       253       266       269       252       249         6
       254       282       283       269       266         6
       255       302       303       283       282         6
       256       160       167       156       147         6
       257       174       181       167       160         6
       258       188       196       181       174         6
       259       206       210       196       188         6
       260       222       226       210       206         6
       261       236       238       226       222         6
       262       252       255       238       236         6
       263       269       271       255       252         6
       264       283       284       271       269         6
       265       303       306       284       283         6
       266       167       177       164       156         6
       267       181       187       177       167         6
       268       196       202       187       181         6
       269       210       215       202       196         6
       270       226       230       215       210         6
       271       238       242       230       226         6
       272       255       258       242       238         6
       273       271       274       258       255         6
       274       284       286       274       271         6
       275       306       308       286       284         6
       276       177       183       172       164         6
       277       187       195       183       177         6
       278       202       208       195       187         6
       279       215       220       208       202         6
       280       230       234       220       215         6
       281       242       247       234       230         6
       282       258       260       247       242         6
       283       274       276       260       258         6
       284       286       289       276       274         6
       285       308       311       289       286         6
       286       329       327       339       340         6
       287       311       308       327       329         6
       288       327       325       338       339         6
       289       308       306       325       327         6
       290       325       323       336       338         6
       291       306       303       323       325         6
       292       323       320       335       336         6
       293       303       302       320       323         6
       294       320       319       334       335         6
       295       302       300       319       320         6
       296       319       317       333       334         6
       297       300       298       317       319         6
       298       317       315       332       333         6
       299       298       296       315       317         6
       300       315       313       331       332         6
       301       296       295       313       315         6
       302       313       312       330       331         6
       303       295       294       312       313         6
       304       312       309       328       330         6
       305       294       293       309       312         6
       306       349       350         7
       307       135       140       362       361         8
       308       140       147       363       362         8
       309       147       156       364       363         8
       310       156       164       365       364         8
       311       164       172       366       365         8
       312       102       107       357       356         9
       313       107       116       358       357         9
       314       116       122       359       358         9
       315       122       127       360       359         9
       316       127       135       361       360         9
       317        74        79       352       351        10
       318        79        83       353       352        10
       319        83        89       354       353        10
       320        89        94       355       354        10
       321        94       102       356       355        10
