         1             3         5         2         1         1
         2            10        11         5         3         1
         3            19        20        11        10         1
         4            31        32        20        19         1
         5            47        49        32        31         1
         6            65        67        49        47         1
         7            87        90        67        65         1
         8           115       116        90        87         1
         9           149       150       116       115         1
        10           186       189       150       149         1
        11             5         6         4         2         1
        12            11        13         6         5         1
        13            20        21        13        11         1
        14            32        35        21        20         1
        15            49        51        35        32         1
        16            67        69        51        49         1
        17            90        92        69        67         1
        18           116       120        92        90         1
        19           150       153       120       116         1
        20           189       193       153       150         1
        21             6         8         7         4         1
        22            13        15         8         6         1
        23            21        24        15        13         1
        24            35        37        24        21         1
        25            51        52        37        35         1
        26            69        71        52        51         1
        27            92        94        71        69         1
        28           120       124        94        92         1
        29           153       156       124       120         1
        30           193       199       156       153         1
        31             8        12         9         7         1
        32            15        17        12         8         1
        33            24        26        17        15         1
        34            37        38        26        24         1
        35            52        55        38        37         1
        36            71        74        55        52         1
        37            94        98        74        71         1
        38           124       125        98        94         1
        39           156       160       125       124         1
        40           199       203       160       156         1
        41            12        16        14         9         1
        42            17        23        16        12         1
        43            26        29        23        17         1
        44            38        43        29        26         1
        45            55        59        43        38         1
        46            74        77        59        55         1
        47            98       101        77        74         1
        48           125       129       101        98         1
        49           160       163       129       125         1
        50           203       208       163       160         1
        51            16        22        18        14         1
        52            23        27        22        16         1
        53            29        36        27        23         1
        54            43        46        36        29         1
        55            59        63        46        43         1
        56            77        82        63        59         1
        57           101       106        82        77         1
        58           129       135       106       101         1
        59           163       171       135       129         1
        60           208       211       171       163         1
        61            22        28        25        18         1
        62            27        33        28        22         1
        63            36        42        33        27         1
        64            46        53        42        36         1
        65            63        70        53        46         1
        66            82        85        70        63         1
        67           106       111        85        82         1
        68           135       142       111       106         1
        69           171       177       142       135         1
        70           211       214       177       171         1
        71            28        34        30        25         1
        72            33        39        34        28         1
        73            42        48        39        33         1
        74            53        60        48        42         1
        75            70        76        60        53         1
        76            85        96        76        70         1
        77           111       119        96        85         1
        78           142       146       119       111         1
        79           177       182       146       142         1
        80           214       223       182       177         1
        81            34        41        40        30         1
        82            39        44        41        34         1
        83            48        56        44        39         1
        84            60        66        56        48         1
        85            76        83        66        60         1
        86            96       104        83        76         1
        87           119       128       104        96         1
        88           146       159       128       119         1
        89           182       195       159       146         1
        90           223       230       195       182         1
        91            41        50        45        40         1
        92            44        54        50        41         1
        93            56        62        54        44         1
        94            66        75        62        56         1
        95            83        93        75        66         1
        96           104       110        93        83         1
        97           128       137       110       104         1
        98           159       168       137       128         1
        99           195       206       168       159         1
       100           230       240       206       195         1
       101           188       187       172       173         1
       102           192       188       173       174         1
       103           198       192       174       176         1
       104           202       198       176       180         1
       105           207       202       180       183         1
       106           210       207       183       196         1
       107           215       210       196       205         1
       108           222       215       205       212         1
       109           229       222       212       221         1
       110           239       229       221       233         1
       111           173       172       148       151         1
       112           174       173       151       154         1
       113           176       174       154       158         1
       114           180       176       158       161         1
       115           183       180       161       170         1
       116           196       183       170       179         1
       117           205       196       179       184         1
       118           212       205       184       204         1
       119           221       212       204       213         1
       120           233       221       213       224         1
       121           151       148       133       134         1
       122           154       151       134       136         1
       123           158       154       136       140         1
       124           161       158       140       145         1
       125           170       161       145       155         1
       126           179       170       155       165         1
       127           184       179       165       178         1
       128           204       184       178       185         1
       129           213       204       185       209         1
       130           224       213       209       220         1
       131           134       133       114       117         1
       132           136       134       117       123         1
       133           140       136       123       127         1
       134           145       140       127       131         1
       135           155       145       131       141         1
       136           165       155       141       152         1
       137           178       165       152       167         1
       138           185       178       167       181         1
       139           209       185       181       201         1
       140           220       209       201       217         1
       141           117       114       103       105         1
       142           123       117       105       107         1
       143           127       123       107       112         1
       144           131       127       112       122         1
       145           141       131       122       130         1
       146           152       141       130       143         1
       147           167       152       143       157         1
       148           181       167       157       175         1
       149           201       181       175       197         1
       150           217       201       197       216         1
       151           105       103        88        91         1
       152           107       105        91        95         1
       153           112       107        95       100         1
       154           122       112       100       108         1
       155           130       122       108       121         1
       156           143       130       121       132         1
       157           157       143       132       147         1
       158           175       157       147       169         1
       159           197       175       169       191         1
       160           216       197       191       218         1
       161            91        88        78        79         1
       162            95        91        79        84         1
       163           100        95        84        86         1
       164           108       100        86        99         1
       165           121       108        99       109         1
       166           132       121       109       126         1
       167           147       132       126       144         1
       168           169       147       144       166         1
       169           191       169       166       190         1
       170           218       191       190       219         1
       171            79        78        64        68         1
       172            84        79        68        73         1
       173            86        84        73        80         1
       174            99        86        80        89         1
       175           109        99        89       102         1
       176           126       109       102       118         1
       177           144       126       118       139         1
       178           166       144       139       162         1
       179           190       166       162       194         1
       180           219       190       194       225         1
       181            68        64        57        58         1
       182            73        68        58        61         1
       183            80        73        61        72         1
       184            89        80        72        81         1
       185           102        89        81        97         1
       186           118       102        97       113         1
       187           139       118       113       138         1
       188           162       139       138       164         1
       189           194       162       164       200         1
       190           225       194       200       232         1
       191            58        57        45        50         1
       192            61        58        50        54         1
       193            72        61        54        62         1
       194            81        72        62        75         1
       195            97        81        75        93         1
       196           113        97        93       110         1
       197           138       113       110       137         1
       198           164       138       137       168         1
       199           200       164       168       206         1
       200           232       200       206       240         1
       201           256       266       252       239         2
       202           269       275       266       256         2
       203           281       287       275       269         2
       204           293       296       287       281         2
       205           302       305       296       293         2
       206           266       274       261       252         2
       207           275       284       274       266         2
       208           287       292       284       275         2
       209           296       300       292       287         2
       210           305       307       300       296         2
       211           274       280       271       261         2
       212           284       290       280       274         2
       213           292       297       290       284         2
       214           300       303       297       292         2
       215           307       309       303       300         2
       216           280       286       279       271         2
       217           290       295       286       280         2
       218           297       301       295       290         2
       219           303       306       301       297         2
       220           309       310       306       303         2
       221           286       291       285       279         2
       222           295       299       291       286         2
       223           301       304       299       295         2
       224           306       308       304       301         2
       225           310       311       308       306         2
       226           256       321       320       248         3
       227           269       256       248       265         3
       228           281       269       265       277         3
       229           293       281       277       288         3
       230           302       293       288       298         3
       231           248       320       317       244         3
       232           265       248       244       260         3
       233           277       265       260       272         3
       234           288       277       272       283         3
       235           298       288       283       294         3
       236           244       317       316       238         3
       237           260       244       238       255         3
       238           272       260       255       267         3
       239           283       272       267       278         3
       240           294       283       278       289         3
       241           238       316       313       235         3
       242           255       238       235       249         3
       243           267       255       249       262         3
       244           278       267       262       273         3
       245           289       278       273       282         3
       246           235       313       312       231         3
       247           249       235       231       245         3
       248           262       249       245       258         3
       249           273       262       258       268         3
       250           282       273       268       276         3
       251           231       312       314       227         3
       252           245       231       227       242         3
       253           258       245       242       254         3
       254           268       258       254       263         3
       255           276       268       263       270         3
       256           227       314       315       226         3
       257           242       227       226       241         3
       258           254       242       241       250         3
       259           263       254       250       259         3
       260           270       263       259       264         3
       261           226       315       318       228         3
       262           241       226       228       236         3
       263           250       241       236       246         3
       264           259       250       246       253         3
       265           264       259       253       257         3
       266           228       318       319       234         3
       267           236       228       234       237         3
       268           246       236       237       243         3
       269           253       246       243       247         3
       270           257       253       247       251         3
       271           234       319       322       322         3
       272           237       234       322       322         3
       273           243       237       322       322         3
       274           247       243       322       322         3
       275           251       247       322       322         3
       276           239       233       320       321         4
       277           233       224       317       320         4
       278           224       220       316       317         4
       279           220       217       313       316         4
       280           217       216       312       313         4
       281           216       218       314       312         4
       282           218       219       315       314         4
       283           219       225       318       315         4
       284           225       232       319       318         4
       285           232       240       322       319         4
