1 1 2 17 16 1
2 2 3 18 17 1
3 3 4 19 18 1
4 4 5 20 19 1
5 5 6 21 20 1
6 6 7 22 21 1
7 7 8 23 22 1
8 8 9 24 23 1
9 9 10 25 24 1
10 10 11 26 25 1
11 11 12 27 26 1
12 12 13 28 27 1
13 13 14 29 28 1
14 14 15 30 29 1
15 16 17 32 31 1
16 17 18 33 32 1
17 18 19 34 33 1
18 19 20 35 34 1
19 20 21 36 35 1
20 21 22 37 36 1
21 22 23 38 37 1
22 23 24 39 38 1
23 24 25 40 39 1
24 25 26 41 40 1
25 26 27 42 41 1
26 27 28 43 42 1
27 28 29 44 43 1
28 29 30 45 44 1
29 31 32 47 46 1
30 32 33 48 47 1
31 33 34 49 48 1
32 34 35 50 49 1
33 35 36 51 50 1
34 36 37 52 51 1
35 37 38 53 52 1
36 38 39 54 53 1
37 39 40 55 54 1
38 40 41 56 55 1
39 41 42 57 56 1
40 42 43 58 57 1
41 43 44 59 58 1
42 44 45 60 59 1
43 46 47 62 61 1
44 47 48 63 62 1
45 48 49 64 63 1
46 49 50 65 64 1
47 50 51 66 65 1
48 51 52 67 66 1
49 52 53 68 67 1
50 53 54 69 68 1
51 54 55 70 69 1
52 55 56 71 70 1
53 56 57 72 71 1
54 57 58 73 72 1
55 58 59 74 73 1
56 59 60 75 74 1
57 61 62 77 76 1
58 62 63 78 77 1
59 63 64 79 78 1
60 64 65 80 79 1
61 65 66 81 80 1
62 66 67 82 81 1
63 67 68 83 82 1
64 68 69 84 83 1
65 69 70 85 84 1
66 70 71 86 85 1
67 71 72 87 86 1
68 72 73 88 87 1
69 73 74 89 88 1
70 74 75 90 89 1
71 76 77 92 91 1
72 77 78 93 92 1
73 78 79 94 93 1
74 79 80 95 94 1
75 80 81 96 95 1
76 81 82 97 96 1
77 82 83 98 97 1
78 83 84 99 98 1
79 84 85 100 99 1
80 85 86 101 100 1
81 86 87 102 101 1
82 87 88 103 102 1
83 88 89 104 103 1
84 89 90 105 104 1
85 94 95 107 106 2
86 95 96 108 107 2
87 96 97 109 108 2
88 97 98 110 109 2
89 98 99 111 110 2
90 99 100 112 111 2
91 100 101 113 112 2
92 101 102 114 113 2
93 106 107 116 115 2
94 107 108 117 116 2
95 108 109 118 117 2
96 109 110 119 118 2
97 110 111 120 119 2
98 111 112 121 120 2
99 112 113 122 121 2
100 113 114 123 122 2
101 115 116 125 124 2
102 116 117 126 125 2
103 117 118 127 126 2
104 118 119 128 127 2
105 119 120 129 128 2
106 120 121 130 129 2
107 121 122 131 130 2
108 122 123 132 131 2
109 124 125 134 133 2
110 125 126 135 134 2
111 126 127 136 135 2
112 127 128 137 136 2
113 128 129 138 137 2
114 129 130 139 138 2
115 130 131 140 139 2
116 131 132 141 140 2
117 133 134 143 142 2
118 134 135 144 143 2
119 135 136 145 144 2
120 136 137 146 145 2
121 137 138 147 146 2
122 138 139 148 147 2
123 139 140 149 148 2
124 140 141 150 149 2
125 142 143 152 151 2
126 143 144 153 152 2
127 144 145 154 153 2
128 145 146 155 154 2
129 146 147 156 155 2
130 147 148 157 156 2
131 148 149 158 157 2
132 149 150 159 158 2
133 151 152 161 160 2
134 152 153 162 161 2
135 153 154 163 162 2
136 154 155 164 163 2
137 155 156 165 164 2
138 156 157 166 165 2
139 157 158 167 166 2
140 158 159 168 167 2
141 160 161 170 169 2
142 161 162 171 170 2
143 162 163 172 171 2
144 163 164 173 172 2
145 164 165 174 173 2
146 165 166 175 174 2
147 166 167 176 175 2
148 167 168 177 176 2
149 169 170 179 178 2
150 170 171 180 179 2
151 171 172 181 180 2
152 172 173 182 181 2
153 173 174 183 182 2
154 174 175 184 183 2
155 175 176 185 184 2
156 176 177 186 185 2
157 178 179 188 187 2
158 179 180 189 188 2
159 180 181 190 189 2
160 181 182 191 190 2
161 182 183 192 191 2
162 183 184 193 192 2
163 184 185 194 193 2
164 185 186 195 194 2
165 187 188 197 196 2
166 188 189 198 197 2
167 189 190 199 198 2
168 190 191 200 199 2
169 191 192 201 200 2
170 192 193 202 201 2
171 193 194 203 202 2
172 194 195 204 203 2
173 196 197 206 205 2
174 197 198 207 206 2
175 198 199 208 207 2
176 199 200 209 208 2
177 200 201 210 209 2
178 201 202 211 210 2
179 202 203 212 211 2
180 203 204 213 212 2
181 91 92 215 214 3
182 92 93 216 215 3
183 93 94 106 216 3
184 214 215 218 217 3
185 215 216 219 218 3
186 216 106 115 219 3
187 217 218 221 220 3
188 218 219 222 221 3
189 219 115 124 222 3
190 220 221 224 223 3
191 221 222 225 224 3
192 222 124 133 225 3
193 223 224 227 226 3
194 224 225 228 227 3
195 225 133 142 228 3
196 226 227 230 229 3
197 227 228 231 230 3
198 228 142 151 231 3
199 229 230 233 232 3
200 230 231 234 233 3
201 231 151 160 234 3
202 232 233 236 235 3
203 233 234 237 236 3
204 234 160 169 237 3
205 235 236 239 238 3
206 236 237 240 239 3
207 237 169 178 240 3
208 238 239 242 241 3
209 239 240 243 242 3
210 240 178 187 243 3
211 241 242 245 244 3
212 242 243 246 245 3
213 243 187 196 246 3
214 244 245 248 247 3
215 245 246 249 248 3
216 246 196 205 249 3
