1 1 2 21 20 1
2 2 3 22 21 1
3 3 4 23 22 1
4 4 5 24 23 1
5 5 6 25 24 1
6 6 7 26 25 1
7 7 8 27 26 1
8 8 9 28 27 1
9 9 10 29 28 1
10 10 11 30 29 1
11 11 12 31 30 1
12 12 13 32 31 1
13 13 14 33 32 1
14 14 15 34 33 1
15 15 16 35 34 1
16 16 17 36 35 1
17 17 18 37 36 1
18 18 19 38 37 1
19 20 21 40 39 1
20 21 22 41 40 1
21 22 23 42 41 1
22 23 24 43 42 1
23 24 25 44 43 1
24 25 26 45 44 1
25 26 27 46 45 1
26 27 28 47 46 1
27 28 29 48 47 1
28 29 30 49 48 1
29 30 31 50 49 1
30 31 32 51 50 1
31 32 33 52 51 1
32 33 34 53 52 1
33 34 35 54 53 1
34 35 36 55 54 1
35 36 37 56 55 1
36 37 38 57 56 1
37 39 40 59 58 1
38 40 41 60 59 1
39 41 42 61 60 1
40 42 43 62 61 1
41 43 44 63 62 1
42 44 45 64 63 1
43 45 46 65 64 1
44 46 47 66 65 1
45 47 48 67 66 1
46 48 49 68 67 1
47 49 50 69 68 1
48 50 51 70 69 1
49 51 52 71 70 1
50 52 53 72 71 1
51 53 54 73 72 1
52 54 55 74 73 1
53 55 56 75 74 1
54 56 57 76 75 1
55 58 59 78 77 1
56 59 60 79 78 1
57 60 61 80 79 1
58 61 62 81 80 1
59 62 63 82 81 1
60 63 64 83 82 1
61 64 65 84 83 1
62 65 66 85 84 1
63 66 67 86 85 1
64 67 68 87 86 1
65 68 69 88 87 1
66 69 70 89 88 1
67 70 71 90 89 1
68 71 72 91 90 1
69 72 73 92 91 1
70 73 74 93 92 1
71 74 75 94 93 1
72 75 76 95 94 1
73 77 78 97 96 1
74 78 79 98 97 1
75 79 80 99 98 1
76 80 81 100 99 1
77 81 82 101 100 1
78 82 83 102 101 1
79 83 84 103 102 1
80 84 85 104 103 1
81 85 86 105 104 1
82 86 87 106 105 1
83 87 88 107 106 1
84 88 89 108 107 1
85 89 90 109 108 1
86 90 91 110 109 1
87 91 92 111 110 1
88 92 93 112 111 1
89 93 94 113 112 1
90 94 95 114 113 1
91 96 97 116 115 1
92 97 98 117 116 1
93 98 99 118 117 1
94 99 100 119 118 1
95 100 101 120 119 1
96 101 102 121 120 1
97 102 103 122 121 1
98 103 104 123 122 1
99 104 105 124 123 1
100 105 106 125 124 1
101 106 107 126 125 1
102 107 108 127 126 1
103 108 109 128 127 1
104 109 110 129 128 1
105 110 111 130 129 1
106 111 112 131 130 1
107 112 113 132 131 1
108 113 114 133 132 1
109 118 119 135 134 2
110 119 120 136 135 2
111 120 121 137 136 2
112 121 122 138 137 2
113 122 123 139 138 2
114 123 124 140 139 2
115 124 125 141 140 2
116 125 126 142 141 2
117 126 127 143 142 2
118 127 128 144 143 2
119 128 129 145 144 2
120 129 130 146 145 2
121 134 135 148 147 2
122 135 136 149 148 2
123 136 137 150 149 2
124 137 138 151 150 2
125 138 139 152 151 2
126 139 140 153 152 2
127 140 141 154 153 2
128 141 142 155 154 2
129 142 143 156 155 2
130 143 144 157 156 2
131 144 145 158 157 2
132 145 146 159 158 2
133 147 148 161 160 2
134 148 149 162 161 2
135 149 150 163 162 2
136 150 151 164 163 2
137 151 152 165 164 2
138 152 153 166 165 2
139 153 154 167 166 2
140 154 155 168 167 2
141 155 156 169 168 2
142 156 157 170 169 2
143 157 158 171 170 2
144 158 159 172 171 2
145 160 161 174 173 2
146 161 162 175 174 2
147 162 163 176 175 2
148 163 164 177 176 2
149 164 165 178 177 2
150 165 166 179 178 2
151 166 167 180 179 2
152 167 168 181 180 2
153 168 169 182 181 2
154 169 170 183 182 2
155 170 171 184 183 2
156 171 172 185 184 2
157 173 174 187 186 2
158 174 175 188 187 2
159 175 176 189 188 2
160 176 177 190 189 2
161 177 178 191 190 2
162 178 179 192 191 2
163 179 180 193 192 2
164 180 181 194 193 2
165 181 182 195 194 2
166 182 183 196 195 2
167 183 184 197 196 2
168 184 185 198 197 2
169 186 187 200 199 2
170 187 188 201 200 2
171 188 189 202 201 2
172 189 190 203 202 2
173 190 191 204 203 2
174 191 192 205 204 2
175 192 193 206 205 2
176 193 194 207 206 2
177 194 195 208 207 2
178 195 196 209 208 2
179 196 197 210 209 2
180 197 198 211 210 2
181 199 200 213 212 2
182 200 201 214 213 2
183 201 202 215 214 2
184 202 203 216 215 2
185 203 204 217 216 2
186 204 205 218 217 2
187 205 206 219 218 2
188 206 207 220 219 2
189 207 208 221 220 2
190 208 209 222 221 2
191 209 210 223 222 2
192 210 211 224 223 2
193 212 213 226 225 2
194 213 214 227 226 2
195 214 215 228 227 2
196 215 216 229 228 2
197 216 217 230 229 2
198 217 218 231 230 2
199 218 219 232 231 2
200 219 220 233 232 2
201 220 221 234 233 2
202 221 222 235 234 2
203 222 223 236 235 2
204 223 224 237 236 2
205 225 226 239 238 2
206 226 227 240 239 2
207 227 228 241 240 2
208 228 229 242 241 2
209 229 230 243 242 2
210 230 231 244 243 2
211 231 232 245 244 2
212 232 233 246 245 2
213 233 234 247 246 2
214 234 235 248 247 2
215 235 236 249 248 2
216 236 237 250 249 2
217 238 239 252 251 2
218 239 240 253 252 2
219 240 241 254 253 2
220 241 242 255 254 2
221 242 243 256 255 2
222 243 244 257 256 2
223 244 245 258 257 2
224 245 246 259 258 2
225 246 247 260 259 2
226 247 248 261 260 2
227 248 249 262 261 2
228 249 250 263 262 2
229 251 252 265 264 2
230 252 253 266 265 2
231 253 254 267 266 2
232 254 255 268 267 2
233 255 256 269 268 2
234 256 257 270 269 2
235 257 258 271 270 2
236 258 259 272 271 2
237 259 260 273 272 2
238 260 261 274 273 2
239 261 262 275 274 2
240 262 263 276 275 2
241 264 265 278 277 2
242 265 266 279 278 2
243 266 267 280 279 2
244 267 268 281 280 2
245 268 269 282 281 2
246 269 270 283 282 2
247 270 271 284 283 2
248 271 272 285 284 2
249 272 273 286 285 2
250 273 274 287 286 2
251 274 275 288 287 2
252 275 276 289 288 2
253 277 278 291 290 2
254 278 279 292 291 2
255 279 280 293 292 2
256 280 281 294 293 2
257 281 282 295 294 2
258 282 283 296 295 2
259 283 284 297 296 2
260 284 285 298 297 2
261 285 286 299 298 2
262 286 287 300 299 2
263 287 288 301 300 2
264 288 289 302 301 2
265 290 291 304 303 2
266 291 292 305 304 2
267 292 293 306 305 2
268 293 294 307 306 2
269 294 295 308 307 2
270 295 296 309 308 2
271 296 297 310 309 2
272 297 298 311 310 2
273 298 299 312 311 2
274 299 300 313 312 2
275 300 301 314 313 2
276 301 302 315 314 2
