 mesh dimension  3   elemtype Linear  nnode  2
 coordinates
         1   0.445821E+00   0.708599E+01
         2   0.356743E+00   0.709103E+01
         3   0.267609E+00   0.709495E+01
         4   0.178433E+00   0.709776E+01
         5   0.892278E-01   0.709944E+01
         6   0.900000E-05   0.710000E+01
         7  -0.892098E-01   0.709944E+01
         8  -0.178415E+00   0.709776E+01
         9  -0.267591E+00   0.709496E+01
        10  -0.356725E+00   0.709103E+01
        11  -0.445803E+00   0.708599E+01
        12   0.518032E+00   0.823372E+01
        13   0.414526E+00   0.823958E+01
        14   0.310954E+00   0.824414E+01
        15   0.207334E+00   0.824739E+01
        16   0.103680E+00   0.824935E+01
        17   0.104600E-04   0.825000E+01
        18  -0.103659E+00   0.824935E+01
        19  -0.207313E+00   0.824739E+01
        20  -0.310933E+00   0.824414E+01
        21  -0.414505E+00   0.823958E+01
        22  -0.518011E+00   0.823372E+01
 end coordinates
 elements
         1         1         2        10
         2         2         3        10
         3         3         4        10
         4         4         5        10
         5         5         6        10
         6         6         7        10
         7         7         8        10
         8         8         9        10
         9         9        10        10
        10        10        11        10
        11        12        13        12
        12        13        14        12
        13        14        15        12
        14        15        16        12
        15        16        17        12
        16        17        18        12
        17        18        19        12
        18        19        20        12
        19        20        21        12
        20        21        22        12
 end elements
