         1                 34        30        28        32        53        50        45        47         1
         2                 42        34        32        38        60        53        47        57         1
         3                 55        42        38        52        72        60        57        69         1
         4                 73        55        52        68        82        72        69        81         1
         5                 85        73        68        84        97        82        81        95         1
         6                101        85        84       100       109        97        95       107         1
         7                116       101       100       115       123       109       107       120         1
         8                131       116       115       130       135       123       120       133         1
         9                146       131       130       145       149       135       133       148         1
        10                161       146       145       160       164       149       148       163         1
        11                176       161       160       175       179       164       163       178         1
        12                191       176       175       190       194       179       178       193         1
        13                206       191       190       205       209       194       193       208         1
        14                221       206       205       220       224       209       208       223         1
        15                236       221       220       235       239       224       223       238         1
        16                251       236       235       250       254       239       238       253         1
        17                266       251       250       265       269       254       253       268         1
        18                281       266       265       280       284       269       268       283         1
        19                296       281       280       295       299       284       283       298         1
        20                311       296       295       310       314       299       298       313         1
        21                 43        39        30        34        61        59        50        53         1
        22                 48        43        34        42        65        61        53        60         1
        23                 64        48        42        55        76        65        60        72         1
        24                 78        64        55        73        86        76        72        82         1
        25                 91        78        73        85        99        86        82        97         1
        26                102        91        85       101       113        99        97       109         1
        27                117       102       101       116       127       113       109       123         1
        28                132       117       116       131       139       127       123       135         1
        29                147       132       131       146       151       139       135       149         1
        30                162       147       146       161       165       151       149       164         1
        31                177       162       161       176       180       165       164       179         1
        32                192       177       176       191       195       180       179       194         1
        33                207       192       191       206       210       195       194       209         1
        34                222       207       206       221       225       210       209       224         1
        35                237       222       221       236       240       225       224       239         1
        36                252       237       236       251       255       240       239       254         1
        37                267       252       251       266       270       255       254       269         1
        38                282       267       266       281       285       270       269       284         1
        39                297       282       281       296       300       285       284       299         1
        40                312       297       296       311       315       300       299       314         1
        41                 20        14        10        17        34        30        28        32         1
        42                 27        20        17        21        42        34        32        38         1
        43                 41        27        21        37        55        42        38        52         1
        44                 63        41        37        56        73        55        52        68         1
        45                 79        63        56        75        85        73        68        84         1
        46                 96        79        75        92       101        85        84       100         1
        47                112        96        92       110       116       101       100       115         1
        48                126       112       110       124       131       116       115       130         1
        49                142       126       124       140       146       131       130       145         1
        50                157       142       140       156       161       146       145       160         1
        51                172       157       156       170       176       161       160       175         1
        52                188       172       170       186       191       176       175       190         1
        53                203       188       186       201       206       191       190       205         1
        54                217       203       201       215       221       206       205       220         1
        55                233       217       215       230       236       221       220       235         1
        56                248       233       230       246       251       236       235       250         1
        57                262       248       246       261       266       251       250       265         1
        58                278       262       261       275       281       266       265       280         1
        59                293       278       275       291       296       281       280       295         1
        60                307       293       291       305       311       296       295       310         1
        61                 25        22        14        20        43        39        30        34         1
        62                 35        25        20        27        48        43        34        42         1
        63                 46        35        27        41        64        48        42        55         1
        64                 66        46        41        63        78        64        55        73         1
        65                 83        66        63        79        91        78        73        85         1
        66                 98        83        79        96       102        91        85       101         1
        67                114        98        96       112       117       102       101       116         1
        68                129       114       112       126       132       117       116       131         1
        69                144       129       126       142       147       132       131       146         1
        70                159       144       142       157       162       147       146       161         1
        71                174       159       157       172       177       162       161       176         1
        72                189       174       172       188       192       177       176       191         1
        73                204       189       188       203       207       192       191       206         1
        74                219       204       203       217       222       207       206       221         1
        75                234       219       217       233       237       222       221       236         1
        76                249       234       233       248       252       237       236       251         1
        77                264       249       248       262       267       252       251       266         1
        78                279       264       262       278       282       267       266       281         1
        79                294       279       278       293       297       282       281       296         1
        80                309       294       293       307       312       297       296       311         1
        81                  8         5         2         7        20        14        10        17         1
        82                 18         8         7        12        27        20        17        21         1
        83                 33        18        12        29        41        27        21        37         1
        84                 54        33        29        51        63        41        37        56         1
        85                 74        54        51        71        79        63        56        75         1
        86                 90        74        71        88        96        79        75        92         1
        87                106        90        88       105       112        96        92       110         1
        88                122       106       105       119       126       112       110       124         1
        89                138       122       119       137       142       126       124       140         1
        90                154       138       137       153       157       142       140       156         1
        91                169       154       153       168       172       157       156       170         1
        92                184       169       168       182       188       172       170       186         1
        93                199       184       182       198       203       188       186       201         1
        94                214       199       198       213       217       203       201       215         1
        95                229       214       213       227       233       217       215       230         1
        96                244       229       227       242       248       233       230       246         1
        97                259       244       242       258       262       248       246       261         1
        98                274       259       258       272       278       262       261       275         1
        99                289       274       272       287       293       278       275       291         1
       100                304       289       287       302       307       293       291       305         1
       101                 19        13         5         8        25        22        14        20         1
       102                 24        19         8        18        35        25        20        27         1
       103                 40        24        18        33        46        35        27        41         1
       104                 62        40        33        54        66        46        41        63         1
       105                 80        62        54        74        83        66        63        79         1
       106                 94        80        74        90        98        83        79        96         1
       107                111        94        90       106       114        98        96       112         1
       108                128       111       106       122       129       114       112       126         1
       109                143       128       122       138       144       129       126       142         1
       110                158       143       138       154       159       144       142       157         1
       111                173       158       154       169       174       159       157       172         1
       112                187       173       169       184       189       174       172       188         1
       113                202       187       184       199       204       189       188       203         1
       114                218       202       199       214       219       204       203       217         1
       115                232       218       214       229       234       219       217       233         1
       116                247       232       229       244       249       234       233       248         1
       117                263       247       244       259       264       249       248       262         1
       118                277       263       259       274       279       264       262       278         1
       119                292       277       274       289       294       279       278       293         1
       120                308       292       289       304       309       294       293       307         1
       121                  6         3         1         4         8         5         2         7         1
       122                 15         6         4         9        18         8         7        12         1
       123                 31        15         9        26        33        18        12        29         1
       124                 49        31        26        44        54        33        29        51         1
       125                 70        49        44        67        74        54        51        71         1
       126                 89        70        67        87        90        74        71        88         1
       127                104        89        87       103       106        90        88       105         1
       128                121       104       103       118       122       106       105       119         1
       129                136       121       118       134       138       122       119       137         1
       130                152       136       134       150       154       138       137       153         1
       131                167       152       150       166       169       154       153       168         1
       132                183       167       166       181       184       169       168       182         1
       133                197       183       181       196       199       184       182       198         1
       134                212       197       196       211       214       199       198       213         1
       135                228       212       211       226       229       214       213       227         1
       136                243       228       226       241       244       229       227       242         1
       137                257       243       241       256       259       244       242       258         1
       138                273       257       256       271       274       259       258       272         1
       139                288       273       271       286       289       274       272       287         1
       140                303       288       286       301       304       289       287       302         1
       141                 16        11         3         6        19        13         5         8         1
       142                 23        16         6        15        24        19         8        18         1
       143                 36        23        15        31        40        24        18        33         1
       144                 58        36        31        49        62        40        33        54         1
       145                 77        58        49        70        80        62        54        74         1
       146                 93        77        70        89        94        80        74        90         1
       147                108        93        89       104       111        94        90       106         1
       148                125       108       104       121       128       111       106       122         1
       149                141       125       121       136       143       128       122       138         1
       150                155       141       136       152       158       143       138       154         1
       151                171       155       152       167       173       158       154       169         1
       152                185       171       167       183       187       173       169       184         1
       153                200       185       183       197       202       187       184       199         1
       154                216       200       197       212       218       202       199       214         1
       155                231       216       212       228       232       218       214       229         1
       156                245       231       228       243       247       232       229       244         1
       157                260       245       243       257       263       247       244       259         1
       158                276       260       257       273       277       263       259       274         1
       159                290       276       273       288       292       277       274       289         1
       160                306       290       288       303       308       292       289       304         1
