         1        73        75        91        87         1
         2        58        59        75        73         1
         3        44        46        59        58         1
         4        34        37        46        44         1
         5        23        28        37        34         1
         6        16        18        28        23         1
         7        10        12        18        16         1
         8         5         7        12        10         1
         9         3         4         7         5         1
        10         1         2         4         3         1
        11        75        79        93        91         1
        12        59        63        79        75         1
        13        46        51        63        59         1
        14        37        39        51        46         1
        15        28        30        39        37         1
        16        18        22        30        28         1
        17        12        15        22        18         1
        18         7         9        15        12         1
        19         4         8         9         7         1
        20         2         6         8         4         1
        21        79        83        97        93         1
        22        63        66        83        79         1
        23        51        53        66        63         1
        24        39        43        53        51         1
        25        30        33        43        39         1
        26        22        26        33        30         1
        27        15        20        26        22         1
        28         9        14        20        15         1
        29         8        13        14         9         1
        30         6        11        13         8         1
        31        83        85       104        97         1
        32        66        70        85        83         1
        33        53        60        70        66         1
        34        43        50        60        53         1
        35        33        40        50        43         1
        36        26        31        40        33         1
        37        20        25        31        26         1
        38        14        21        25        20         1
        39        13        19        21        14         1
        40        11        17        19        13         1
        41        85        96       111       104         1
        42        70        80        96        85         1
        43        60        68        80        70         1
        44        50        55        68        60         1
        45        40        47        55        50         1
        46        31        41        47        40         1
        47        25        32        41        31         1
        48        21        29        32        25         1
        49        19        27        29        21         1
        50        17        24        27        19         1
        51        96       106       122       111         1
        52        80        89       106        96         1
        53        68        77        89        80         1
        54        55        65        77        68         1
        55        47        56        65        55         1
        56        41        49        56        47         1
        57        32        42        49        41         1
        58        29        38        42        32         1
        59        27        36        38        29         1
        60        24        35        36        27         1
        61       106       117       135       122         1
        62        89       101       117       106         1
        63        77        86       101        89         1
        64        65        78        86        77         1
        65        56        69        78        65         1
        66        49        62        69        56         1
        67        42        54        62        49         1
        68        38        52        54        42         1
        69        36        48        52        38         1
        70        35        45        48        36         1
        71       117       130       146       135         1
        72       101       115       130       117         1
        73        86       102       115       101         1
        74        78        90       102        86         1
        75        69        81        90        78         1
        76        62        71        81        69         1
        77        54        67        71        62         1
        78        52        64        67        54         1
        79        48        61        64        52         1
        80        45        57        61        48         1
        81       130       145       159       146         1
        82       115       129       145       130         1
        83       102       118       129       115         1
        84        90       107       118       102         1
        85        81        95       107        90         1
        86        71        84        95        81         1
        87        67        82        84        71         1
        88        64        76        82        67         1
        89        61        74        76        64         1
        90        57        72        74        61         1
        91       145       160       452       159         1
        92       129       147       160       145         1
        93       118       136       147       129         1
        94       107       123       136       118         1
        95        95       113       123       107         1
        96        84       105       113        95         1
        97        82        98       105        84         1
        98        76        94        98        82         1
        99        74        92        94        76         1
       100        72        88        92        74         1
       101       461       268       284       462         1
       102       460       252       268       461         1
       103       459       238       252       460         1
       104       458       224       238       459         1
       105       457       214       224       458         1
       106       456       201       214       457         1
       107       455       190       201       456         1
       108       454       179       190       455         1
       109       453       168       179       454         1
       110       452       160       168       453         1
       111       268       249       264       284         1
       112       252       236       249       268         1
       113       238       223       236       252         1
       114       224       211       223       238         1
       115       214       195       211       224         1
       116       201       184       195       214         1
       117       190       174       184       201         1
       118       179       165       174       190         1
       119       168       156       165       179         1
       120       160       147       156       168         1
       121       249       234       248       264         1
       122       236       221       234       249         1
       123       223       207       221       236         1
       124       211       192       207       223         1
       125       195       182       192       211         1
       126       184       171       182       195         1
       127       174       162       171       184         1
       128       165       153       162       174         1
       129       156       142       153       165         1
       130       147       136       142       156         1
       131       234       222       237       248         1
       132       221       208       222       234         1
       133       207       193       208       221         1
       134       192       180       193       207         1
       135       182       170       180       192         1
       136       171       158       170       182         1
       137       162       149       158       171         1
       138       153       139       149       162         1
       139       142       132       139       153         1
       140       136       123       132       142         1
       141       222       213       225       237         1
       142       208       197       213       222         1
       143       193       183       197       208         1
       144       180       172       183       193         1
       145       170       161       172       180         1
       146       158       151       161       170         1
       147       149       141       151       158         1
       148       139       131       141       149         1
       149       132       121       131       139         1
       150       123       113       121       132         1
       151       213       203       215       225         1
       152       197       189       203       213         1
       153       183       176       189       197         1
       154       172       166       176       183         1
       155       161       154       166       172         1
       156       151       143       154       161         1
       157       141       134       143       151         1
       158       131       125       134       141         1
       159       121       114       125       131         1
       160       113       105       114       121         1
       161       203       194       212       215         1
       162       189       181       194       203         1
       163       176       169       181       189         1
       164       166       157       169       176         1
       165       154       148       157       166         1
       166       143       137       148       154         1
       167       134       126       137       143         1
       168       125       116       126       134         1
       169       114       108       116       125         1
       170       105        98       108       114         1
       171       194       191       204       212         1
       172       181       177       191       194         1
       173       169       167       177       181         1
       174       157       155       167       169         1
       175       148       144       155       157         1
       176       137       133       144       148         1
       177       126       124       133       137         1
       178       116       112       124       126         1
       179       108       103       112       116         1
       180        98        94       103       108         1
       181       191       188       202       204         1
       182       177       175       188       191         1
       183       167       164       175       177         1
       184       155       152       164       167         1
       185       144       140       152       155         1
       186       133       128       140       144         1
       187       124       120       128       133         1
       188       112       110       120       124         1
       189       103       100       110       112         1
       190        94        92       100       103         1
       191       188       185       200       202         1
       192       175       173       185       188         1
       193       164       163       173       175         1
       194       152       150       163       164         1
       195       140       138       150       152         1
       196       128       127       138       140         1
       197       120       119       127       128         1
       198       110       109       119       120         1
       199       100        99       109       110         1
       200        92        88        99       100         1
       201       438       426       425       437         1
       202       439       428       426       438         1
       203       441       430       428       439         1
       204       443       431       430       441         1
       205       444       433       431       443         1
       206       446       435       433       444         1
       207       447       436       435       446         1
       208       449       442       436       447         1
       209       450       445       442       449         1
       210       451       448       445       450         1
       211       426       415       414       425         1
       212       428       416       415       426         1
       213       430       418       416       428         1
       214       431       420       418       430         1
       215       433       422       420       431         1
       216       435       423       422       433         1
       217       436       427       423       435         1
       218       442       432       427       436         1
       219       445       434       432       442         1
       220       448       440       434       445         1
       221       415       404       403       414         1
       222       416       405       404       415         1
       223       418       407       405       416         1
       224       420       409       407       418         1
       225       422       411       409       420         1
       226       423       412       411       422         1
       227       427       417       412       423         1
       228       432       421       417       427         1
       229       434       424       421       432         1
       230       440       429       424       434         1
       231       404       392       390       403         1
       232       405       393       392       404         1
       233       407       395       393       405         1
       234       409       397       395       407         1
       235       411       400       397       409         1
       236       412       401       400       411         1
       237       417       406       401       412         1
       238       421       410       406       417         1
       239       424       413       410       421         1
       240       429       419       413       424         1
       241       392       371       370       390         1
       242       393       372       371       392         1
       243       395       378       372       393         1
       244       397       380       378       395         1
       245       400       386       380       397         1
       246       401       389       386       400         1
       247       406       394       389       401         1
       248       410       399       394       406         1
       249       413       402       399       410         1
       250       419       408       402       413         1
       251       371       342       341       370         1
       252       372       345       342       371         1
       253       378       351       345       372         1
       254       380       354       351       378         1
       255       386       361       354       380         1
       256       389       369       361       386         1
       257       394       379       369       389         1
       258       399       385       379       394         1
       259       402       391       385       399         1
       260       408       398       391       402         1
       261       342       304       300       341         1
       262       345       309       304       342         1
       263       351       314       309       345         1
       264       354       324       314       351         1
       265       361       329       324       354         1
       266       369       340       329       361         1
       267       379       353       340       369         1
       268       385       362       353       379         1
       269       391       373       362       385         1
       270       398       384       373       391         1
       271       304       266       263       300         1
       272       309       272       266       304         1
       273       314       275       272       309         1
       274       324       283       275       314         1
       275       329       292       283       324         1
       276       340       303       292       329         1
       277       353       318       303       340         1
       278       362       334       318       353         1
       279       373       352       334       362         1
       280       384       363       352       373         1
       281       266       233       230       263         1
       282       272       235       233       266         1
       283       275       242       235       272         1
       284       283       247       242       275         1
       285       292       257       247       283         1
       286       303       269       257       292         1
       287       318       282       269       303         1
       288       334       297       282       318         1
       289       352       317       297       334         1
       290       363       337       317       352         1
       291       233       202       200       230         1
       292       235       204       202       233         1
       293       242       212       204       235         1
       294       247       215       212       242         1
       295       257       225       215       247         1
       296       269       237       225       257         1
       297       282       248       237       269         1
       298       297       264       248       282         1
       299       317       284       264       297         1
       300       337       462       284       317         1
       301       187       196       186       178         2
       302       199       205       196       187         2
       303       210       218       205       199         2
       304       220       229       218       210         2
       305       231       244       229       220         2
       306       246       256       244       231         2
       307       259       270       256       246         2
       308       273       285       270       259         2
       309       288       299       285       273         2
       310       302       315       299       288         2
       311       196       206       198       186         2
       312       205       216       206       196         2
       313       218       227       216       205         2
       314       229       240       227       218         2
       315       244       254       240       229         2
       316       256       265       254       244         2
       317       270       280       265       256         2
       318       285       295       280       270         2
       319       299       312       295       285         2
       320       315       327       312       299         2
       321       206       217       209       198         2
       322       216       226       217       206         2
       323       227       239       226       216         2
       324       240       251       239       227         2
       325       254       261       251       240         2
       326       265       278       261       254         2
       327       280       293       278       265         2
       328       295       310       293       280         2
       329       312       326       310       295         2
       330       327       339       326       312         2
       331       217       228       219       209         2
       332       226       241       228       217         2
       333       239       250       241       226         2
       334       251       260       250       239         2
       335       261       276       260       251         2
       336       278       291       276       261         2
       337       293       307       291       278         2
       338       310       323       307       293         2
       339       326       335       323       310         2
       340       339       349       335       326         2
       341       228       243       232       219         2
       342       241       253       243       228         2
       343       250       262       253       241         2
       344       260       277       262       250         2
       345       276       289       277       260         2
       346       291       306       289       276         2
       347       307       320       306       291         2
       348       323       332       320       307         2
       349       335       347       332       323         2
       350       349       359       347       335         2
       351       243       255       245       232         2
       352       253       267       255       243         2
       353       262       279       267       253         2
       354       277       290       279       262         2
       355       289       305       290       277         2
       356       306       319       305       289         2
       357       320       330       319       306         2
       358       332       344       330       320         2
       359       347       357       344       332         2
       360       359       367       357       347         2
       361       255       271       258       245         2
       362       267       281       271       255         2
       363       279       294       281       267         2
       364       290       308       294       279         2
       365       305       321       308       290         2
       366       319       331       321       305         2
       367       330       343       331       319         2
       368       344       356       343       330         2
       369       357       366       356       344         2
       370       367       377       366       357         2
       371       271       286       274       258         2
       372       281       296       286       271         2
       373       294       311       296       281         2
       374       308       322       311       294         2
       375       321       333       322       308         2
       376       331       346       333       321         2
       377       343       355       346       331         2
       378       356       364       355       343         2
       379       366       375       364       356         2
       380       377       382       375       366         2
       381       286       298       287       274         2
       382       296       313       298       286         2
       383       311       325       313       296         2
       384       322       336       325       311         2
       385       333       348       336       322         2
       386       346       358       348       333         2
       387       355       365       358       346         2
       388       364       374       365       355         2
       389       375       381       374       364         2
       390       382       387       381       375         2
       391       298       316       301       287         2
       392       313       328       316       298         2
       393       325       338       328       313         2
       394       336       350       338       325         2
       395       348       360       350       336         2
       396       358       368       360       348         2
       397       365       376       368       358         2
       398       374       383       376       365         2
       399       381       388       383       374         2
       400       387       396       388       381         2
       401       461       462       302       288         3
       402       460       461       288       273         3
       403       459       460       273       259         3
       404       458       459       259       246         3
       405       457       458       246       231         3
       406       456       457       231       220         3
       407       455       456       220       210         3
       408       454       455       210       199         3
       409       453       454       199       187         3
       410       452       453       187       178         3
