         1               392       410       409       391       395       413       412       394         1
         2               365       392       391       362       377       395       394       376         1
         3               296       365       362       295       308       377       376       307         1
         4               256       296       295       255       271       308       307       270         1
         5               218       256       255       217       236       271       270       235         1
         6               393       411       410       392       396       414       413       395         1
         7               366       393       392       365       378       396       395       377         1
         8               297       366       365       296       309       378       377       308         1
         9               258       297       296       256       273       309       308       271         1
        10               219       258       256       218       237       273       271       236         1
        11               389       407       406       388       392       410       409       391         1
        12               344       389       388       343       365       392       391       362         1
        13               290       344       343       289       296       365       362       295         1
        14               248       290       289       247       256       296       295       255         1
        15               209       248       247       208       218       256       255       217         1
        16               390       408       407       389       393       411       410       392         1
        17               345       390       389       344       366       393       392       365         1
        18               291       345       344       290       297       366       365       296         1
        19               249       291       290       248       258       297       296       256         1
        20               210       249       248       209       219       258       256       218         1
        21               386       404       403       385       389       407       406       388         1
        22               329       386       385       328       344       389       388       343         1
        23               281       329       328       280       290       344       343       289         1
        24               239       281       280       238       248       290       289       247         1
        25               203       239       238       202       209       248       247       208         1
        26               387       405       404       386       390       408       407       389         1
        27               330       387       386       329       345       390       389       344         1
        28               284       330       329       281       291       345       344       290         1
        29               240       284       281       239       249       291       290       248         1
        30               204       240       239       203       210       249       248       209         1
        31               383       401       400       382       386       404       403       385         1
        32               317       383       382       316       329       386       385       328         1
        33               278       317       316       277       281       329       328       280         1
        34               233       278       277       232       239       281       280       238         1
        35               197       233       232       196       203       239       238       202         1
        36               384       402       401       383       387       405       404       386         1
        37               318       384       383       317       330       387       386       329         1
        38               279       318       317       278       284       330       329       281         1
        39               234       279       278       233       240       284       281       239         1
        40               198       234       233       197       204       240       239       203         1
        41               380       398       397       379       383       401       400       382         1
        42               314       380       379       313       317       383       382       316         1
        43               275       314       313       274       278       317       316       277         1
        44               230       275       274       229       233       278       277       232         1
        45               193       230       229       191       197       233       232       196         1
        46               381       399       398       380       384       402       401       383         1
        47               315       381       380       314       318       384       383       317         1
        48               276       315       314       275       279       318       317       278         1
        49               231       276       275       230       234       279       278       233         1
        50               195       231       230       193       198       234       233       197         1
        51               188       218       217       187       206       236       235       205         1
        52               164       188       187       163       176       206       205       175         1
        53               145       164       163       143       158       176       175       157         1
        54               128       145       143       127       137       158       157       136         1
        55               112       128       127       110       124       137       136       121         1
        56               189       219       218       188       207       237       236       206         1
        57               165       189       188       164       177       207       206       176         1
        58               146       165       164       145       159       177       176       158         1
        59               129       146       145       128       138       159       158       137         1
        60               114       129       128       112       126       138       137       124         1
        61               179       209       208       178       188       218       217       187         1
        62               155       179       178       154       164       188       187       163         1
        63               134       155       154       133       145       164       163       143         1
        64               116       134       133       115       128       145       143       127         1
        65                97       116       115        94       112       128       127       110         1
        66               180       210       209       179       189       219       218       188         1
        67               156       180       179       155       165       189       188       164         1
        68               135       156       155       134       146       165       164       145         1
        69               117       135       134       116       129       146       145       128         1
        70                98       117       116        97       114       129       128       112         1
        71               173       203       202       172       179       209       208       178         1
        72               149       173       172       148       155       179       178       154         1
        73               131       149       148       130       134       155       154       133         1
        74               107       131       130       106       116       134       133       115         1
        75                87       107       106        86        97       116       115        94         1
        76               174       204       203       173       180       210       209       179         1
        77               150       174       173       149       156       180       179       155         1
        78               132       150       149       131       135       156       155       134         1
        79               108       132       131       107       117       135       134       116         1
        80                89       108       107        87        98       117       116        97         1
        81               170       197       196       169       173       203       202       172         1
        82               144       170       169       142       149       173       172       148         1
        83               123       144       142       122       131       149       148       130         1
        84               104       123       122       103       107       131       130       106         1
        85                81       104       103        79        87       107       106        86         1
        86               171       198       197       170       174       204       203       173         1
        87               147       171       170       144       150       174       173       149         1
        88               125       147       144       123       132       150       149       131         1
        89               105       125       123       104       108       132       131       107         1
        90                83       105       104        81        89       108       107        87         1
        91               167       193       191       166       170       197       196       169         1
        92               140       167       166       139       144       170       169       142         1
        93               119       140       139       118       123       144       142       122         1
        94               101       119       118       100       104       123       122       103         1
        95                73       101       100        67        81       104       103        79         1
        96               168       195       193       167       171       198       197       170         1
        97               141       168       167       140       147       171       170       144         1
        98               120       141       140       119       125       147       144       123         1
        99               102       120       119       101       105       125       123       104         1
       100                78       102       101        73        83       105       104        81         1
       101                92       112       110        91       111       124       121       109         1
       102                71        92        91        68        96       111       109        95         1
       103                64        71        68        62        88        96        95        85         1
       104                54        64        62        52        82        88        85        80         1
       105                48        54        52        46        72        82        80        69         1
       106                93       114       112        92       113       126       124       111         1
       107                75        93        92        71        99       113       111        96         1
       108                66        75        71        64        90        99        96        88         1
       109                56        66        64        54        84        90        88        82         1
       110                50        56        54        48        77        84        82        72         1
       111                74        97        94        70        92       112       110        91         1
       112                59        74        70        58        71        92        91        68         1
       113                43        59        58        40        64        71        68        62         1
       114                37        43        40        35        54        64        62        52         1
       115                31        37        35        28        48        54        52        46         1
       116                76        98        97        74        93       114       112        92         1
       117                60        76        74        59        75        93        92        71         1
       118                45        60        59        43        66        75        71        64         1
       119                39        45        43        37        56        66        64        54         1
       120                33        39        37        31        50        56        54        48         1
       121                63        87        86        61        74        97        94        70         1
       122                42        63        61        41        59        74        70        58         1
       123                26        42        41        25        43        59        58        40         1
       124                22        26        25        20        37        43        40        35         1
       125                16        22        20        13        31        37        35        28         1
       126                65        89        87        63        76        98        97        74         1
       127                44        65        63        42        60        76        74        59         1
       128                27        44        42        26        45        60        59        43         1
       129                24        27        26        22        39        45        43        37         1
       130                17        24        22        16        33        39        37        31         1
       131                55        81        79        53        63        87        86        61         1
       132                36        55        53        34        42        63        61        41         1
       133                21        36        34        19        26        42        41        25         1
       134                11        21        19        10        22        26        25        20         1
       135                 6        11        10         5        16        22        20        13         1
       136                57        83        81        55        65        89        87        63         1
       137                38        57        55        36        44        65        63        42         1
       138                23        38        36        21        27        44        42        26         1
       139                12        23        21        11        24        27        26        22         1
       140                 9        12        11         6        17        24        22        16         1
       141                49        73        67        47        55        81        79        53         1
       142                30        49        47        29        36        55        53        34         1
       143                15        30        29        14        21        36        34        19         1
       144                 7        15        14         4        11        21        19        10         1
       145                 2         7         4         1         6        11        10         5         1
       146                51        78        73        49        57        83        81        55         1
       147                32        51        49        30        38        57        55        36         1
       148                18        32        30        15        23        38        36        21         1
       149                 8        18        15         7        12        23        21        11         1
       150                 3         8         7         2         9        12        11         6         1
       151               161       152       151       160       419       416       415       418         2
       152               185       161       160       184       422       419       418       421         2
       153               200       185       184       199       425       422       421       424         2
       154               221       200       199       220       428       425       424       427         2
       155               251       221       220       250       431       428       427       430         2
       156               162       153       152       161       420       417       416       419         2
       157               186       162       161       185       423       420       419       422         2
       158               201       186       185       200       426       423       422       425         2
       159               222       201       200       221       429       426       425       428         2
       160               252       222       221       251       432       429       428       431         2
       161               192       182       181       190       161       152       151       160         2
       162               212       192       190       211       185       161       160       184         2
       163               224       212       211       223       200       185       184       199         2
       164               245       224       223       244       221       200       199       220         2
       165               263       245       244       262       251       221       220       250         2
       166               194       183       182       192       162       153       152       161         2
       167               213       194       192       212       186       162       161       185         2
       168               225       213       212       224       201       186       185       200         2
       169               246       225       224       245       222       201       200       221         2
       170               264       246       245       263       252       222       221       251         2
       171               227       215       214       226       192       182       181       190         2
       172               242       227       226       241       212       192       190       211         2
       173               254       242       241       253       224       212       211       223         2
       174               269       254       253       268       245       224       223       244         2
       175               287       269       268       286       263       245       244       262         2
       176               228       216       215       227       194       183       182       192         2
       177               243       228       227       242       213       194       192       212         2
       178               257       243       242       254       225       213       212       224         2
       179               272       257       254       269       246       225       224       245         2
       180               288       272       269       287       264       246       245       263         2
       181               266       260       259       265       227       215       214       226         2
       182               283       266       265       282       242       227       226       241         2
       183               293       283       282       292       254       242       241       253         2
       184               299       293       292       298       269       254       253       268         2
       185               302       299       298       301       287       269       268       286         2
       186               267       261       260       266       228       216       215       227         2
       187               285       267       266       283       243       228       227       242         2
       188               294       285       283       293       257       243       242       254         2
       189               300       294       293       299       272       257       254       269         2
       190               303       300       299       302       288       272       269       287         2
       191               311       305       304       310       266       260       259       265         2
       192               320       311       310       319       283       266       265       282         2
       193               325       320       319       324       293       283       282       292         2
       194               335       325       324       333       299       293       292       298         2
       195               341       335       333       340       302       299       298       301         2
       196               312       306       305       311       267       261       260       266         2
       197               321       312       311       320       285       267       266       283         2
       198               327       321       320       325       294       285       283       293         2
       199               336       327       325       335       300       294       293       299         2
       200               342       336       335       341       303       300       299       302         2
       201               353       360       359       352       371       374       373       370         2
       202               347       353       352       346       368       371       370       367         2
       203               338       347       346       337       361       368       367       358         2
       204               332       338       337       331       355       361       358       354         2
       205               323       332       331       322       349       355       354       348         2
       206               356       364       360       353       372       375       374       371         2
       207               350       356       353       347       369       372       371       368         2
       208               339       350       347       338       363       369       368       361         2
       209               334       339       338       332       357       363       361       355         2
       210               326       334       332       323       351       357       355       349         2
       211               335       341       340       333       353       360       359       352         2
       212               325       335       333       324       347       353       352       346         2
       213               320       325       324       319       338       347       346       337         2
       214               311       320       319       310       332       338       337       331         2
       215               305       311       310       304       323       332       331       322         2
       216               336       342       341       335       356       364       360       353         2
       217               327       336       335       325       350       356       353       347         2
       218               321       327       325       320       339       350       347       338         2
       219               312       321       320       311       334       339       338       332         2
       220               306       312       311       305       326       334       332       323         2
       221               235       205       206       236       430       427       428       431         3
       222               205       175       176       206       427       424       425       428         3
       223               175       157       158       176       424       421       422       425         3
       224               157       136       137       158       421       418       419       422         3
       225               136       121       124       137       418       415       416       419         3
       226               236       206       207       237       431       428       429       432         3
       227               206       176       177       207       428       425       426       429         3
       228               176       158       159       177       425       422       423       426         3
       229               158       137       138       159       422       419       420       423         3
       230               137       124       126       138       419       416       417       420         3
