         1         1         2        74        73         1
         2         2         3        75        74         1
         3         3         4        76        75         1
         4         4         5        77        76         1
         5         5         6        78        77         1
         6         6         7        79        78         1
         7         7         8        80        79         1
         8         8         9        81        80         1
         9         9        10        82        81         1
        10        10        11        83        82         1
        11        11        12        84        83         1
        12        12        13        85        84         1
        13        13        14        86        85         1
        14        14        15        87        86         1
        15        15        16        88        87         1
        16        16        17        89        88         1
        17        17        18        90        89         1
        18        18        19        91        90         1
        19        19        20        92        91         1
        20        20        21        93        92         1
        21        21        22        94        93         1
        22        22        23        95        94         1
        23        23        24        96        95         1
        24        24        25        97        96         1
        25        25        26        98        97         1
        26        26        27        99        98         1
        27        27        28       100        99         1
        28        28        29       101       100         1
        29        29        30       102       101         1
        30        30        31       103       102         1
        31        31        32       104       103         1
        32        32        33       105       104         1
        33        33        34       106       105         1
        34        34        35       107       106         1
        35        35        36       108       107         1
        36        36        37       109       108         1
        37        37        38       110       109         1
        38        38        39       111       110         1
        39        39        40       112       111         1
        40        40        41       113       112         1
        41        41        42       114       113         1
        42        42        43       115       114         1
        43        43        44       116       115         1
        44        44        45       117       116         1
        45        45        46       118       117         1
        46        46        47       119       118         1
        47        47        48       120       119         1
        48        48        49       121       120         1
        49        49        50       122       121         1
        50        50        51       123       122         1
        51        51        52       124       123         1
        52        52        53       125       124         1
        53        53        54       126       125         1
        54        54        55       127       126         1
        55        55        56       128       127         1
        56        56        57       129       128         1
        57        57        58       130       129         1
        58        58        59       131       130         1
        59        59        60       132       131         1
        60        60        61       133       132         1
        61        61        62       134       133         1
        62        62        63       135       134         1
        63        63        64       136       135         1
        64        64        65       137       136         1
        65        65        66       138       137         1
        66        66        67       139       138         1
        67        67        68       140       139         1
        68        68        69       141       140         1
        69        69        70       142       141         1
        70        70        71       143       142         1
        71        71        72       144       143         1
        72        72         1        73       144         1
        73        73        74       146       145         1
        74        74        75       147       146         1
        75        75        76       148       147         1
        76        76        77       149       148         1
        77        77        78       150       149         1
        78        78        79       151       150         1
        79        79        80       152       151         1
        80        80        81       153       152         1
        81        81        82       154       153         1
        82        82        83       155       154         1
        83        83        84       156       155         1
        84        84        85       157       156         1
        85        85        86       158       157         1
        86        86        87       159       158         1
        87        87        88       160       159         1
        88        88        89       161       160         1
        89        89        90       162       161         1
        90        90        91       163       162         1
        91        91        92       164       163         1
        92        92        93       165       164         1
        93        93        94       166       165         1
        94        94        95       167       166         1
        95        95        96       168       167         1
        96        96        97       169       168         1
        97        97        98       170       169         1
        98        98        99       171       170         1
        99        99       100       172       171         1
       100       100       101       173       172         1
       101       101       102       174       173         1
       102       102       103       175       174         1
       103       103       104       176       175         1
       104       104       105       177       176         1
       105       105       106       178       177         1
       106       106       107       179       178         1
       107       107       108       180       179         1
       108       108       109       181       180         1
       109       109       110       182       181         1
       110       110       111       183       182         1
       111       111       112       184       183         1
       112       112       113       185       184         1
       113       113       114       186       185         1
       114       114       115       187       186         1
       115       115       116       188       187         1
       116       116       117       189       188         1
       117       117       118       190       189         1
       118       118       119       191       190         1
       119       119       120       192       191         1
       120       120       121       193       192         1
       121       121       122       194       193         1
       122       122       123       195       194         1
       123       123       124       196       195         1
       124       124       125       197       196         1
       125       125       126       198       197         1
       126       126       127       199       198         1
       127       127       128       200       199         1
       128       128       129       201       200         1
       129       129       130       202       201         1
       130       130       131       203       202         1
       131       131       132       204       203         1
       132       132       133       205       204         1
       133       133       134       206       205         1
       134       134       135       207       206         1
       135       135       136       208       207         1
       136       136       137       209       208         1
       137       137       138       210       209         1
       138       138       139       211       210         1
       139       139       140       212       211         1
       140       140       141       213       212         1
       141       141       142       214       213         1
       142       142       143       215       214         1
       143       143       144       216       215         1
       144       144        73       145       216         1
       145       145       146       218       217         1
       146       146       147       219       218         1
       147       147       148       220       219         1
       148       148       149       221       220         1
       149       149       150       222       221         1
       150       150       151       223       222         1
       151       151       152       224       223         1
       152       152       153       225       224         1
       153       153       154       226       225         1
       154       154       155       227       226         1
       155       155       156       228       227         1
       156       156       157       229       228         1
       157       157       158       230       229         1
       158       158       159       231       230         1
       159       159       160       232       231         1
       160       160       161       233       232         1
       161       161       162       234       233         1
       162       162       163       235       234         1
       163       163       164       236       235         1
       164       164       165       237       236         1
       165       165       166       238       237         1
       166       166       167       239       238         1
       167       167       168       240       239         1
       168       168       169       241       240         1
       169       169       170       242       241         1
       170       170       171       243       242         1
       171       171       172       244       243         1
       172       172       173       245       244         1
       173       173       174       246       245         1
       174       174       175       247       246         1
       175       175       176       248       247         1
       176       176       177       249       248         1
       177       177       178       250       249         1
       178       178       179       251       250         1
       179       179       180       252       251         1
       180       180       181       253       252         1
       181       181       182       254       253         1
       182       182       183       255       254         1
       183       183       184       256       255         1
       184       184       185       257       256         1
       185       185       186       258       257         1
       186       186       187       259       258         1
       187       187       188       260       259         1
       188       188       189       261       260         1
       189       189       190       262       261         1
       190       190       191       263       262         1
       191       191       192       264       263         1
       192       192       193       265       264         1
       193       193       194       266       265         1
       194       194       195       267       266         1
       195       195       196       268       267         1
       196       196       197       269       268         1
       197       197       198       270       269         1
       198       198       199       271       270         1
       199       199       200       272       271         1
       200       200       201       273       272         1
       201       201       202       274       273         1
       202       202       203       275       274         1
       203       203       204       276       275         1
       204       204       205       277       276         1
       205       205       206       278       277         1
       206       206       207       279       278         1
       207       207       208       280       279         1
       208       208       209       281       280         1
       209       209       210       282       281         1
       210       210       211       283       282         1
       211       211       212       284       283         1
       212       212       213       285       284         1
       213       213       214       286       285         1
       214       214       215       287       286         1
       215       215       216       288       287         1
       216       216       145       217       288         1
       217       217       218       290       289         1
       218       218       219       291       290         1
       219       219       220       292       291         1
       220       220       221       293       292         1
       221       221       222       294       293         1
       222       222       223       295       294         1
       223       223       224       296       295         1
       224       224       225       297       296         1
       225       225       226       298       297         1
       226       226       227       299       298         1
       227       227       228       300       299         1
       228       228       229       301       300         1
       229       229       230       302       301         1
       230       230       231       303       302         1
       231       231       232       304       303         1
       232       232       233       305       304         1
       233       233       234       306       305         1
       234       234       235       307       306         1
       235       235       236       308       307         1
       236       236       237       309       308         1
       237       237       238       310       309         1
       238       238       239       311       310         1
       239       239       240       312       311         1
       240       240       241       313       312         1
       241       241       242       314       313         1
       242       242       243       315       314         1
       243       243       244       316       315         1
       244       244       245       317       316         1
       245       245       246       318       317         1
       246       246       247       319       318         1
       247       247       248       320       319         1
       248       248       249       321       320         1
       249       249       250       322       321         1
       250       250       251       323       322         1
       251       251       252       324       323         1
       252       252       253       325       324         1
       253       253       254       326       325         1
       254       254       255       327       326         1
       255       255       256       328       327         1
       256       256       257       329       328         1
       257       257       258       330       329         1
       258       258       259       331       330         1
       259       259       260       332       331         1
       260       260       261       333       332         1
       261       261       262       334       333         1
       262       262       263       335       334         1
       263       263       264       336       335         1
       264       264       265       337       336         1
       265       265       266       338       337         1
       266       266       267       339       338         1
       267       267       268       340       339         1
       268       268       269       341       340         1
       269       269       270       342       341         1
       270       270       271       343       342         1
       271       271       272       344       343         1
       272       272       273       345       344         1
       273       273       274       346       345         1
       274       274       275       347       346         1
       275       275       276       348       347         1
       276       276       277       349       348         1
       277       277       278       350       349         1
       278       278       279       351       350         1
       279       279       280       352       351         1
       280       280       281       353       352         1
       281       281       282       354       353         1
       282       282       283       355       354         1
       283       283       284       356       355         1
       284       284       285       357       356         1
       285       285       286       358       357         1
       286       286       287       359       358         1
       287       287       288       360       359         1
       288       288       217       289       360         1
       289       289       290       362       361         1
       290       290       291       363       362         1
       291       291       292       364       363         1
       292       292       293       365       364         1
       293       293       294       366       365         1
       294       294       295       367       366         1
       295       295       296       368       367         1
       296       296       297       369       368         1
       297       297       298       370       369         1
       298       298       299       371       370         1
       299       299       300       372       371         1
       300       300       301       373       372         1
       301       301       302       374       373         1
       302       302       303       375       374         1
       303       303       304       376       375         1
       304       304       305       377       376         1
       305       305       306       378       377         1
       306       306       307       379       378         1
       307       307       308       380       379         1
       308       308       309       381       380         1
       309       309       310       382       381         1
       310       310       311       383       382         1
       311       311       312       384       383         1
       312       312       313       385       384         1
       313       313       314       386       385         1
       314       314       315       387       386         1
       315       315       316       388       387         1
       316       316       317       389       388         1
       317       317       318       390       389         1
       318       318       319       391       390         1
       319       319       320       392       391         1
       320       320       321       393       392         1
       321       321       322       394       393         1
       322       322       323       395       394         1
       323       323       324       396       395         1
       324       324       325       397       396         1
       325       325       326       398       397         1
       326       326       327       399       398         1
       327       327       328       400       399         1
       328       328       329       401       400         1
       329       329       330       402       401         1
       330       330       331       403       402         1
       331       331       332       404       403         1
       332       332       333       405       404         1
       333       333       334       406       405         1
       334       334       335       407       406         1
       335       335       336       408       407         1
       336       336       337       409       408         1
       337       337       338       410       409         1
       338       338       339       411       410         1
       339       339       340       412       411         1
       340       340       341       413       412         1
       341       341       342       414       413         1
       342       342       343       415       414         1
       343       343       344       416       415         1
       344       344       345       417       416         1
       345       345       346       418       417         1
       346       346       347       419       418         1
       347       347       348       420       419         1
       348       348       349       421       420         1
       349       349       350       422       421         1
       350       350       351       423       422         1
       351       351       352       424       423         1
       352       352       353       425       424         1
       353       353       354       426       425         1
       354       354       355       427       426         1
       355       355       356       428       427         1
       356       356       357       429       428         1
       357       357       358       430       429         1
       358       358       359       431       430         1
       359       359       360       432       431         1
       360       360       289       361       432         1
       361       361       362       434       433         1
       362       362       363       435       434         1
       363       363       364       436       435         1
       364       364       365       437       436         1
       365       365       366       438       437         1
       366       366       367       439       438         1
       367       367       368       440       439         1
       368       368       369       441       440         1
       369       369       370       442       441         1
       370       370       371       443       442         1
       371       371       372       444       443         1
       372       372       373       445       444         1
       373       373       374       446       445         1
       374       374       375       447       446         1
       375       375       376       448       447         1
       376       376       377       449       448         1
       377       377       378       450       449         1
       378       378       379       451       450         1
       379       379       380       452       451         1
       380       380       381       453       452         1
       381       381       382       454       453         1
       382       382       383       455       454         1
       383       383       384       456       455         1
       384       384       385       457       456         1
       385       385       386       458       457         1
       386       386       387       459       458         1
       387       387       388       460       459         1
       388       388       389       461       460         1
       389       389       390       462       461         1
       390       390       391       463       462         1
       391       391       392       464       463         1
       392       392       393       465       464         1
       393       393       394       466       465         1
       394       394       395       467       466         1
       395       395       396       468       467         1
       396       396       397       469       468         1
       397       397       398       470       469         1
       398       398       399       471       470         1
       399       399       400       472       471         1
       400       400       401       473       472         1
       401       401       402       474       473         1
       402       402       403       475       474         1
       403       403       404       476       475         1
       404       404       405       477       476         1
       405       405       406       478       477         1
       406       406       407       479       478         1
       407       407       408       480       479         1
       408       408       409       481       480         1
       409       409       410       482       481         1
       410       410       411       483       482         1
       411       411       412       484       483         1
       412       412       413       485       484         1
       413       413       414       486       485         1
       414       414       415       487       486         1
       415       415       416       488       487         1
       416       416       417       489       488         1
       417       417       418       490       489         1
       418       418       419       491       490         1
       419       419       420       492       491         1
       420       420       421       493       492         1
       421       421       422       494       493         1
       422       422       423       495       494         1
       423       423       424       496       495         1
       424       424       425       497       496         1
       425       425       426       498       497         1
       426       426       427       499       498         1
       427       427       428       500       499         1
       428       428       429       501       500         1
       429       429       430       502       501         1
       430       430       431       503       502         1
       431       431       432       504       503         1
       432       432       361       433       504         1
       433       433       434       506       505         1
       434       434       435       507       506         1
       435       435       436       508       507         1
       436       436       437       509       508         1
       437       437       438       510       509         1
       438       438       439       511       510         1
       439       439       440       512       511         1
       440       440       441       513       512         1
       441       441       442       514       513         1
       442       442       443       515       514         1
       443       443       444       516       515         1
       444       444       445       517       516         1
       445       445       446       518       517         1
       446       446       447       519       518         1
       447       447       448       520       519         1
       448       448       449       521       520         1
       449       449       450       522       521         1
       450       450       451       523       522         1
       451       451       452       524       523         1
       452       452       453       525       524         1
       453       453       454       526       525         1
       454       454       455       527       526         1
       455       455       456       528       527         1
       456       456       457       529       528         1
       457       457       458       530       529         1
       458       458       459       531       530         1
       459       459       460       532       531         1
       460       460       461       533       532         1
       461       461       462       534       533         1
       462       462       463       535       534         1
       463       463       464       536       535         1
       464       464       465       537       536         1
       465       465       466       538       537         1
       466       466       467       539       538         1
       467       467       468       540       539         1
       468       468       469       541       540         1
       469       469       470       542       541         1
       470       470       471       543       542         1
       471       471       472       544       543         1
       472       472       473       545       544         1
       473       473       474       546       545         1
       474       474       475       547       546         1
       475       475       476       548       547         1
       476       476       477       549       548         1
       477       477       478       550       549         1
       478       478       479       551       550         1
       479       479       480       552       551         1
       480       480       481       553       552         1
       481       481       482       554       553         1
       482       482       483       555       554         1
       483       483       484       556       555         1
       484       484       485       557       556         1
       485       485       486       558       557         1
       486       486       487       559       558         1
       487       487       488       560       559         1
       488       488       489       561       560         1
       489       489       490       562       561         1
       490       490       491       563       562         1
       491       491       492       564       563         1
       492       492       493       565       564         1
       493       493       494       566       565         1
       494       494       495       567       566         1
       495       495       496       568       567         1
       496       496       497       569       568         1
       497       497       498       570       569         1
       498       498       499       571       570         1
       499       499       500       572       571         1
       500       500       501       573       572         1
       501       501       502       574       573         1
       502       502       503       575       574         1
       503       503       504       576       575         1
       504       504       433       505       576         1
       505       505       506       578       577         1
       506       506       507       579       578         1
       507       507       508       580       579         1
       508       508       509       581       580         1
       509       509       510       582       581         1
       510       510       511       583       582         1
       511       511       512       584       583         1
       512       512       513       585       584         1
       513       513       514       586       585         1
       514       514       515       587       586         1
       515       515       516       588       587         1
       516       516       517       589       588         1
       517       517       518       590       589         1
       518       518       519       591       590         1
       519       519       520       592       591         1
       520       520       521       593       592         1
       521       521       522       594       593         1
       522       522       523       595       594         1
       523       523       524       596       595         1
       524       524       525       597       596         1
       525       525       526       598       597         1
       526       526       527       599       598         1
       527       527       528       600       599         1
       528       528       529       601       600         1
       529       529       530       602       601         1
       530       530       531       603       602         1
       531       531       532       604       603         1
       532       532       533       605       604         1
       533       533       534       606       605         1
       534       534       535       607       606         1
       535       535       536       608       607         1
       536       536       537       609       608         1
       537       537       538       610       609         1
       538       538       539       611       610         1
       539       539       540       612       611         1
       540       540       541       613       612         1
       541       541       542       614       613         1
       542       542       543       615       614         1
       543       543       544       616       615         1
       544       544       545       617       616         1
       545       545       546       618       617         1
       546       546       547       619       618         1
       547       547       548       620       619         1
       548       548       549       621       620         1
       549       549       550       622       621         1
       550       550       551       623       622         1
       551       551       552       624       623         1
       552       552       553       625       624         1
       553       553       554       626       625         1
       554       554       555       627       626         1
       555       555       556       628       627         1
       556       556       557       629       628         1
       557       557       558       630       629         1
       558       558       559       631       630         1
       559       559       560       632       631         1
       560       560       561       633       632         1
       561       561       562       634       633         1
       562       562       563       635       634         1
       563       563       564       636       635         1
       564       564       565       637       636         1
       565       565       566       638       637         1
       566       566       567       639       638         1
       567       567       568       640       639         1
       568       568       569       641       640         1
       569       569       570       642       641         1
       570       570       571       643       642         1
       571       571       572       644       643         1
       572       572       573       645       644         1
       573       573       574       646       645         1
       574       574       575       647       646         1
       575       575       576       648       647         1
       576       576       505       577       648         1
