 mesh dimension  3   elemtype Linear  nnode  2
 coordinates
         1   0.100000E+00   0.100000E+00
         2   0.599000E+02   0.100000E+00
         3   0.109667E+01   0.100000E+00
         4   0.209333E+01   0.100000E+00
         5   0.309000E+01   0.100000E+00
         6   0.408667E+01   0.100000E+00
         7   0.508333E+01   0.100000E+00
         8   0.608000E+01   0.100000E+00
         9   0.707667E+01   0.100000E+00
        10   0.807333E+01   0.100000E+00
        11   0.907000E+01   0.100000E+00
        12   0.100667E+02   0.100000E+00
        13   0.110633E+02   0.100000E+00
        14   0.120600E+02   0.100000E+00
        15   0.130567E+02   0.100000E+00
        16   0.140533E+02   0.100000E+00
        17   0.150500E+02   0.100000E+00
        18   0.160467E+02   0.100000E+00
        19   0.170433E+02   0.100000E+00
        20   0.180400E+02   0.100000E+00
        21   0.190367E+02   0.100000E+00
        22   0.200333E+02   0.100000E+00
        23   0.210300E+02   0.100000E+00
        24   0.220267E+02   0.100000E+00
        25   0.230233E+02   0.100000E+00
        26   0.240200E+02   0.100000E+00
        27   0.250167E+02   0.100000E+00
        28   0.260133E+02   0.100000E+00
        29   0.270100E+02   0.100000E+00
        30   0.280067E+02   0.100000E+00
        31   0.290033E+02   0.100000E+00
        32   0.300000E+02   0.100000E+00
        33   0.309967E+02   0.100000E+00
        34   0.319933E+02   0.100000E+00
        35   0.329900E+02   0.100000E+00
        36   0.339867E+02   0.100000E+00
        37   0.349833E+02   0.100000E+00
        38   0.359800E+02   0.100000E+00
        39   0.369767E+02   0.100000E+00
        40   0.379733E+02   0.100000E+00
        41   0.389700E+02   0.100000E+00
        42   0.399667E+02   0.100000E+00
        43   0.409633E+02   0.100000E+00
        44   0.419600E+02   0.100000E+00
        45   0.429567E+02   0.100000E+00
        46   0.439533E+02   0.100000E+00
        47   0.449500E+02   0.100000E+00
        48   0.459467E+02   0.100000E+00
        49   0.469433E+02   0.100000E+00
        50   0.479400E+02   0.100000E+00
        51   0.489367E+02   0.100000E+00
        52   0.499333E+02   0.100000E+00
        53   0.509300E+02   0.100000E+00
        54   0.519267E+02   0.100000E+00
        55   0.529233E+02   0.100000E+00
        56   0.539200E+02   0.100000E+00
        57   0.549167E+02   0.100000E+00
        58   0.559133E+02   0.100000E+00
        59   0.569100E+02   0.100000E+00
        60   0.579067E+02   0.100000E+00
        61   0.589033E+02   0.100000E+00
 end coordinates
 elements
         1         1         3         2
         2         3         4         2
         3         4         5         2
         4         5         6         2
         5         6         7         2
         6         7         8         2
         7         8         9         2
         8         9        10         2
         9        10        11         2
        10        11        12         2
        11        12        13         2
        12        13        14         2
        13        14        15         2
        14        15        16         2
        15        16        17         2
        16        17        18         2
        17        18        19         2
        18        19        20         2
        19        20        21         2
        20        21        22         2
        21        22        23         2
        22        23        24         2
        23        24        25         2
        24        25        26         2
        25        26        27         2
        26        27        28         2
        27        28        29         2
        28        29        30         2
        29        30        31         2
        30        31        32         2
        31        32        33         2
        32        33        34         2
        33        34        35         2
        34        35        36         2
        35        36        37         2
        36        37        38         2
        37        38        39         2
        38        39        40         2
        39        40        41         2
        40        41        42         2
        41        42        43         2
        42        43        44         2
        43        44        45         2
        44        45        46         2
        45        46        47         2
        46        47        48         2
        47        48        49         2
        48        49        50         2
        49        50        51         2
        50        51        52         2
        51        52        53         2
        52        53        54         2
        53        54        55         2
        54        55        56         2
        55        56        57         2
        56        57        58         2
        57        58        59         2
        58        59        60         2
        59        60        61         2
        60        61         2         2
 end elements
