<?xml version="1.0" ?>
<VTKFile type="UnstructuredGrid" version="1.0" byte_order="LittleEndian">
  <UnstructuredGrid>
    <Piece NumberOfPoints="30" NumberOfCells="20">
      <Points>
        <DataArray type="Float64" NumberOfComponents="3" format="ascii">0.0 0.0 0.0
4.0 0.0 0.0
8.0 0.0 0.0
12.0 0.0 0.0
16.0 0.0 0.0
20.0 0.0 0.0
0.0 2.5 0.0
4.0 2.5 0.0
8.0 2.5 0.0
12.0 2.5 0.0
16.0 2.5 0.0
20.0 2.5 0.0
0.0 5.0 0.0
4.0 5.0 0.0
8.0 5.0 0.0
12.0 5.0 0.0
16.0 5.0 0.0
20.0 5.0 0.0
0.0 7.5 0.0
4.0 7.5 0.0
8.0 7.5 0.0
12.0 7.5 0.0
16.0 7.5 0.0
20.0 7.5 0.0
0.0 10.0 0.0
4.0 10.0 0.0
8.0 10.0 0.0
12.0 10.0 0.0
16.0 10.0 0.0
20.0 10.0 0.0</DataArray>
      </Points>
      <Cells>
        <DataArray type="Int32" Name="connectivity" format="ascii">0 1 7 6
1 2 8 7
2 3 9 8
3 4 10 9
4 5 11 10
6 7 13 12
7 8 14 13
8 9 15 14
9 10 16 15
10 11 17 16
12 13 19 18
13 14 20 19
14 15 21 20
15 16 22 21
16 17 23 22
18 19 25 24
19 20 26 25
20 21 27 26
21 22 28 27
22 23 29 28</DataArray>
        <DataArray type="Int32" Name="offsets" format="ascii">4 8 12 16 20 24 28 32 36 40 44 48 52 56 60 64 68 72 76 80</DataArray>
        <DataArray type="UInt8" Name="types" format="ascii">9 9 9 9 9 9 9 9 9 9 9 9 9 9 9 9 9 9 9 9</DataArray>
      </Cells>
      <CellData>
        <DataArray type="Int32" Name="GroupID" format="ascii">1 1 1 1 1 1 1 1 1 1 2 2 2 2 2 2 2 2 2 2</DataArray>
      </CellData>
      <PointData>
        <DataArray type="Float64" Name="Displacement" NumberOfComponents="3" format="ascii">0.0 0.0 0.0
9.9882333e-22 0.0 0.0
-1.9220498e-21 0.0 0.0
-1.7573645e-21 0.0 0.0
-1.2406176e-21 0.0 0.0
0.0 0.0 0.0
0.0 -1.9798828e-05 0.0
-1.1150303e-21 -1.9798828e-05 0.0
-1.247022e-21 -1.9798828e-05 0.0
-1.7124109e-21 -1.9798828e-05 0.0
-1.2759636e-21 -1.9798828e-05 0.0
0.0 -1.9798828e-05 0.0
0.0 -3.3210938e-05 0.0
-3.3873149e-21 -3.3210937e-05 0.0
-1.2393444e-21 -3.3210937e-05 0.0
-1.3895537e-21 -3.3210937e-05 0.0
-1.0888497e-21 -3.3210938e-05 0.0
0.0 -3.3210937e-05 0.0
0.0 -0.011493932 0.0
2.64573e-19 -0.011493932 0.0
1.2135895e-19 -0.011493932 0.0
-1.3525544e-19 -0.011493932 0.0
1.0397051e-19 -0.011493932 0.0
0.0 -0.011493932 0.0
0.0 -0.015314172 0.0
-9.1562458e-20 -0.015314172 0.0
2.6952758e-19 -0.015314172 0.0
4.7656647e-19 -0.015314172 0.0
-7.0183101e-20 -0.015314172 0.0
0.0 -0.015314172 0.0</DataArray>
        <DataArray type="Float64" Name="DisplacementMag" format="ascii">0.0
9.9882333e-22
1.9220498e-21
1.7573645e-21
1.2406176e-21
0.0
1.9798828e-05
1.9798828e-05
1.9798828e-05
1.9798828e-05
1.9798828e-05
1.9798828e-05
3.3210938e-05
3.3210937e-05
3.3210937e-05
3.3210937e-05
3.3210938e-05
3.3210937e-05
0.011493932
0.011493932
0.011493932
0.011493932
0.011493932
0.011493932
0.015314172
0.015314172
0.015314172
0.015314172
0.015314172
0.015314172</DataArray>
        <DataArray type="Float64" Name="Stress" NumberOfComponents="1" format="ascii">0.0
0.0
0.0
0.0
0.0
0.0
0.0
0.0
0.0
0.0
0.0
0.0
0.0
0.0
0.0
0.0
0.0
0.0
0.0
0.0
0.0
0.0
0.0
0.0
0.0
0.0
0.0
0.0
0.0
0.0</DataArray>
      </PointData>
    </Piece>
  </UnstructuredGrid>
</VTKFile>
