1 1 2 23 22 1
2 2 3 24 23 1
3 3 4 25 24 1
4 4 5 26 25 1
5 5 6 27 26 1
6 6 7 28 27 1
7 7 8 29 28 1
8 8 9 30 29 1
9 9 10 31 30 1
10 10 11 32 31 1
11 11 12 33 32 1
12 12 13 34 33 1
13 13 14 35 34 1
14 14 15 36 35 1
15 15 16 37 36 1
16 16 17 38 37 1
17 17 18 39 38 1
18 18 19 40 39 1
19 19 20 41 40 1
20 20 21 42 41 1
21 22 23 44 43 1
22 23 24 45 44 1
23 24 25 46 45 1
24 25 26 47 46 1
25 26 27 48 47 1
26 27 28 49 48 1
27 28 29 50 49 1
28 29 30 51 50 1
29 30 31 52 51 1
30 31 32 53 52 1
31 32 33 54 53 1
32 33 34 55 54 1
33 34 35 56 55 1
34 35 36 57 56 1
35 36 37 58 57 1
36 37 38 59 58 1
37 38 39 60 59 1
38 39 40 61 60 1
39 40 41 62 61 1
40 41 42 63 62 1
41 43 44 65 64 1
42 44 45 66 65 1
43 45 46 67 66 1
44 46 47 68 67 1
45 47 48 69 68 1
46 48 49 70 69 1
47 49 50 71 70 1
48 50 51 72 71 1
49 51 52 73 72 1
50 52 53 74 73 1
51 53 54 75 74 1
52 54 55 76 75 1
53 55 56 77 76 1
54 56 57 78 77 1
55 57 58 79 78 1
56 58 59 80 79 1
57 59 60 81 80 1
58 60 61 82 81 1
59 61 62 83 82 1
60 62 63 84 83 1
61 64 65 86 85 1
62 65 66 87 86 1
63 66 67 88 87 1
64 67 68 89 88 1
65 68 69 90 89 1
66 69 70 91 90 1
67 70 71 92 91 1
68 71 72 93 92 1
69 72 73 94 93 1
70 73 74 95 94 1
71 74 75 96 95 1
72 75 76 97 96 1
73 76 77 98 97 1
74 77 78 99 98 1
75 78 79 100 99 1
76 79 80 101 100 1
77 80 81 102 101 1
78 81 82 103 102 1
79 82 83 104 103 1
80 83 84 105 104 1
81 85 86 107 106 1
82 86 87 108 107 1
83 87 88 109 108 1
84 88 89 110 109 1
85 89 90 111 110 1
86 90 91 112 111 1
87 91 92 113 112 1
88 92 93 114 113 1
89 93 94 115 114 1
90 94 95 116 115 1
91 95 96 117 116 1
92 96 97 118 117 1
93 97 98 119 118 1
94 98 99 120 119 1
95 99 100 121 120 1
96 100 101 122 121 1
97 101 102 123 122 1
98 102 103 124 123 1
99 103 104 125 124 1
100 104 105 126 125 1
101 106 107 128 127 1
102 107 108 129 128 1
103 108 109 130 129 1
104 109 110 131 130 1
105 110 111 132 131 1
106 111 112 133 132 1
107 112 113 134 133 1
108 113 114 135 134 1
109 114 115 136 135 1
110 115 116 137 136 1
111 116 117 138 137 1
112 117 118 139 138 1
113 118 119 140 139 1
114 119 120 141 140 1
115 120 121 142 141 1
116 121 122 143 142 1
117 122 123 144 143 1
118 123 124 145 144 1
119 124 125 146 145 1
120 125 126 147 146 1
121 130 131 149 148 2
122 131 132 150 149 2
123 132 133 151 150 2
124 133 134 152 151 2
125 134 135 153 152 2
126 135 136 154 153 2
127 136 137 155 154 2
128 137 138 156 155 2
129 138 139 157 156 2
130 139 140 158 157 2
131 140 141 159 158 2
132 141 142 160 159 2
133 142 143 161 160 2
134 143 144 162 161 2
135 148 149 164 163 2
136 149 150 165 164 2
137 150 151 166 165 2
138 151 152 167 166 2
139 152 153 168 167 2
140 153 154 169 168 2
141 154 155 170 169 2
142 155 156 171 170 2
143 156 157 172 171 2
144 157 158 173 172 2
145 158 159 174 173 2
146 159 160 175 174 2
147 160 161 176 175 2
148 161 162 177 176 2
149 163 164 179 178 2
150 164 165 180 179 2
151 165 166 181 180 2
152 166 167 182 181 2
153 167 168 183 182 2
154 168 169 184 183 2
155 169 170 185 184 2
156 170 171 186 185 2
157 171 172 187 186 2
158 172 173 188 187 2
159 173 174 189 188 2
160 174 175 190 189 2
161 175 176 191 190 2
162 176 177 192 191 2
163 178 179 194 193 2
164 179 180 195 194 2
165 180 181 196 195 2
166 181 182 197 196 2
167 182 183 198 197 2
168 183 184 199 198 2
169 184 185 200 199 2
170 185 186 201 200 2
171 186 187 202 201 2
172 187 188 203 202 2
173 188 189 204 203 2
174 189 190 205 204 2
175 190 191 206 205 2
176 191 192 207 206 2
177 193 194 209 208 2
178 194 195 210 209 2
179 195 196 211 210 2
180 196 197 212 211 2
181 197 198 213 212 2
182 198 199 214 213 2
183 199 200 215 214 2
184 200 201 216 215 2
185 201 202 217 216 2
186 202 203 218 217 2
187 203 204 219 218 2
188 204 205 220 219 2
189 205 206 221 220 2
190 206 207 222 221 2
191 208 209 224 223 2
192 209 210 225 224 2
193 210 211 226 225 2
194 211 212 227 226 2
195 212 213 228 227 2
196 213 214 229 228 2
197 214 215 230 229 2
198 215 216 231 230 2
199 216 217 232 231 2
200 217 218 233 232 2
201 218 219 234 233 2
202 219 220 235 234 2
203 220 221 236 235 2
204 221 222 237 236 2
205 223 224 239 238 2
206 224 225 240 239 2
207 225 226 241 240 2
208 226 227 242 241 2
209 227 228 243 242 2
210 228 229 244 243 2
211 229 230 245 244 2
212 230 231 246 245 2
213 231 232 247 246 2
214 232 233 248 247 2
215 233 234 249 248 2
216 234 235 250 249 2
217 235 236 251 250 2
218 236 237 252 251 2
219 238 239 254 253 2
220 239 240 255 254 2
221 240 241 256 255 2
222 241 242 257 256 2
223 242 243 258 257 2
224 243 244 259 258 2
225 244 245 260 259 2
226 245 246 261 260 2
227 246 247 262 261 2
228 247 248 263 262 2
229 248 249 264 263 2
230 249 250 265 264 2
231 250 251 266 265 2
232 251 252 267 266 2
233 253 254 269 268 2
234 254 255 270 269 2
235 255 256 271 270 2
236 256 257 272 271 2
237 257 258 273 272 2
238 258 259 274 273 2
239 259 260 275 274 2
240 260 261 276 275 2
241 261 262 277 276 2
242 262 263 278 277 2
243 263 264 279 278 2
244 264 265 280 279 2
245 265 266 281 280 2
246 266 267 282 281 2
247 268 269 284 283 2
248 269 270 285 284 2
249 270 271 286 285 2
250 271 272 287 286 2
251 272 273 288 287 2
252 273 274 289 288 2
253 274 275 290 289 2
254 275 276 291 290 2
255 276 277 292 291 2
256 277 278 293 292 2
257 278 279 294 293 2
258 279 280 295 294 2
259 280 281 296 295 2
260 281 282 297 296 2
261 283 284 299 298 2
262 284 285 300 299 2
263 285 286 301 300 2
264 286 287 302 301 2
265 287 288 303 302 2
266 288 289 304 303 2
267 289 290 305 304 2
268 290 291 306 305 2
269 291 292 307 306 2
270 292 293 308 307 2
271 293 294 309 308 2
272 294 295 310 309 2
273 295 296 311 310 2
274 296 297 312 311 2
275 298 299 314 313 2
276 299 300 315 314 2
277 300 301 316 315 2
278 301 302 317 316 2
279 302 303 318 317 2
280 303 304 319 318 2
281 304 305 320 319 2
282 305 306 321 320 2
283 306 307 322 321 2
284 307 308 323 322 2
285 308 309 324 323 2
286 309 310 325 324 2
287 310 311 326 325 2
288 311 312 327 326 2
289 313 314 329 328 2
290 314 315 330 329 2
291 315 316 331 330 2
292 316 317 332 331 2
293 317 318 333 332 2
294 318 319 334 333 2
295 319 320 335 334 2
296 320 321 336 335 2
297 321 322 337 336 2
298 322 323 338 337 2
299 323 324 339 338 2
300 324 325 340 339 2
301 325 326 341 340 2
302 326 327 342 341 2
303 328 329 344 343 2
304 329 330 345 344 2
305 330 331 346 345 2
306 331 332 347 346 2
307 332 333 348 347 2
308 333 334 349 348 2
309 334 335 350 349 2
310 335 336 351 350 2
311 336 337 352 351 2
312 337 338 353 352 2
313 338 339 354 353 2
314 339 340 355 354 2
315 340 341 356 355 2
316 341 342 357 356 2
