1 1 2 43 42 1
2 2 3 44 43 1
3 3 4 45 44 1
4 4 5 46 45 1
5 5 6 47 46 1
6 6 7 48 47 1
7 7 8 49 48 1
8 8 9 50 49 1
9 9 10 51 50 1
10 10 11 52 51 1
11 11 12 53 52 1
12 12 13 54 53 1
13 13 14 55 54 1
14 14 15 56 55 1
15 15 16 57 56 1
16 16 17 58 57 1
17 17 18 59 58 1
18 18 19 60 59 1
19 19 20 61 60 1
20 20 21 62 61 1
21 21 22 63 62 1
22 22 23 64 63 1
23 23 24 65 64 1
24 24 25 66 65 1
25 25 26 67 66 1
26 26 27 68 67 1
27 27 28 69 68 1
28 28 29 70 69 1
29 29 30 71 70 1
30 30 31 72 71 1
31 31 32 73 72 1
32 32 33 74 73 1
33 33 34 75 74 1
34 34 35 76 75 1
35 35 36 77 76 1
36 36 37 78 77 1
37 37 38 79 78 1
38 38 39 80 79 1
39 39 40 81 80 1
40 40 41 82 81 1
41 42 43 84 83 1
42 43 44 85 84 1
43 44 45 86 85 1
44 45 46 87 86 1
45 46 47 88 87 1
46 47 48 89 88 1
47 48 49 90 89 1
48 49 50 91 90 1
49 50 51 92 91 1
50 51 52 93 92 1
51 52 53 94 93 1
52 53 54 95 94 1
53 54 55 96 95 1
54 55 56 97 96 1
55 56 57 98 97 1
56 57 58 99 98 1
57 58 59 100 99 1
58 59 60 101 100 1
59 60 61 102 101 1
60 61 62 103 102 1
61 62 63 104 103 1
62 63 64 105 104 1
63 64 65 106 105 1
64 65 66 107 106 1
65 66 67 108 107 1
66 67 68 109 108 1
67 68 69 110 109 1
68 69 70 111 110 1
69 70 71 112 111 1
70 71 72 113 112 1
71 72 73 114 113 1
72 73 74 115 114 1
73 74 75 116 115 1
74 75 76 117 116 1
75 76 77 118 117 1
76 77 78 119 118 1
77 78 79 120 119 1
78 79 80 121 120 1
79 80 81 122 121 1
80 81 82 123 122 1
81 83 84 125 124 1
82 84 85 126 125 1
83 85 86 127 126 1
84 86 87 128 127 1
85 87 88 129 128 1
86 88 89 130 129 1
87 89 90 131 130 1
88 90 91 132 131 1
89 91 92 133 132 1
90 92 93 134 133 1
91 93 94 135 134 1
92 94 95 136 135 1
93 95 96 137 136 1
94 96 97 138 137 1
95 97 98 139 138 1
96 98 99 140 139 1
97 99 100 141 140 1
98 100 101 142 141 1
99 101 102 143 142 1
100 102 103 144 143 1
101 103 104 145 144 1
102 104 105 146 145 1
103 105 106 147 146 1
104 106 107 148 147 1
105 107 108 149 148 1
106 108 109 150 149 1
107 109 110 151 150 1
108 110 111 152 151 1
109 111 112 153 152 1
110 112 113 154 153 1
111 113 114 155 154 1
112 114 115 156 155 1
113 115 116 157 156 1
114 116 117 158 157 1
115 117 118 159 158 1
116 118 119 160 159 1
117 119 120 161 160 1
118 120 121 162 161 1
119 121 122 163 162 1
120 122 123 164 163 1
121 124 125 166 165 1
122 125 126 167 166 1
123 126 127 168 167 1
124 127 128 169 168 1
125 128 129 170 169 1
126 129 130 171 170 1
127 130 131 172 171 1
128 131 132 173 172 1
129 132 133 174 173 1
130 133 134 175 174 1
131 134 135 176 175 1
132 135 136 177 176 1
133 136 137 178 177 1
134 137 138 179 178 1
135 138 139 180 179 1
136 139 140 181 180 1
137 140 141 182 181 1
138 141 142 183 182 1
139 142 143 184 183 1
140 143 144 185 184 1
141 144 145 186 185 1
142 145 146 187 186 1
143 146 147 188 187 1
144 147 148 189 188 1
145 148 149 190 189 1
146 149 150 191 190 1
147 150 151 192 191 1
148 151 152 193 192 1
149 152 153 194 193 1
150 153 154 195 194 1
151 154 155 196 195 1
152 155 156 197 196 1
153 156 157 198 197 1
154 157 158 199 198 1
155 158 159 200 199 1
156 159 160 201 200 1
157 160 161 202 201 1
158 161 162 203 202 1
159 162 163 204 203 1
160 163 164 205 204 1
161 165 166 207 206 1
162 166 167 208 207 1
163 167 168 209 208 1
164 168 169 210 209 1
165 169 170 211 210 1
166 170 171 212 211 1
167 171 172 213 212 1
168 172 173 214 213 1
169 173 174 215 214 1
170 174 175 216 215 1
171 175 176 217 216 1
172 176 177 218 217 1
173 177 178 219 218 1
174 178 179 220 219 1
175 179 180 221 220 1
176 180 181 222 221 1
177 181 182 223 222 1
178 182 183 224 223 1
179 183 184 225 224 1
180 184 185 226 225 1
181 185 186 227 226 1
182 186 187 228 227 1
183 187 188 229 228 1
184 188 189 230 229 1
185 189 190 231 230 1
186 190 191 232 231 1
187 191 192 233 232 1
188 192 193 234 233 1
189 193 194 235 234 1
190 194 195 236 235 1
191 195 196 237 236 1
192 196 197 238 237 1
193 197 198 239 238 1
194 198 199 240 239 1
195 199 200 241 240 1
196 200 201 242 241 1
197 201 202 243 242 1
198 202 203 244 243 1
199 203 204 245 244 1
200 204 205 246 245 1
201 206 207 248 247 1
202 207 208 249 248 1
203 208 209 250 249 1
204 209 210 251 250 1
205 210 211 252 251 1
206 211 212 253 252 1
207 212 213 254 253 1
208 213 214 255 254 1
209 214 215 256 255 1
210 215 216 257 256 1
211 216 217 258 257 1
212 217 218 259 258 1
213 218 219 260 259 1
214 219 220 261 260 1
215 220 221 262 261 1
216 221 222 263 262 1
217 222 223 264 263 1
218 223 224 265 264 1
219 224 225 266 265 1
220 225 226 267 266 1
221 226 227 268 267 1
222 227 228 269 268 1
223 228 229 270 269 1
224 229 230 271 270 1
225 230 231 272 271 1
226 231 232 273 272 1
227 232 233 274 273 1
228 233 234 275 274 1
229 234 235 276 275 1
230 235 236 277 276 1
231 236 237 278 277 1
232 237 238 279 278 1
233 238 239 280 279 1
234 239 240 281 280 1
235 240 241 282 281 1
236 241 242 283 282 1
237 242 243 284 283 1
238 243 244 285 284 1
239 244 245 286 285 1
240 245 246 287 286 1
241 247 248 289 288 1
242 248 249 290 289 1
243 249 250 291 290 1
244 250 251 292 291 1
245 251 252 293 292 1
246 252 253 294 293 1
247 253 254 295 294 1
248 254 255 296 295 1
249 255 256 297 296 1
250 256 257 298 297 1
251 257 258 299 298 1
252 258 259 300 299 1
253 259 260 301 300 1
254 260 261 302 301 1
255 261 262 303 302 1
256 262 263 304 303 1
257 263 264 305 304 1
258 264 265 306 305 1
259 265 266 307 306 1
260 266 267 308 307 1
261 267 268 309 308 1
262 268 269 310 309 1
263 269 270 311 310 1
264 270 271 312 311 1
265 271 272 313 312 1
266 272 273 314 313 1
267 273 274 315 314 1
268 274 275 316 315 1
269 275 276 317 316 1
270 276 277 318 317 1
271 277 278 319 318 1
272 278 279 320 319 1
273 279 280 321 320 1
274 280 281 322 321 1
275 281 282 323 322 1
276 282 283 324 323 1
277 283 284 325 324 1
278 284 285 326 325 1
279 285 286 327 326 1
280 286 287 328 327 1
281 288 289 330 329 1
282 289 290 331 330 1
283 290 291 332 331 1
284 291 292 333 332 1
285 292 293 334 333 1
286 293 294 335 334 1
287 294 295 336 335 1
288 295 296 337 336 1
289 296 297 338 337 1
290 297 298 339 338 1
291 298 299 340 339 1
292 299 300 341 340 1
293 300 301 342 341 1
294 301 302 343 342 1
295 302 303 344 343 1
296 303 304 345 344 1
297 304 305 346 345 1
298 305 306 347 346 1
299 306 307 348 347 1
300 307 308 349 348 1
301 308 309 350 349 1
302 309 310 351 350 1
303 310 311 352 351 1
304 311 312 353 352 1
305 312 313 354 353 1
306 313 314 355 354 1
307 314 315 356 355 1
308 315 316 357 356 1
309 316 317 358 357 1
310 317 318 359 358 1
311 318 319 360 359 1
312 319 320 361 360 1
313 320 321 362 361 1
314 321 322 363 362 1
315 322 323 364 363 1
316 323 324 365 364 1
317 324 325 366 365 1
318 325 326 367 366 1
319 326 327 368 367 1
320 327 328 369 368 1
321 329 330 371 370 1
322 330 331 372 371 1
323 331 332 373 372 1
324 332 333 374 373 1
325 333 334 375 374 1
326 334 335 376 375 1
327 335 336 377 376 1
328 336 337 378 377 1
329 337 338 379 378 1
330 338 339 380 379 1
331 339 340 381 380 1
332 340 341 382 381 1
333 341 342 383 382 1
334 342 343 384 383 1
335 343 344 385 384 1
336 344 345 386 385 1
337 345 346 387 386 1
338 346 347 388 387 1
339 347 348 389 388 1
340 348 349 390 389 1
341 349 350 391 390 1
342 350 351 392 391 1
343 351 352 393 392 1
344 352 353 394 393 1
345 353 354 395 394 1
346 354 355 396 395 1
347 355 356 397 396 1
348 356 357 398 397 1
349 357 358 399 398 1
350 358 359 400 399 1
351 359 360 401 400 1
352 360 361 402 401 1
353 361 362 403 402 1
354 362 363 404 403 1
355 363 364 405 404 1
356 364 365 406 405 1
357 365 366 407 406 1
358 366 367 408 407 1
359 367 368 409 408 1
360 368 369 410 409 1
361 370 371 412 411 1
362 371 372 413 412 1
363 372 373 414 413 1
364 373 374 415 414 1
365 374 375 416 415 1
366 375 376 417 416 1
367 376 377 418 417 1
368 377 378 419 418 1
369 378 379 420 419 1
370 379 380 421 420 1
371 380 381 422 421 1
372 381 382 423 422 1
373 382 383 424 423 1
374 383 384 425 424 1
375 384 385 426 425 1
376 385 386 427 426 1
377 386 387 428 427 1
378 387 388 429 428 1
379 388 389 430 429 1
380 389 390 431 430 1
381 390 391 432 431 1
382 391 392 433 432 1
383 392 393 434 433 1
384 393 394 435 434 1
385 394 395 436 435 1
386 395 396 437 436 1
387 396 397 438 437 1
388 397 398 439 438 1
389 398 399 440 439 1
390 399 400 441 440 1
391 400 401 442 441 1
392 401 402 443 442 1
393 402 403 444 443 1
394 403 404 445 444 1
395 404 405 446 445 1
396 405 406 447 446 1
397 406 407 448 447 1
398 407 408 449 448 1
399 408 409 450 449 1
400 409 410 451 450 1
401 411 412 453 452 1
402 412 413 454 453 1
403 413 414 455 454 1
404 414 415 456 455 1
405 415 416 457 456 1
406 416 417 458 457 1
407 417 418 459 458 1
408 418 419 460 459 1
409 419 420 461 460 1
410 420 421 462 461 1
411 421 422 463 462 1
412 422 423 464 463 1
413 423 424 465 464 1
414 424 425 466 465 1
415 425 426 467 466 1
416 426 427 468 467 1
417 427 428 469 468 1
418 428 429 470 469 1
419 429 430 471 470 1
420 430 431 472 471 1
421 431 432 473 472 1
422 432 433 474 473 1
423 433 434 475 474 1
424 434 435 476 475 1
425 435 436 477 476 1
426 436 437 478 477 1
427 437 438 479 478 1
428 438 439 480 479 1
429 439 440 481 480 1
430 440 441 482 481 1
431 441 442 483 482 1
432 442 443 484 483 1
433 443 444 485 484 1
434 444 445 486 485 1
435 445 446 487 486 1
436 446 447 488 487 1
437 447 448 489 488 1
438 448 449 490 489 1
439 449 450 491 490 1
440 450 451 492 491 1
441 452 453 494 493 1
442 453 454 495 494 1
443 454 455 496 495 1
444 455 456 497 496 1
445 456 457 498 497 1
446 457 458 499 498 1
447 458 459 500 499 1
448 459 460 501 500 1
449 460 461 502 501 1
450 461 462 503 502 1
451 462 463 504 503 1
452 463 464 505 504 1
453 464 465 506 505 1
454 465 466 507 506 1
455 466 467 508 507 1
456 467 468 509 508 1
457 468 469 510 509 1
458 469 470 511 510 1
459 470 471 512 511 1
460 471 472 513 512 1
461 472 473 514 513 1
462 473 474 515 514 1
463 474 475 516 515 1
464 475 476 517 516 1
465 476 477 518 517 1
466 477 478 519 518 1
467 478 479 520 519 1
468 479 480 521 520 1
469 480 481 522 521 1
470 481 482 523 522 1
471 482 483 524 523 1
472 483 484 525 524 1
473 484 485 526 525 1
474 485 486 527 526 1
475 486 487 528 527 1
476 487 488 529 528 1
477 488 489 530 529 1
478 489 490 531 530 1
479 490 491 532 531 1
480 491 492 533 532 1
481 493 494 535 534 1
482 494 495 536 535 1
483 495 496 537 536 1
484 496 497 538 537 1
485 497 498 539 538 1
486 498 499 540 539 1
487 499 500 541 540 1
488 500 501 542 541 1
489 501 502 543 542 1
490 502 503 544 543 1
491 503 504 545 544 1
492 504 505 546 545 1
493 505 506 547 546 1
494 506 507 548 547 1
495 507 508 549 548 1
496 508 509 550 549 1
497 509 510 551 550 1
498 510 511 552 551 1
499 511 512 553 552 1
500 512 513 554 553 1
501 513 514 555 554 1
502 514 515 556 555 1
503 515 516 557 556 1
504 516 517 558 557 1
505 517 518 559 558 1
506 518 519 560 559 1
507 519 520 561 560 1
508 520 521 562 561 1
509 521 522 563 562 1
510 522 523 564 563 1
511 523 524 565 564 1
512 524 525 566 565 1
513 525 526 567 566 1
514 526 527 568 567 1
515 527 528 569 568 1
516 528 529 570 569 1
517 529 530 571 570 1
518 530 531 572 571 1
519 531 532 573 572 1
520 532 533 574 573 1
521 534 535 576 575 1
522 535 536 577 576 1
523 536 537 578 577 1
524 537 538 579 578 1
525 538 539 580 579 1
526 539 540 581 580 1
527 540 541 582 581 1
528 541 542 583 582 1
529 542 543 584 583 1
530 543 544 585 584 1
531 544 545 586 585 1
532 545 546 587 586 1
533 546 547 588 587 1
534 547 548 589 588 1
535 548 549 590 589 1
536 549 550 591 590 1
537 550 551 592 591 1
538 551 552 593 592 1
539 552 553 594 593 1
540 553 554 595 594 1
541 554 555 596 595 1
542 555 556 597 596 1
543 556 557 598 597 1
544 557 558 599 598 1
545 558 559 600 599 1
546 559 560 601 600 1
547 560 561 602 601 1
548 561 562 603 602 1
549 562 563 604 603 1
550 563 564 605 604 1
551 564 565 606 605 1
552 565 566 607 606 1
553 566 567 608 607 1
554 567 568 609 608 1
555 568 569 610 609 1
556 569 570 611 610 1
557 570 571 612 611 1
558 571 572 613 612 1
559 572 573 614 613 1
560 573 574 615 614 1
561 575 576 617 616 1
562 576 577 618 617 1
563 577 578 619 618 1
564 578 579 620 619 1
565 579 580 621 620 1
566 580 581 622 621 1
567 581 582 623 622 1
568 582 583 624 623 1
569 583 584 625 624 1
570 584 585 626 625 1
571 585 586 627 626 1
572 586 587 628 627 1
573 587 588 629 628 1
574 588 589 630 629 1
575 589 590 631 630 1
576 590 591 632 631 1
577 591 592 633 632 1
578 592 593 634 633 1
579 593 594 635 634 1
580 594 595 636 635 1
581 595 596 637 636 1
582 596 597 638 637 1
583 597 598 639 638 1
584 598 599 640 639 1
585 599 600 641 640 1
586 600 601 642 641 1
587 601 602 643 642 1
588 602 603 644 643 1
589 603 604 645 644 1
590 604 605 646 645 1
591 605 606 647 646 1
592 606 607 648 647 1
593 607 608 649 648 1
594 608 609 650 649 1
595 609 610 651 650 1
596 610 611 652 651 1
597 611 612 653 652 1
598 612 613 654 653 1
599 613 614 655 654 1
600 614 615 656 655 1
601 616 617 658 657 1
602 617 618 659 658 1
603 618 619 660 659 1
604 619 620 661 660 1
605 620 621 662 661 1
606 621 622 663 662 1
607 622 623 664 663 1
608 623 624 665 664 1
609 624 625 666 665 1
610 625 626 667 666 1
611 626 627 668 667 1
612 627 628 669 668 1
613 628 629 670 669 1
614 629 630 671 670 1
615 630 631 672 671 1
616 631 632 673 672 1
617 632 633 674 673 1
618 633 634 675 674 1
619 634 635 676 675 1
620 635 636 677 676 1
621 636 637 678 677 1
622 637 638 679 678 1
623 638 639 680 679 1
624 639 640 681 680 1
625 640 641 682 681 1
626 641 642 683 682 1
627 642 643 684 683 1
628 643 644 685 684 1
629 644 645 686 685 1
630 645 646 687 686 1
631 646 647 688 687 1
632 647 648 689 688 1
633 648 649 690 689 1
634 649 650 691 690 1
635 650 651 692 691 1
636 651 652 693 692 1
637 652 653 694 693 1
638 653 654 695 694 1
639 654 655 696 695 1
640 655 656 697 696 1
641 657 658 699 698 1
642 658 659 700 699 1
643 659 660 701 700 1
644 660 661 702 701 1
645 661 662 703 702 1
646 662 663 704 703 1
647 663 664 705 704 1
648 664 665 706 705 1
649 665 666 707 706 1
650 666 667 708 707 1
651 667 668 709 708 1
652 668 669 710 709 1
653 669 670 711 710 1
654 670 671 712 711 1
655 671 672 713 712 1
656 672 673 714 713 1
657 673 674 715 714 1
658 674 675 716 715 1
659 675 676 717 716 1
660 676 677 718 717 1
661 677 678 719 718 1
662 678 679 720 719 1
663 679 680 721 720 1
664 680 681 722 721 1
665 681 682 723 722 1
666 682 683 724 723 1
667 683 684 725 724 1
668 684 685 726 725 1
669 685 686 727 726 1
670 686 687 728 727 1
671 687 688 729 728 1
672 688 689 730 729 1
673 689 690 731 730 1
674 690 691 732 731 1
675 691 692 733 732 1
676 692 693 734 733 1
677 693 694 735 734 1
678 694 695 736 735 1
679 695 696 737 736 1
680 696 697 738 737 1
681 698 699 740 739 1
682 699 700 741 740 1
683 700 701 742 741 1
684 701 702 743 742 1
685 702 703 744 743 1
686 703 704 745 744 1
687 704 705 746 745 1
688 705 706 747 746 1
689 706 707 748 747 1
690 707 708 749 748 1
691 708 709 750 749 1
692 709 710 751 750 1
693 710 711 752 751 1
694 711 712 753 752 1
695 712 713 754 753 1
696 713 714 755 754 1
697 714 715 756 755 1
698 715 716 757 756 1
699 716 717 758 757 1
700 717 718 759 758 1
701 718 719 760 759 1
702 719 720 761 760 1
703 720 721 762 761 1
704 721 722 763 762 1
705 722 723 764 763 1
706 723 724 765 764 1
707 724 725 766 765 1
708 725 726 767 766 1
709 726 727 768 767 1
710 727 728 769 768 1
711 728 729 770 769 1
712 729 730 771 770 1
713 730 731 772 771 1
714 731 732 773 772 1
715 732 733 774 773 1
716 733 734 775 774 1
717 734 735 776 775 1
718 735 736 777 776 1
719 736 737 778 777 1
720 737 738 779 778 1
721 739 740 781 780 1
722 740 741 782 781 1
723 741 742 783 782 1
724 742 743 784 783 1
725 743 744 785 784 1
726 744 745 786 785 1
727 745 746 787 786 1
728 746 747 788 787 1
729 747 748 789 788 1
730 748 749 790 789 1
731 749 750 791 790 1
732 750 751 792 791 1
733 751 752 793 792 1
734 752 753 794 793 1
735 753 754 795 794 1
736 754 755 796 795 1
737 755 756 797 796 1
738 756 757 798 797 1
739 757 758 799 798 1
740 758 759 800 799 1
741 759 760 801 800 1
742 760 761 802 801 1
743 761 762 803 802 1
744 762 763 804 803 1
745 763 764 805 804 1
746 764 765 806 805 1
747 765 766 807 806 1
748 766 767 808 807 1
749 767 768 809 808 1
750 768 769 810 809 1
751 769 770 811 810 1
752 770 771 812 811 1
753 771 772 813 812 1
754 772 773 814 813 1
755 773 774 815 814 1
756 774 775 816 815 1
757 775 776 817 816 1
758 776 777 818 817 1
759 777 778 819 818 1
760 778 779 820 819 1
761 780 781 822 821 1
762 781 782 823 822 1
763 782 783 824 823 1
764 783 784 825 824 1
765 784 785 826 825 1
766 785 786 827 826 1
767 786 787 828 827 1
768 787 788 829 828 1
769 788 789 830 829 1
770 789 790 831 830 1
771 790 791 832 831 1
772 791 792 833 832 1
773 792 793 834 833 1
774 793 794 835 834 1
775 794 795 836 835 1
776 795 796 837 836 1
777 796 797 838 837 1
778 797 798 839 838 1
779 798 799 840 839 1
780 799 800 841 840 1
781 800 801 842 841 1
782 801 802 843 842 1
783 802 803 844 843 1
784 803 804 845 844 1
785 804 805 846 845 1
786 805 806 847 846 1
787 806 807 848 847 1
788 807 808 849 848 1
789 808 809 850 849 1
790 809 810 851 850 1
791 810 811 852 851 1
792 811 812 853 852 1
793 812 813 854 853 1
794 813 814 855 854 1
795 814 815 856 855 1
796 815 816 857 856 1
797 816 817 858 857 1
798 817 818 859 858 1
799 818 819 860 859 1
800 819 820 861 860 1
801 821 822 863 862 1
802 822 823 864 863 1
803 823 824 865 864 1
804 824 825 866 865 1
805 825 826 867 866 1
806 826 827 868 867 1
807 827 828 869 868 1
808 828 829 870 869 1
809 829 830 871 870 1
810 830 831 872 871 1
811 831 832 873 872 1
812 832 833 874 873 1
813 833 834 875 874 1
814 834 835 876 875 1
815 835 836 877 876 1
816 836 837 878 877 1
817 837 838 879 878 1
818 838 839 880 879 1
819 839 840 881 880 1
820 840 841 882 881 1
821 841 842 883 882 1
822 842 843 884 883 1
823 843 844 885 884 1
824 844 845 886 885 1
825 845 846 887 886 1
826 846 847 888 887 1
827 847 848 889 888 1
828 848 849 890 889 1
829 849 850 891 890 1
830 850 851 892 891 1
831 851 852 893 892 1
832 852 853 894 893 1
833 853 854 895 894 1
834 854 855 896 895 1
835 855 856 897 896 1
836 856 857 898 897 1
837 857 858 899 898 1
838 858 859 900 899 1
839 859 860 901 900 1
840 860 861 902 901 1
841 862 863 904 903 1
842 863 864 905 904 1
843 864 865 906 905 1
844 865 866 907 906 1
845 866 867 908 907 1
846 867 868 909 908 1
847 868 869 910 909 1
848 869 870 911 910 1
849 870 871 912 911 1
850 871 872 913 912 1
851 872 873 914 913 1
852 873 874 915 914 1
853 874 875 916 915 1
854 875 876 917 916 1
855 876 877 918 917 1
856 877 878 919 918 1
857 878 879 920 919 1
858 879 880 921 920 1
859 880 881 922 921 1
860 881 882 923 922 1
861 882 883 924 923 1
862 883 884 925 924 1
863 884 885 926 925 1
864 885 886 927 926 1
865 886 887 928 927 1
866 887 888 929 928 1
867 888 889 930 929 1
868 889 890 931 930 1
869 890 891 932 931 1
870 891 892 933 932 1
871 892 893 934 933 1
872 893 894 935 934 1
873 894 895 936 935 1
874 895 896 937 936 1
875 896 897 938 937 1
876 897 898 939 938 1
877 898 899 940 939 1
878 899 900 941 940 1
879 900 901 942 941 1
880 901 902 943 942 1
881 903 904 945 944 1
882 904 905 946 945 1
883 905 906 947 946 1
884 906 907 948 947 1
885 907 908 949 948 1
886 908 909 950 949 1
887 909 910 951 950 1
888 910 911 952 951 1
889 911 912 953 952 1
890 912 913 954 953 1
891 913 914 955 954 1
892 914 915 956 955 1
893 915 916 957 956 1
894 916 917 958 957 1
895 917 918 959 958 1
896 918 919 960 959 1
897 919 920 961 960 1
898 920 921 962 961 1
899 921 922 963 962 1
900 922 923 964 963 1
901 923 924 965 964 1
902 924 925 966 965 1
903 925 926 967 966 1
904 926 927 968 967 1
905 927 928 969 968 1
906 928 929 970 969 1
907 929 930 971 970 1
908 930 931 972 971 1
909 931 932 973 972 1
910 932 933 974 973 1
911 933 934 975 974 1
912 934 935 976 975 1
913 935 936 977 976 1
914 936 937 978 977 1
915 937 938 979 978 1
916 938 939 980 979 1
917 939 940 981 980 1
918 940 941 982 981 1
919 941 942 983 982 1
920 942 943 984 983 1
921 944 945 986 985 1
922 945 946 987 986 1
923 946 947 988 987 1
924 947 948 989 988 1
925 948 949 990 989 1
926 949 950 991 990 1
927 950 951 992 991 1
928 951 952 993 992 1
929 952 953 994 993 1
930 953 954 995 994 1
931 954 955 996 995 1
932 955 956 997 996 1
933 956 957 998 997 1
934 957 958 999 998 1
935 958 959 1000 999 1
936 959 960 1001 1000 1
937 960 961 1002 1001 1
938 961 962 1003 1002 1
939 962 963 1004 1003 1
940 963 964 1005 1004 1
941 964 965 1006 1005 1
942 965 966 1007 1006 1
943 966 967 1008 1007 1
944 967 968 1009 1008 1
945 968 969 1010 1009 1
946 969 970 1011 1010 1
947 970 971 1012 1011 1
948 971 972 1013 1012 1
949 972 973 1014 1013 1
950 973 974 1015 1014 1
951 974 975 1016 1015 1
952 975 976 1017 1016 1
953 976 977 1018 1017 1
954 977 978 1019 1018 1
955 978 979 1020 1019 1
956 979 980 1021 1020 1
957 980 981 1022 1021 1
958 981 982 1023 1022 1
959 982 983 1024 1023 1
960 983 984 1025 1024 1
961 997 998 1027 1026 2
962 998 999 1028 1027 2
963 999 1000 1029 1028 2
964 1000 1001 1030 1029 2
965 1001 1002 1031 1030 2
966 1002 1003 1032 1031 2
967 1003 1004 1033 1032 2
968 1004 1005 1034 1033 2
969 1005 1006 1035 1034 2
970 1006 1007 1036 1035 2
971 1007 1008 1037 1036 2
972 1008 1009 1038 1037 2
973 1009 1010 1039 1038 2
974 1010 1011 1040 1039 2
975 1011 1012 1041 1040 2
976 1012 1013 1042 1041 2
977 1026 1027 1044 1043 2
978 1027 1028 1045 1044 2
979 1028 1029 1046 1045 2
980 1029 1030 1047 1046 2
981 1030 1031 1048 1047 2
982 1031 1032 1049 1048 2
983 1032 1033 1050 1049 2
984 1033 1034 1051 1050 2
985 1034 1035 1052 1051 2
986 1035 1036 1053 1052 2
987 1036 1037 1054 1053 2
988 1037 1038 1055 1054 2
989 1038 1039 1056 1055 2
990 1039 1040 1057 1056 2
991 1040 1041 1058 1057 2
992 1041 1042 1059 1058 2
993 1043 1044 1061 1060 2
994 1044 1045 1062 1061 2
995 1045 1046 1063 1062 2
996 1046 1047 1064 1063 2
997 1047 1048 1065 1064 2
998 1048 1049 1066 1065 2
999 1049 1050 1067 1066 2
1000 1050 1051 1068 1067 2
1001 1051 1052 1069 1068 2
1002 1052 1053 1070 1069 2
1003 1053 1054 1071 1070 2
1004 1054 1055 1072 1071 2
1005 1055 1056 1073 1072 2
1006 1056 1057 1074 1073 2
1007 1057 1058 1075 1074 2
1008 1058 1059 1076 1075 2
1009 1060 1061 1078 1077 2
1010 1061 1062 1079 1078 2
1011 1062 1063 1080 1079 2
1012 1063 1064 1081 1080 2
1013 1064 1065 1082 1081 2
1014 1065 1066 1083 1082 2
1015 1066 1067 1084 1083 2
1016 1067 1068 1085 1084 2
1017 1068 1069 1086 1085 2
1018 1069 1070 1087 1086 2
1019 1070 1071 1088 1087 2
1020 1071 1072 1089 1088 2
1021 1072 1073 1090 1089 2
1022 1073 1074 1091 1090 2
1023 1074 1075 1092 1091 2
1024 1075 1076 1093 1092 2
1025 1077 1078 1095 1094 2
1026 1078 1079 1096 1095 2
1027 1079 1080 1097 1096 2
1028 1080 1081 1098 1097 2
1029 1081 1082 1099 1098 2
1030 1082 1083 1100 1099 2
1031 1083 1084 1101 1100 2
1032 1084 1085 1102 1101 2
1033 1085 1086 1103 1102 2
1034 1086 1087 1104 1103 2
1035 1087 1088 1105 1104 2
1036 1088 1089 1106 1105 2
1037 1089 1090 1107 1106 2
1038 1090 1091 1108 1107 2
1039 1091 1092 1109 1108 2
1040 1092 1093 1110 1109 2
1041 1094 1095 1112 1111 2
1042 1095 1096 1113 1112 2
1043 1096 1097 1114 1113 2
1044 1097 1098 1115 1114 2
1045 1098 1099 1116 1115 2
1046 1099 1100 1117 1116 2
1047 1100 1101 1118 1117 2
1048 1101 1102 1119 1118 2
1049 1102 1103 1120 1119 2
1050 1103 1104 1121 1120 2
1051 1104 1105 1122 1121 2
1052 1105 1106 1123 1122 2
1053 1106 1107 1124 1123 2
1054 1107 1108 1125 1124 2
1055 1108 1109 1126 1125 2
1056 1109 1110 1127 1126 2
1057 1111 1112 1129 1128 2
1058 1112 1113 1130 1129 2
1059 1113 1114 1131 1130 2
1060 1114 1115 1132 1131 2
1061 1115 1116 1133 1132 2
1062 1116 1117 1134 1133 2
1063 1117 1118 1135 1134 2
1064 1118 1119 1136 1135 2
1065 1119 1120 1137 1136 2
1066 1120 1121 1138 1137 2
1067 1121 1122 1139 1138 2
1068 1122 1123 1140 1139 2
1069 1123 1124 1141 1140 2
1070 1124 1125 1142 1141 2
1071 1125 1126 1143 1142 2
1072 1126 1127 1144 1143 2
1073 1128 1129 1146 1145 2
1074 1129 1130 1147 1146 2
1075 1130 1131 1148 1147 2
1076 1131 1132 1149 1148 2
1077 1132 1133 1150 1149 2
1078 1133 1134 1151 1150 2
1079 1134 1135 1152 1151 2
1080 1135 1136 1153 1152 2
1081 1136 1137 1154 1153 2
1082 1137 1138 1155 1154 2
1083 1138 1139 1156 1155 2
1084 1139 1140 1157 1156 2
1085 1140 1141 1158 1157 2
1086 1141 1142 1159 1158 2
1087 1142 1143 1160 1159 2
1088 1143 1144 1161 1160 2
1089 1145 1146 1163 1162 2
1090 1146 1147 1164 1163 2
1091 1147 1148 1165 1164 2
1092 1148 1149 1166 1165 2
1093 1149 1150 1167 1166 2
1094 1150 1151 1168 1167 2
1095 1151 1152 1169 1168 2
1096 1152 1153 1170 1169 2
1097 1153 1154 1171 1170 2
1098 1154 1155 1172 1171 2
1099 1155 1156 1173 1172 2
1100 1156 1157 1174 1173 2
1101 1157 1158 1175 1174 2
1102 1158 1159 1176 1175 2
1103 1159 1160 1177 1176 2
1104 1160 1161 1178 1177 2
1105 1162 1163 1180 1179 2
1106 1163 1164 1181 1180 2
1107 1164 1165 1182 1181 2
1108 1165 1166 1183 1182 2
1109 1166 1167 1184 1183 2
1110 1167 1168 1185 1184 2
1111 1168 1169 1186 1185 2
1112 1169 1170 1187 1186 2
1113 1170 1171 1188 1187 2
1114 1171 1172 1189 1188 2
1115 1172 1173 1190 1189 2
1116 1173 1174 1191 1190 2
1117 1174 1175 1192 1191 2
1118 1175 1176 1193 1192 2
1119 1176 1177 1194 1193 2
1120 1177 1178 1195 1194 2
1121 1179 1180 1197 1196 2
1122 1180 1181 1198 1197 2
1123 1181 1182 1199 1198 2
1124 1182 1183 1200 1199 2
1125 1183 1184 1201 1200 2
1126 1184 1185 1202 1201 2
1127 1185 1186 1203 1202 2
1128 1186 1187 1204 1203 2
1129 1187 1188 1205 1204 2
1130 1188 1189 1206 1205 2
1131 1189 1190 1207 1206 2
1132 1190 1191 1208 1207 2
1133 1191 1192 1209 1208 2
1134 1192 1193 1210 1209 2
1135 1193 1194 1211 1210 2
1136 1194 1195 1212 1211 2
1137 1196 1197 1214 1213 2
1138 1197 1198 1215 1214 2
1139 1198 1199 1216 1215 2
1140 1199 1200 1217 1216 2
1141 1200 1201 1218 1217 2
1142 1201 1202 1219 1218 2
1143 1202 1203 1220 1219 2
1144 1203 1204 1221 1220 2
1145 1204 1205 1222 1221 2
1146 1205 1206 1223 1222 2
1147 1206 1207 1224 1223 2
1148 1207 1208 1225 1224 2
1149 1208 1209 1226 1225 2
1150 1209 1210 1227 1226 2
1151 1210 1211 1228 1227 2
1152 1211 1212 1229 1228 2
1153 1213 1214 1231 1230 2
1154 1214 1215 1232 1231 2
1155 1215 1216 1233 1232 2
1156 1216 1217 1234 1233 2
1157 1217 1218 1235 1234 2
1158 1218 1219 1236 1235 2
1159 1219 1220 1237 1236 2
1160 1220 1221 1238 1237 2
1161 1221 1222 1239 1238 2
1162 1222 1223 1240 1239 2
1163 1223 1224 1241 1240 2
1164 1224 1225 1242 1241 2
1165 1225 1226 1243 1242 2
1166 1226 1227 1244 1243 2
1167 1227 1228 1245 1244 2
1168 1228 1229 1246 1245 2
1169 1230 1231 1248 1247 2
1170 1231 1232 1249 1248 2
1171 1232 1233 1250 1249 2
1172 1233 1234 1251 1250 2
1173 1234 1235 1252 1251 2
1174 1235 1236 1253 1252 2
1175 1236 1237 1254 1253 2
1176 1237 1238 1255 1254 2
1177 1238 1239 1256 1255 2
1178 1239 1240 1257 1256 2
1179 1240 1241 1258 1257 2
1180 1241 1242 1259 1258 2
1181 1242 1243 1260 1259 2
1182 1243 1244 1261 1260 2
1183 1244 1245 1262 1261 2
1184 1245 1246 1263 1262 2
1185 1247 1248 1265 1264 2
1186 1248 1249 1266 1265 2
1187 1249 1250 1267 1266 2
1188 1250 1251 1268 1267 2
1189 1251 1252 1269 1268 2
1190 1252 1253 1270 1269 2
1191 1253 1254 1271 1270 2
1192 1254 1255 1272 1271 2
1193 1255 1256 1273 1272 2
1194 1256 1257 1274 1273 2
1195 1257 1258 1275 1274 2
1196 1258 1259 1276 1275 2
1197 1259 1260 1277 1276 2
1198 1260 1261 1278 1277 2
1199 1261 1262 1279 1278 2
1200 1262 1263 1280 1279 2
1201 1264 1265 1282 1281 2
1202 1265 1266 1283 1282 2
1203 1266 1267 1284 1283 2
1204 1267 1268 1285 1284 2
1205 1268 1269 1286 1285 2
1206 1269 1270 1287 1286 2
1207 1270 1271 1288 1287 2
1208 1271 1272 1289 1288 2
1209 1272 1273 1290 1289 2
1210 1273 1274 1291 1290 2
1211 1274 1275 1292 1291 2
1212 1275 1276 1293 1292 2
1213 1276 1277 1294 1293 2
1214 1277 1278 1295 1294 2
1215 1278 1279 1296 1295 2
1216 1279 1280 1297 1296 2
1217 1281 1282 1299 1298 2
1218 1282 1283 1300 1299 2
1219 1283 1284 1301 1300 2
1220 1284 1285 1302 1301 2
1221 1285 1286 1303 1302 2
1222 1286 1287 1304 1303 2
1223 1287 1288 1305 1304 2
1224 1288 1289 1306 1305 2
1225 1289 1290 1307 1306 2
1226 1290 1291 1308 1307 2
1227 1291 1292 1309 1308 2
1228 1292 1293 1310 1309 2
1229 1293 1294 1311 1310 2
1230 1294 1295 1312 1311 2
1231 1295 1296 1313 1312 2
1232 1296 1297 1314 1313 2
1233 1298 1299 1316 1315 2
1234 1299 1300 1317 1316 2
1235 1300 1301 1318 1317 2
1236 1301 1302 1319 1318 2
1237 1302 1303 1320 1319 2
1238 1303 1304 1321 1320 2
1239 1304 1305 1322 1321 2
1240 1305 1306 1323 1322 2
1241 1306 1307 1324 1323 2
1242 1307 1308 1325 1324 2
1243 1308 1309 1326 1325 2
1244 1309 1310 1327 1326 2
1245 1310 1311 1328 1327 2
1246 1311 1312 1329 1328 2
1247 1312 1313 1330 1329 2
1248 1313 1314 1331 1330 2
1249 1315 1316 1333 1332 2
1250 1316 1317 1334 1333 2
1251 1317 1318 1335 1334 2
1252 1318 1319 1336 1335 2
1253 1319 1320 1337 1336 2
1254 1320 1321 1338 1337 2
1255 1321 1322 1339 1338 2
1256 1322 1323 1340 1339 2
1257 1323 1324 1341 1340 2
1258 1324 1325 1342 1341 2
1259 1325 1326 1343 1342 2
1260 1326 1327 1344 1343 2
1261 1327 1328 1345 1344 2
1262 1328 1329 1346 1345 2
1263 1329 1330 1347 1346 2
1264 1330 1331 1348 1347 2
1265 1332 1333 1350 1349 2
1266 1333 1334 1351 1350 2
1267 1334 1335 1352 1351 2
1268 1335 1336 1353 1352 2
1269 1336 1337 1354 1353 2
1270 1337 1338 1355 1354 2
1271 1338 1339 1356 1355 2
1272 1339 1340 1357 1356 2
1273 1340 1341 1358 1357 2
1274 1341 1342 1359 1358 2
1275 1342 1343 1360 1359 2
1276 1343 1344 1361 1360 2
1277 1344 1345 1362 1361 2
1278 1345 1346 1363 1362 2
1279 1346 1347 1364 1363 2
1280 1347 1348 1365 1364 2
1281 1349 1350 1367 1366 2
1282 1350 1351 1368 1367 2
1283 1351 1352 1369 1368 2
1284 1352 1353 1370 1369 2
1285 1353 1354 1371 1370 2
1286 1354 1355 1372 1371 2
1287 1355 1356 1373 1372 2
1288 1356 1357 1374 1373 2
1289 1357 1358 1375 1374 2
1290 1358 1359 1376 1375 2
1291 1359 1360 1377 1376 2
1292 1360 1361 1378 1377 2
1293 1361 1362 1379 1378 2
1294 1362 1363 1380 1379 2
1295 1363 1364 1381 1380 2
1296 1364 1365 1382 1381 2
1297 1366 1367 1384 1383 2
1298 1367 1368 1385 1384 2
1299 1368 1369 1386 1385 2
1300 1369 1370 1387 1386 2
1301 1370 1371 1388 1387 2
1302 1371 1372 1389 1388 2
1303 1372 1373 1390 1389 2
1304 1373 1374 1391 1390 2
1305 1374 1375 1392 1391 2
1306 1375 1376 1393 1392 2
1307 1376 1377 1394 1393 2
1308 1377 1378 1395 1394 2
1309 1378 1379 1396 1395 2
1310 1379 1380 1397 1396 2
1311 1380 1381 1398 1397 2
1312 1381 1382 1399 1398 2
1313 1383 1384 1401 1400 2
1314 1384 1385 1402 1401 2
1315 1385 1386 1403 1402 2
1316 1386 1387 1404 1403 2
1317 1387 1388 1405 1404 2
1318 1388 1389 1406 1405 2
1319 1389 1390 1407 1406 2
1320 1390 1391 1408 1407 2
1321 1391 1392 1409 1408 2
1322 1392 1393 1410 1409 2
1323 1393 1394 1411 1410 2
1324 1394 1395 1412 1411 2
1325 1395 1396 1413 1412 2
1326 1396 1397 1414 1413 2
1327 1397 1398 1415 1414 2
1328 1398 1399 1416 1415 2
1329 1400 1401 1418 1417 2
1330 1401 1402 1419 1418 2
1331 1402 1403 1420 1419 2
1332 1403 1404 1421 1420 2
1333 1404 1405 1422 1421 2
1334 1405 1406 1423 1422 2
1335 1406 1407 1424 1423 2
1336 1407 1408 1425 1424 2
1337 1408 1409 1426 1425 2
1338 1409 1410 1427 1426 2
1339 1410 1411 1428 1427 2
1340 1411 1412 1429 1428 2
1341 1412 1413 1430 1429 2
1342 1413 1414 1431 1430 2
1343 1414 1415 1432 1431 2
1344 1415 1416 1433 1432 2
1345 1417 1418 1435 1434 2
1346 1418 1419 1436 1435 2
1347 1419 1420 1437 1436 2
1348 1420 1421 1438 1437 2
1349 1421 1422 1439 1438 2
1350 1422 1423 1440 1439 2
1351 1423 1424 1441 1440 2
1352 1424 1425 1442 1441 2
1353 1425 1426 1443 1442 2
1354 1426 1427 1444 1443 2
1355 1427 1428 1445 1444 2
1356 1428 1429 1446 1445 2
1357 1429 1430 1447 1446 2
1358 1430 1431 1448 1447 2
1359 1431 1432 1449 1448 2
1360 1432 1433 1450 1449 2
1361 1434 1435 1452 1451 2
1362 1435 1436 1453 1452 2
1363 1436 1437 1454 1453 2
1364 1437 1438 1455 1454 2
1365 1438 1439 1456 1455 2
1366 1439 1440 1457 1456 2
1367 1440 1441 1458 1457 2
1368 1441 1442 1459 1458 2
1369 1442 1443 1460 1459 2
1370 1443 1444 1461 1460 2
1371 1444 1445 1462 1461 2
1372 1445 1446 1463 1462 2
1373 1446 1447 1464 1463 2
1374 1447 1448 1465 1464 2
1375 1448 1449 1466 1465 2
1376 1449 1450 1467 1466 2
1377 1451 1452 1469 1468 2
1378 1452 1453 1470 1469 2
1379 1453 1454 1471 1470 2
1380 1454 1455 1472 1471 2
1381 1455 1456 1473 1472 2
1382 1456 1457 1474 1473 2
1383 1457 1458 1475 1474 2
1384 1458 1459 1476 1475 2
1385 1459 1460 1477 1476 2
1386 1460 1461 1478 1477 2
1387 1461 1462 1479 1478 2
1388 1462 1463 1480 1479 2
1389 1463 1464 1481 1480 2
1390 1464 1465 1482 1481 2
1391 1465 1466 1483 1482 2
1392 1466 1467 1484 1483 2
1393 1468 1469 1486 1485 2
1394 1469 1470 1487 1486 2
1395 1470 1471 1488 1487 2
1396 1471 1472 1489 1488 2
1397 1472 1473 1490 1489 2
1398 1473 1474 1491 1490 2
1399 1474 1475 1492 1491 2
1400 1475 1476 1493 1492 2
1401 1476 1477 1494 1493 2
1402 1477 1478 1495 1494 2
1403 1478 1479 1496 1495 2
1404 1479 1480 1497 1496 2
1405 1480 1481 1498 1497 2
1406 1481 1482 1499 1498 2
1407 1482 1483 1500 1499 2
1408 1483 1484 1501 1500 2
1409 1485 1486 1503 1502 2
1410 1486 1487 1504 1503 2
1411 1487 1488 1505 1504 2
1412 1488 1489 1506 1505 2
1413 1489 1490 1507 1506 2
1414 1490 1491 1508 1507 2
1415 1491 1492 1509 1508 2
1416 1492 1493 1510 1509 2
1417 1493 1494 1511 1510 2
1418 1494 1495 1512 1511 2
1419 1495 1496 1513 1512 2
1420 1496 1497 1514 1513 2
1421 1497 1498 1515 1514 2
1422 1498 1499 1516 1515 2
1423 1499 1500 1517 1516 2
1424 1500 1501 1518 1517 2
1425 1502 1503 1520 1519 2
1426 1503 1504 1521 1520 2
1427 1504 1505 1522 1521 2
1428 1505 1506 1523 1522 2
1429 1506 1507 1524 1523 2
1430 1507 1508 1525 1524 2
1431 1508 1509 1526 1525 2
1432 1509 1510 1527 1526 2
1433 1510 1511 1528 1527 2
1434 1511 1512 1529 1528 2
1435 1512 1513 1530 1529 2
1436 1513 1514 1531 1530 2
1437 1514 1515 1532 1531 2
1438 1515 1516 1533 1532 2
1439 1516 1517 1534 1533 2
1440 1517 1518 1535 1534 2
1441 1519 1520 1537 1536 2
1442 1520 1521 1538 1537 2
1443 1521 1522 1539 1538 2
1444 1522 1523 1540 1539 2
1445 1523 1524 1541 1540 2
1446 1524 1525 1542 1541 2
1447 1525 1526 1543 1542 2
1448 1526 1527 1544 1543 2
1449 1527 1528 1545 1544 2
1450 1528 1529 1546 1545 2
1451 1529 1530 1547 1546 2
1452 1530 1531 1548 1547 2
1453 1531 1532 1549 1548 2
1454 1532 1533 1550 1549 2
1455 1533 1534 1551 1550 2
1456 1534 1535 1552 1551 2
1457 1536 1537 1554 1553 2
1458 1537 1538 1555 1554 2
1459 1538 1539 1556 1555 2
1460 1539 1540 1557 1556 2
1461 1540 1541 1558 1557 2
1462 1541 1542 1559 1558 2
1463 1542 1543 1560 1559 2
1464 1543 1544 1561 1560 2
1465 1544 1545 1562 1561 2
1466 1545 1546 1563 1562 2
1467 1546 1547 1564 1563 2
1468 1547 1548 1565 1564 2
1469 1548 1549 1566 1565 2
1470 1549 1550 1567 1566 2
1471 1550 1551 1568 1567 2
1472 1551 1552 1569 1568 2
1473 1553 1554 1571 1570 2
1474 1554 1555 1572 1571 2
1475 1555 1556 1573 1572 2
1476 1556 1557 1574 1573 2
1477 1557 1558 1575 1574 2
1478 1558 1559 1576 1575 2
1479 1559 1560 1577 1576 2
1480 1560 1561 1578 1577 2
1481 1561 1562 1579 1578 2
1482 1562 1563 1580 1579 2
1483 1563 1564 1581 1580 2
1484 1564 1565 1582 1581 2
1485 1565 1566 1583 1582 2
1486 1566 1567 1584 1583 2
1487 1567 1568 1585 1584 2
1488 1568 1569 1586 1585 2
1489 1570 1571 1588 1587 2
1490 1571 1572 1589 1588 2
1491 1572 1573 1590 1589 2
1492 1573 1574 1591 1590 2
1493 1574 1575 1592 1591 2
1494 1575 1576 1593 1592 2
1495 1576 1577 1594 1593 2
1496 1577 1578 1595 1594 2
1497 1578 1579 1596 1595 2
1498 1579 1580 1597 1596 2
1499 1580 1581 1598 1597 2
1500 1581 1582 1599 1598 2
1501 1582 1583 1600 1599 2
1502 1583 1584 1601 1600 2
1503 1584 1585 1602 1601 2
1504 1585 1586 1603 1602 2
1505 1587 1588 1605 1604 2
1506 1588 1589 1606 1605 2
1507 1589 1590 1607 1606 2
1508 1590 1591 1608 1607 2
1509 1591 1592 1609 1608 2
1510 1592 1593 1610 1609 2
1511 1593 1594 1611 1610 2
1512 1594 1595 1612 1611 2
1513 1595 1596 1613 1612 2
1514 1596 1597 1614 1613 2
1515 1597 1598 1615 1614 2
1516 1598 1599 1616 1615 2
1517 1599 1600 1617 1616 2
1518 1600 1601 1618 1617 2
1519 1601 1602 1619 1618 2
1520 1602 1603 1620 1619 2
1521 1604 1605 1622 1621 2
1522 1605 1606 1623 1622 2
1523 1606 1607 1624 1623 2
1524 1607 1608 1625 1624 2
1525 1608 1609 1626 1625 2
1526 1609 1610 1627 1626 2
1527 1610 1611 1628 1627 2
1528 1611 1612 1629 1628 2
1529 1612 1613 1630 1629 2
1530 1613 1614 1631 1630 2
1531 1614 1615 1632 1631 2
1532 1615 1616 1633 1632 2
1533 1616 1617 1634 1633 2
1534 1617 1618 1635 1634 2
1535 1618 1619 1636 1635 2
1536 1619 1620 1637 1636 2
1537 1621 1622 1639 1638 2
1538 1622 1623 1640 1639 2
1539 1623 1624 1641 1640 2
1540 1624 1625 1642 1641 2
1541 1625 1626 1643 1642 2
1542 1626 1627 1644 1643 2
1543 1627 1628 1645 1644 2
1544 1628 1629 1646 1645 2
1545 1629 1630 1647 1646 2
1546 1630 1631 1648 1647 2
1547 1631 1632 1649 1648 2
1548 1632 1633 1650 1649 2
1549 1633 1634 1651 1650 2
1550 1634 1635 1652 1651 2
1551 1635 1636 1653 1652 2
1552 1636 1637 1654 1653 2
1553 1638 1639 1656 1655 2
1554 1639 1640 1657 1656 2
1555 1640 1641 1658 1657 2
1556 1641 1642 1659 1658 2
1557 1642 1643 1660 1659 2
1558 1643 1644 1661 1660 2
1559 1644 1645 1662 1661 2
1560 1645 1646 1663 1662 2
1561 1646 1647 1664 1663 2
1562 1647 1648 1665 1664 2
1563 1648 1649 1666 1665 2
1564 1649 1650 1667 1666 2
1565 1650 1651 1668 1667 2
1566 1651 1652 1669 1668 2
1567 1652 1653 1670 1669 2
1568 1653 1654 1671 1670 2
1569 1655 1656 1673 1672 2
1570 1656 1657 1674 1673 2
1571 1657 1658 1675 1674 2
1572 1658 1659 1676 1675 2
1573 1659 1660 1677 1676 2
1574 1660 1661 1678 1677 2
1575 1661 1662 1679 1678 2
1576 1662 1663 1680 1679 2
1577 1663 1664 1681 1680 2
1578 1664 1665 1682 1681 2
1579 1665 1666 1683 1682 2
1580 1666 1667 1684 1683 2
1581 1667 1668 1685 1684 2
1582 1668 1669 1686 1685 2
1583 1669 1670 1687 1686 2
1584 1670 1671 1688 1687 2
1585 1672 1673 1690 1689 2
1586 1673 1674 1691 1690 2
1587 1674 1675 1692 1691 2
1588 1675 1676 1693 1692 2
1589 1676 1677 1694 1693 2
1590 1677 1678 1695 1694 2
1591 1678 1679 1696 1695 2
1592 1679 1680 1697 1696 2
1593 1680 1681 1698 1697 2
1594 1681 1682 1699 1698 2
1595 1682 1683 1700 1699 2
1596 1683 1684 1701 1700 2
1597 1684 1685 1702 1701 2
1598 1685 1686 1703 1702 2
1599 1686 1687 1704 1703 2
1600 1687 1688 1705 1704 2
1601 985 986 1707 1706 3
1602 986 987 1708 1707 3
1603 987 988 1709 1708 3
1604 988 989 1710 1709 3
1605 989 990 1711 1710 3
1606 990 991 1712 1711 3
1607 991 992 1713 1712 3
1608 992 993 1714 1713 3
1609 993 994 1715 1714 3
1610 994 995 1716 1715 3
1611 995 996 1717 1716 3
1612 996 997 1026 1717 3
1613 1706 1707 1719 1718 3
1614 1707 1708 1720 1719 3
1615 1708 1709 1721 1720 3
1616 1709 1710 1722 1721 3
1617 1710 1711 1723 1722 3
1618 1711 1712 1724 1723 3
1619 1712 1713 1725 1724 3
1620 1713 1714 1726 1725 3
1621 1714 1715 1727 1726 3
1622 1715 1716 1728 1727 3
1623 1716 1717 1729 1728 3
1624 1717 1026 1043 1729 3
1625 1718 1719 1731 1730 3
1626 1719 1720 1732 1731 3
1627 1720 1721 1733 1732 3
1628 1721 1722 1734 1733 3
1629 1722 1723 1735 1734 3
1630 1723 1724 1736 1735 3
1631 1724 1725 1737 1736 3
1632 1725 1726 1738 1737 3
1633 1726 1727 1739 1738 3
1634 1727 1728 1740 1739 3
1635 1728 1729 1741 1740 3
1636 1729 1043 1060 1741 3
1637 1730 1731 1743 1742 3
1638 1731 1732 1744 1743 3
1639 1732 1733 1745 1744 3
1640 1733 1734 1746 1745 3
1641 1734 1735 1747 1746 3
1642 1735 1736 1748 1747 3
1643 1736 1737 1749 1748 3
1644 1737 1738 1750 1749 3
1645 1738 1739 1751 1750 3
1646 1739 1740 1752 1751 3
1647 1740 1741 1753 1752 3
1648 1741 1060 1077 1753 3
1649 1742 1743 1755 1754 3
1650 1743 1744 1756 1755 3
1651 1744 1745 1757 1756 3
1652 1745 1746 1758 1757 3
1653 1746 1747 1759 1758 3
1654 1747 1748 1760 1759 3
1655 1748 1749 1761 1760 3
1656 1749 1750 1762 1761 3
1657 1750 1751 1763 1762 3
1658 1751 1752 1764 1763 3
1659 1752 1753 1765 1764 3
1660 1753 1077 1094 1765 3
1661 1754 1755 1767 1766 3
1662 1755 1756 1768 1767 3
1663 1756 1757 1769 1768 3
1664 1757 1758 1770 1769 3
1665 1758 1759 1771 1770 3
1666 1759 1760 1772 1771 3
1667 1760 1761 1773 1772 3
1668 1761 1762 1774 1773 3
1669 1762 1763 1775 1774 3
1670 1763 1764 1776 1775 3
1671 1764 1765 1777 1776 3
1672 1765 1094 1111 1777 3
1673 1766 1767 1779 1778 3
1674 1767 1768 1780 1779 3
1675 1768 1769 1781 1780 3
1676 1769 1770 1782 1781 3
1677 1770 1771 1783 1782 3
1678 1771 1772 1784 1783 3
1679 1772 1773 1785 1784 3
1680 1773 1774 1786 1785 3
1681 1774 1775 1787 1786 3
1682 1775 1776 1788 1787 3
1683 1776 1777 1789 1788 3
1684 1777 1111 1128 1789 3
1685 1778 1779 1791 1790 3
1686 1779 1780 1792 1791 3
1687 1780 1781 1793 1792 3
1688 1781 1782 1794 1793 3
1689 1782 1783 1795 1794 3
1690 1783 1784 1796 1795 3
1691 1784 1785 1797 1796 3
1692 1785 1786 1798 1797 3
1693 1786 1787 1799 1798 3
1694 1787 1788 1800 1799 3
1695 1788 1789 1801 1800 3
1696 1789 1128 1145 1801 3
1697 1790 1791 1803 1802 3
1698 1791 1792 1804 1803 3
1699 1792 1793 1805 1804 3
1700 1793 1794 1806 1805 3
1701 1794 1795 1807 1806 3
1702 1795 1796 1808 1807 3
1703 1796 1797 1809 1808 3
1704 1797 1798 1810 1809 3
1705 1798 1799 1811 1810 3
1706 1799 1800 1812 1811 3
1707 1800 1801 1813 1812 3
1708 1801 1145 1162 1813 3
1709 1802 1803 1815 1814 3
1710 1803 1804 1816 1815 3
1711 1804 1805 1817 1816 3
1712 1805 1806 1818 1817 3
1713 1806 1807 1819 1818 3
1714 1807 1808 1820 1819 3
1715 1808 1809 1821 1820 3
1716 1809 1810 1822 1821 3
1717 1810 1811 1823 1822 3
1718 1811 1812 1824 1823 3
1719 1812 1813 1825 1824 3
1720 1813 1162 1179 1825 3
1721 1814 1815 1827 1826 3
1722 1815 1816 1828 1827 3
1723 1816 1817 1829 1828 3
1724 1817 1818 1830 1829 3
1725 1818 1819 1831 1830 3
1726 1819 1820 1832 1831 3
1727 1820 1821 1833 1832 3
1728 1821 1822 1834 1833 3
1729 1822 1823 1835 1834 3
1730 1823 1824 1836 1835 3
1731 1824 1825 1837 1836 3
1732 1825 1179 1196 1837 3
1733 1826 1827 1839 1838 3
1734 1827 1828 1840 1839 3
1735 1828 1829 1841 1840 3
1736 1829 1830 1842 1841 3
1737 1830 1831 1843 1842 3
1738 1831 1832 1844 1843 3
1739 1832 1833 1845 1844 3
1740 1833 1834 1846 1845 3
1741 1834 1835 1847 1846 3
1742 1835 1836 1848 1847 3
1743 1836 1837 1849 1848 3
1744 1837 1196 1213 1849 3
1745 1838 1839 1851 1850 3
1746 1839 1840 1852 1851 3
1747 1840 1841 1853 1852 3
1748 1841 1842 1854 1853 3
1749 1842 1843 1855 1854 3
1750 1843 1844 1856 1855 3
1751 1844 1845 1857 1856 3
1752 1845 1846 1858 1857 3
1753 1846 1847 1859 1858 3
1754 1847 1848 1860 1859 3
1755 1848 1849 1861 1860 3
1756 1849 1213 1230 1861 3
1757 1850 1851 1863 1862 3
1758 1851 1852 1864 1863 3
1759 1852 1853 1865 1864 3
1760 1853 1854 1866 1865 3
1761 1854 1855 1867 1866 3
1762 1855 1856 1868 1867 3
1763 1856 1857 1869 1868 3
1764 1857 1858 1870 1869 3
1765 1858 1859 1871 1870 3
1766 1859 1860 1872 1871 3
1767 1860 1861 1873 1872 3
1768 1861 1230 1247 1873 3
1769 1862 1863 1875 1874 3
1770 1863 1864 1876 1875 3
1771 1864 1865 1877 1876 3
1772 1865 1866 1878 1877 3
1773 1866 1867 1879 1878 3
1774 1867 1868 1880 1879 3
1775 1868 1869 1881 1880 3
1776 1869 1870 1882 1881 3
1777 1870 1871 1883 1882 3
1778 1871 1872 1884 1883 3
1779 1872 1873 1885 1884 3
1780 1873 1247 1264 1885 3
1781 1874 1875 1887 1886 3
1782 1875 1876 1888 1887 3
1783 1876 1877 1889 1888 3
1784 1877 1878 1890 1889 3
1785 1878 1879 1891 1890 3
1786 1879 1880 1892 1891 3
1787 1880 1881 1893 1892 3
1788 1881 1882 1894 1893 3
1789 1882 1883 1895 1894 3
1790 1883 1884 1896 1895 3
1791 1884 1885 1897 1896 3
1792 1885 1264 1281 1897 3
1793 1886 1887 1899 1898 3
1794 1887 1888 1900 1899 3
1795 1888 1889 1901 1900 3
1796 1889 1890 1902 1901 3
1797 1890 1891 1903 1902 3
1798 1891 1892 1904 1903 3
1799 1892 1893 1905 1904 3
1800 1893 1894 1906 1905 3
1801 1894 1895 1907 1906 3
1802 1895 1896 1908 1907 3
1803 1896 1897 1909 1908 3
1804 1897 1281 1298 1909 3
1805 1898 1899 1911 1910 3
1806 1899 1900 1912 1911 3
1807 1900 1901 1913 1912 3
1808 1901 1902 1914 1913 3
1809 1902 1903 1915 1914 3
1810 1903 1904 1916 1915 3
1811 1904 1905 1917 1916 3
1812 1905 1906 1918 1917 3
1813 1906 1907 1919 1918 3
1814 1907 1908 1920 1919 3
1815 1908 1909 1921 1920 3
1816 1909 1298 1315 1921 3
1817 1910 1911 1923 1922 3
1818 1911 1912 1924 1923 3
1819 1912 1913 1925 1924 3
1820 1913 1914 1926 1925 3
1821 1914 1915 1927 1926 3
1822 1915 1916 1928 1927 3
1823 1916 1917 1929 1928 3
1824 1917 1918 1930 1929 3
1825 1918 1919 1931 1930 3
1826 1919 1920 1932 1931 3
1827 1920 1921 1933 1932 3
1828 1921 1315 1332 1933 3
1829 1922 1923 1935 1934 3
1830 1923 1924 1936 1935 3
1831 1924 1925 1937 1936 3
1832 1925 1926 1938 1937 3
1833 1926 1927 1939 1938 3
1834 1927 1928 1940 1939 3
1835 1928 1929 1941 1940 3
1836 1929 1930 1942 1941 3
1837 1930 1931 1943 1942 3
1838 1931 1932 1944 1943 3
1839 1932 1933 1945 1944 3
1840 1933 1332 1349 1945 3
1841 1934 1935 1947 1946 3
1842 1935 1936 1948 1947 3
1843 1936 1937 1949 1948 3
1844 1937 1938 1950 1949 3
1845 1938 1939 1951 1950 3
1846 1939 1940 1952 1951 3
1847 1940 1941 1953 1952 3
1848 1941 1942 1954 1953 3
1849 1942 1943 1955 1954 3
1850 1943 1944 1956 1955 3
1851 1944 1945 1957 1956 3
1852 1945 1349 1366 1957 3
1853 1946 1947 1959 1958 3
1854 1947 1948 1960 1959 3
1855 1948 1949 1961 1960 3
1856 1949 1950 1962 1961 3
1857 1950 1951 1963 1962 3
1858 1951 1952 1964 1963 3
1859 1952 1953 1965 1964 3
1860 1953 1954 1966 1965 3
1861 1954 1955 1967 1966 3
1862 1955 1956 1968 1967 3
1863 1956 1957 1969 1968 3
1864 1957 1366 1383 1969 3
1865 1958 1959 1971 1970 3
1866 1959 1960 1972 1971 3
1867 1960 1961 1973 1972 3
1868 1961 1962 1974 1973 3
1869 1962 1963 1975 1974 3
1870 1963 1964 1976 1975 3
1871 1964 1965 1977 1976 3
1872 1965 1966 1978 1977 3
1873 1966 1967 1979 1978 3
1874 1967 1968 1980 1979 3
1875 1968 1969 1981 1980 3
1876 1969 1383 1400 1981 3
1877 1970 1971 1983 1982 3
1878 1971 1972 1984 1983 3
1879 1972 1973 1985 1984 3
1880 1973 1974 1986 1985 3
1881 1974 1975 1987 1986 3
1882 1975 1976 1988 1987 3
1883 1976 1977 1989 1988 3
1884 1977 1978 1990 1989 3
1885 1978 1979 1991 1990 3
1886 1979 1980 1992 1991 3
1887 1980 1981 1993 1992 3
1888 1981 1400 1417 1993 3
1889 1982 1983 1995 1994 3
1890 1983 1984 1996 1995 3
1891 1984 1985 1997 1996 3
1892 1985 1986 1998 1997 3
1893 1986 1987 1999 1998 3
1894 1987 1988 2000 1999 3
1895 1988 1989 2001 2000 3
1896 1989 1990 2002 2001 3
1897 1990 1991 2003 2002 3
1898 1991 1992 2004 2003 3
1899 1992 1993 2005 2004 3
1900 1993 1417 1434 2005 3
1901 1994 1995 2007 2006 3
1902 1995 1996 2008 2007 3
1903 1996 1997 2009 2008 3
1904 1997 1998 2010 2009 3
1905 1998 1999 2011 2010 3
1906 1999 2000 2012 2011 3
1907 2000 2001 2013 2012 3
1908 2001 2002 2014 2013 3
1909 2002 2003 2015 2014 3
1910 2003 2004 2016 2015 3
1911 2004 2005 2017 2016 3
1912 2005 1434 1451 2017 3
1913 2006 2007 2019 2018 3
1914 2007 2008 2020 2019 3
1915 2008 2009 2021 2020 3
1916 2009 2010 2022 2021 3
1917 2010 2011 2023 2022 3
1918 2011 2012 2024 2023 3
1919 2012 2013 2025 2024 3
1920 2013 2014 2026 2025 3
1921 2014 2015 2027 2026 3
1922 2015 2016 2028 2027 3
1923 2016 2017 2029 2028 3
1924 2017 1451 1468 2029 3
1925 2018 2019 2031 2030 3
1926 2019 2020 2032 2031 3
1927 2020 2021 2033 2032 3
1928 2021 2022 2034 2033 3
1929 2022 2023 2035 2034 3
1930 2023 2024 2036 2035 3
1931 2024 2025 2037 2036 3
1932 2025 2026 2038 2037 3
1933 2026 2027 2039 2038 3
1934 2027 2028 2040 2039 3
1935 2028 2029 2041 2040 3
1936 2029 1468 1485 2041 3
1937 2030 2031 2043 2042 3
1938 2031 2032 2044 2043 3
1939 2032 2033 2045 2044 3
1940 2033 2034 2046 2045 3
1941 2034 2035 2047 2046 3
1942 2035 2036 2048 2047 3
1943 2036 2037 2049 2048 3
1944 2037 2038 2050 2049 3
1945 2038 2039 2051 2050 3
1946 2039 2040 2052 2051 3
1947 2040 2041 2053 2052 3
1948 2041 1485 1502 2053 3
1949 2042 2043 2055 2054 3
1950 2043 2044 2056 2055 3
1951 2044 2045 2057 2056 3
1952 2045 2046 2058 2057 3
1953 2046 2047 2059 2058 3
1954 2047 2048 2060 2059 3
1955 2048 2049 2061 2060 3
1956 2049 2050 2062 2061 3
1957 2050 2051 2063 2062 3
1958 2051 2052 2064 2063 3
1959 2052 2053 2065 2064 3
1960 2053 1502 1519 2065 3
1961 2054 2055 2067 2066 3
1962 2055 2056 2068 2067 3
1963 2056 2057 2069 2068 3
1964 2057 2058 2070 2069 3
1965 2058 2059 2071 2070 3
1966 2059 2060 2072 2071 3
1967 2060 2061 2073 2072 3
1968 2061 2062 2074 2073 3
1969 2062 2063 2075 2074 3
1970 2063 2064 2076 2075 3
1971 2064 2065 2077 2076 3
1972 2065 1519 1536 2077 3
1973 2066 2067 2079 2078 3
1974 2067 2068 2080 2079 3
1975 2068 2069 2081 2080 3
1976 2069 2070 2082 2081 3
1977 2070 2071 2083 2082 3
1978 2071 2072 2084 2083 3
1979 2072 2073 2085 2084 3
1980 2073 2074 2086 2085 3
1981 2074 2075 2087 2086 3
1982 2075 2076 2088 2087 3
1983 2076 2077 2089 2088 3
1984 2077 1536 1553 2089 3
1985 2078 2079 2091 2090 3
1986 2079 2080 2092 2091 3
1987 2080 2081 2093 2092 3
1988 2081 2082 2094 2093 3
1989 2082 2083 2095 2094 3
1990 2083 2084 2096 2095 3
1991 2084 2085 2097 2096 3
1992 2085 2086 2098 2097 3
1993 2086 2087 2099 2098 3
1994 2087 2088 2100 2099 3
1995 2088 2089 2101 2100 3
1996 2089 1553 1570 2101 3
1997 2090 2091 2103 2102 3
1998 2091 2092 2104 2103 3
1999 2092 2093 2105 2104 3
2000 2093 2094 2106 2105 3
2001 2094 2095 2107 2106 3
2002 2095 2096 2108 2107 3
2003 2096 2097 2109 2108 3
2004 2097 2098 2110 2109 3
2005 2098 2099 2111 2110 3
2006 2099 2100 2112 2111 3
2007 2100 2101 2113 2112 3
2008 2101 1570 1587 2113 3
2009 2102 2103 2115 2114 3
2010 2103 2104 2116 2115 3
2011 2104 2105 2117 2116 3
2012 2105 2106 2118 2117 3
2013 2106 2107 2119 2118 3
2014 2107 2108 2120 2119 3
2015 2108 2109 2121 2120 3
2016 2109 2110 2122 2121 3
2017 2110 2111 2123 2122 3
2018 2111 2112 2124 2123 3
2019 2112 2113 2125 2124 3
2020 2113 1587 1604 2125 3
2021 2114 2115 2127 2126 3
2022 2115 2116 2128 2127 3
2023 2116 2117 2129 2128 3
2024 2117 2118 2130 2129 3
2025 2118 2119 2131 2130 3
2026 2119 2120 2132 2131 3
2027 2120 2121 2133 2132 3
2028 2121 2122 2134 2133 3
2029 2122 2123 2135 2134 3
2030 2123 2124 2136 2135 3
2031 2124 2125 2137 2136 3
2032 2125 1604 1621 2137 3
2033 2126 2127 2139 2138 3
2034 2127 2128 2140 2139 3
2035 2128 2129 2141 2140 3
2036 2129 2130 2142 2141 3
2037 2130 2131 2143 2142 3
2038 2131 2132 2144 2143 3
2039 2132 2133 2145 2144 3
2040 2133 2134 2146 2145 3
2041 2134 2135 2147 2146 3
2042 2135 2136 2148 2147 3
2043 2136 2137 2149 2148 3
2044 2137 1621 1638 2149 3
2045 2138 2139 2151 2150 3
2046 2139 2140 2152 2151 3
2047 2140 2141 2153 2152 3
2048 2141 2142 2154 2153 3
2049 2142 2143 2155 2154 3
2050 2143 2144 2156 2155 3
2051 2144 2145 2157 2156 3
2052 2145 2146 2158 2157 3
2053 2146 2147 2159 2158 3
2054 2147 2148 2160 2159 3
2055 2148 2149 2161 2160 3
2056 2149 1638 1655 2161 3
2057 2150 2151 2163 2162 3
2058 2151 2152 2164 2163 3
2059 2152 2153 2165 2164 3
2060 2153 2154 2166 2165 3
2061 2154 2155 2167 2166 3
2062 2155 2156 2168 2167 3
2063 2156 2157 2169 2168 3
2064 2157 2158 2170 2169 3
2065 2158 2159 2171 2170 3
2066 2159 2160 2172 2171 3
2067 2160 2161 2173 2172 3
2068 2161 1655 1672 2173 3
2069 2162 2163 2175 2174 3
2070 2163 2164 2176 2175 3
2071 2164 2165 2177 2176 3
2072 2165 2166 2178 2177 3
2073 2166 2167 2179 2178 3
2074 2167 2168 2180 2179 3
2075 2168 2169 2181 2180 3
2076 2169 2170 2182 2181 3
2077 2170 2171 2183 2182 3
2078 2171 2172 2184 2183 3
2079 2172 2173 2185 2184 3
2080 2173 1672 1689 2185 3
