MESH "sections" dimension 3 ElemType Quadrilateral Nnode 4
Coordinates
 1 0.05 0.05 0.0
 2 0.05 0.0 0.0
 3 0.05 0.0 0.05
 4 0.05 0.05 0.05
 5 0.05 0.0 0.1
 6 0.05 0.05 0.1
 7 0.05 0.1 0.0
 8 0.05 0.1 0.05
 9 0.05 0.1 0.1
 10 0.05 0.15000001 0.0
 11 0.05 0.15000001 0.05
 12 0.05 0.15000001 0.1
 13 0.05 0.2 0.0
 14 0.05 0.2 0.05
 15 0.05 0.2 0.1
 16 0.1 0.05 0.0
 17 0.1 0.0 0.0
 18 0.1 0.0 0.05
 19 0.1 0.05 0.05
 20 0.1 0.0 0.1
 21 0.1 0.05 0.1
 22 0.1 0.1 0.0
 23 0.1 0.1 0.05
 24 0.1 0.1 0.1
 25 0.1 0.15000001 0.0
 26 0.1 0.15000001 0.05
 27 0.1 0.15000001 0.1
 28 0.1 0.2 0.0
 29 0.1 0.2 0.05
 30 0.1 0.2 0.1
 31 0.15000001 0.05 0.0
 32 0.15000001 0.0 0.0
 33 0.15000001 0.0 0.05
 34 0.15000001 0.05 0.05
 35 0.15000001 0.0 0.1
 36 0.15000001 0.05 0.1
 37 0.15000001 0.1 0.0
 38 0.15000001 0.1 0.05
 39 0.15000001 0.1 0.1
 40 0.15000001 0.15000001 0.0
 41 0.15000001 0.15000001 0.05
 42 0.15000001 0.15000001 0.1
 43 0.15000001 0.2 0.0
 44 0.15000001 0.2 0.05
 45 0.15000001 0.2 0.1
 46 0.2 0.05 0.0
 47 0.2 0.0 0.0
 48 0.2 0.0 0.05
 49 0.2 0.05 0.05
 50 0.2 0.0 0.1
 51 0.2 0.05 0.1
 52 0.2 0.1 0.0
 53 0.2 0.1 0.05
 54 0.2 0.1 0.1
 55 0.2 0.15000001 0.0
 56 0.2 0.15000001 0.05
 57 0.2 0.15000001 0.1
 58 0.2 0.2 0.0
 59 0.2 0.2 0.05
 60 0.2 0.2 0.1
 61 0.25 0.05 0.0
 62 0.25 0.0 0.0
 63 0.25 0.0 0.05
 64 0.25 0.05 0.05
 65 0.25 0.0 0.1
 66 0.25 0.05 0.1
 67 0.25 0.1 0.0
 68 0.25 0.1 0.05
 69 0.25 0.1 0.1
 70 0.25 0.15000001 0.0
 71 0.25 0.15000001 0.05
 72 0.25 0.15000001 0.1
 73 0.25 0.2 0.0
 74 0.25 0.2 0.05
 75 0.25 0.2 0.1
 76 0.30000001 0.05 0.0
 77 0.30000001 0.0 0.0
 78 0.30000001 0.0 0.05
 79 0.30000001 0.05 0.05
 80 0.30000001 0.0 0.1
 81 0.30000001 0.05 0.1
 82 0.30000001 0.1 0.0
 83 0.30000001 0.1 0.05
 84 0.30000001 0.1 0.1
 85 0.30000001 0.15000001 0.0
 86 0.30000001 0.15000001 0.05
 87 0.30000001 0.15000001 0.1
 88 0.30000001 0.2 0.0
 89 0.30000001 0.2 0.05
 90 0.30000001 0.2 0.1
 91 0.34999999 0.05 0.0
 92 0.34999999 0.0 0.0
 93 0.34999999 0.0 0.05
 94 0.34999999 0.05 0.05
 95 0.34999999 0.0 0.1
 96 0.34999999 0.05 0.1
 97 0.34999999 0.1 0.0
 98 0.34999999 0.1 0.05
 99 0.34999999 0.1 0.1
 100 0.34999999 0.15000001 0.0
 101 0.34999999 0.15000001 0.05
 102 0.34999999 0.15000001 0.1
 103 0.34999999 0.2 0.0
 104 0.34999999 0.2 0.05
 105 0.34999999 0.2 0.1
 106 0.40000001 0.05 0.0
 107 0.40000001 0.0 0.0
 108 0.40000001 0.0 0.05
 109 0.40000001 0.05 0.05
 110 0.40000001 0.0 0.1
 111 0.40000001 0.05 0.1
 112 0.40000001 0.1 0.0
 113 0.40000001 0.1 0.05
 114 0.40000001 0.1 0.1
 115 0.40000001 0.15000001 0.0
 116 0.40000001 0.15000001 0.05
 117 0.40000001 0.15000001 0.1
 118 0.40000001 0.2 0.0
 119 0.40000001 0.2 0.05
 120 0.40000001 0.2 0.1
 121 0.44999999 0.05 0.0
 122 0.44999999 0.0 0.0
 123 0.44999999 0.0 0.05
 124 0.44999999 0.05 0.05
 125 0.44999999 0.0 0.1
 126 0.44999999 0.05 0.1
 127 0.44999999 0.1 0.0
 128 0.44999999 0.1 0.05
 129 0.44999999 0.1 0.1
 130 0.44999999 0.15000001 0.0
 131 0.44999999 0.15000001 0.05
 132 0.44999999 0.15000001 0.1
 133 0.44999999 0.2 0.0
 134 0.44999999 0.2 0.05
 135 0.44999999 0.2 0.1
 136 0.5 0.05 0.0
 137 0.5 0.0 0.0
 138 0.5 0.0 0.05
 139 0.5 0.05 0.05
 140 0.5 0.0 0.1
 141 0.5 0.05 0.1
 142 0.5 0.1 0.0
 143 0.5 0.1 0.05
 144 0.5 0.1 0.1
 145 0.5 0.15000001 0.0
 146 0.5 0.15000001 0.05
 147 0.5 0.15000001 0.1
 148 0.5 0.2 0.0
 149 0.5 0.2 0.05
 150 0.5 0.2 0.1
 151 0.55000001 0.05 0.0
 152 0.55000001 0.0 0.0
 153 0.55000001 0.0 0.05
 154 0.55000001 0.05 0.05
 155 0.55000001 0.0 0.1
 156 0.55000001 0.05 0.1
 157 0.55000001 0.1 0.0
 158 0.55000001 0.1 0.05
 159 0.55000001 0.1 0.1
 160 0.55000001 0.15000001 0.0
 161 0.55000001 0.15000001 0.05
 162 0.55000001 0.15000001 0.1
 163 0.55000001 0.2 0.0
 164 0.55000001 0.2 0.05
 165 0.55000001 0.2 0.1
 166 0.60000002 0.05 0.0
 167 0.60000002 0.0 0.0
 168 0.60000002 0.0 0.05
 169 0.60000002 0.05 0.05
 170 0.60000002 0.0 0.1
 171 0.60000002 0.05 0.1
 172 0.60000002 0.1 0.0
 173 0.60000002 0.1 0.05
 174 0.60000002 0.1 0.1
 175 0.60000002 0.15000001 0.0
 176 0.60000002 0.15000001 0.05
 177 0.60000002 0.15000001 0.1
 178 0.60000002 0.2 0.0
 179 0.60000002 0.2 0.05
 180 0.60000002 0.2 0.1
 181 0.64999998 0.05 0.0
 182 0.64999998 0.0 0.0
 183 0.64999998 0.0 0.05
 184 0.64999998 0.05 0.05
 185 0.64999998 0.0 0.1
 186 0.64999998 0.05 0.1
 187 0.64999998 0.1 0.0
 188 0.64999998 0.1 0.05
 189 0.64999998 0.1 0.1
 190 0.64999998 0.15000001 0.0
 191 0.64999998 0.15000001 0.05
 192 0.64999998 0.15000001 0.1
 193 0.64999998 0.2 0.0
 194 0.64999998 0.2 0.05
 195 0.64999998 0.2 0.1
 196 0.69999999 0.05 0.0
 197 0.69999999 0.0 0.0
 198 0.69999999 0.0 0.05
 199 0.69999999 0.05 0.05
 200 0.69999999 0.0 0.1
 201 0.69999999 0.05 0.1
 202 0.69999999 0.1 0.0
 203 0.69999999 0.1 0.05
 204 0.69999999 0.1 0.1
 205 0.69999999 0.15000001 0.0
 206 0.69999999 0.15000001 0.05
 207 0.69999999 0.15000001 0.1
 208 0.69999999 0.2 0.0
 209 0.69999999 0.2 0.05
 210 0.69999999 0.2 0.1
 211 0.75 0.05 0.0
 212 0.75 0.0 0.0
 213 0.75 0.0 0.05
 214 0.75 0.05 0.05
 215 0.75 0.0 0.1
 216 0.75 0.05 0.1
 217 0.75 0.1 0.0
 218 0.75 0.1 0.05
 219 0.75 0.1 0.1
 220 0.75 0.15000001 0.0
 221 0.75 0.15000001 0.05
 222 0.75 0.15000001 0.1
 223 0.75 0.2 0.0
 224 0.75 0.2 0.05
 225 0.75 0.2 0.1
 226 0.80000001 0.05 0.0
 227 0.80000001 0.0 0.0
 228 0.80000001 0.0 0.05
 229 0.80000001 0.05 0.05
 230 0.80000001 0.0 0.1
 231 0.80000001 0.05 0.1
 232 0.80000001 0.1 0.0
 233 0.80000001 0.1 0.05
 234 0.80000001 0.1 0.1
 235 0.80000001 0.15000001 0.0
 236 0.80000001 0.15000001 0.05
 237 0.80000001 0.15000001 0.1
 238 0.80000001 0.2 0.0
 239 0.80000001 0.2 0.05
 240 0.80000001 0.2 0.1
 241 0.85000002 0.05 0.0
 242 0.85000002 0.0 0.0
 243 0.85000002 0.0 0.05
 244 0.85000002 0.05 0.05
 245 0.85000002 0.0 0.1
 246 0.85000002 0.05 0.1
 247 0.85000002 0.1 0.0
 248 0.85000002 0.1 0.05
 249 0.85000002 0.1 0.1
 250 0.85000002 0.15000001 0.0
 251 0.85000002 0.15000001 0.05
 252 0.85000002 0.15000001 0.1
 253 0.85000002 0.2 0.0
 254 0.85000002 0.2 0.05
 255 0.85000002 0.2 0.1
 256 0.89999998 0.05 0.0
 257 0.89999998 0.0 0.0
 258 0.89999998 0.0 0.05
 259 0.89999998 0.05 0.05
 260 0.89999998 0.0 0.1
 261 0.89999998 0.05 0.1
 262 0.89999998 0.1 0.0
 263 0.89999998 0.1 0.05
 264 0.89999998 0.1 0.1
 265 0.89999998 0.15000001 0.0
 266 0.89999998 0.15000001 0.05
 267 0.89999998 0.15000001 0.1
 268 0.89999998 0.2 0.0
 269 0.89999998 0.2 0.05
 270 0.89999998 0.2 0.1
 271 0.94999999 0.05 0.0
 272 0.94999999 0.0 0.0
 273 0.94999999 0.0 0.05
 274 0.94999999 0.05 0.05
 275 0.94999999 0.0 0.1
 276 0.94999999 0.05 0.1
 277 0.94999999 0.1 0.0
 278 0.94999999 0.1 0.05
 279 0.94999999 0.1 0.1
 280 0.94999999 0.15000001 0.0
 281 0.94999999 0.15000001 0.05
 282 0.94999999 0.15000001 0.1
 283 0.94999999 0.2 0.0
 284 0.94999999 0.2 0.05
 285 0.94999999 0.2 0.1
end coordinates
Elements
 1 1 2 3 4
 2 4 3 5 6
 3 7 1 4 8
 4 8 4 6 9
 5 10 7 8 11
 6 11 8 9 12
 7 13 10 11 14
 8 14 11 12 15
 9 16 17 18 19
 10 19 18 20 21
 11 22 16 19 23
 12 23 19 21 24
 13 25 22 23 26
 14 26 23 24 27
 15 28 25 26 29
 16 29 26 27 30
 17 31 32 33 34
 18 34 33 35 36
 19 37 31 34 38
 20 38 34 36 39
 21 40 37 38 41
 22 41 38 39 42
 23 43 40 41 44
 24 44 41 42 45
 25 46 47 48 49
 26 49 48 50 51
 27 52 46 49 53
 28 53 49 51 54
 29 55 52 53 56
 30 56 53 54 57
 31 58 55 56 59
 32 59 56 57 60
 33 61 62 63 64
 34 64 63 65 66
 35 67 61 64 68
 36 68 64 66 69
 37 70 67 68 71
 38 71 68 69 72
 39 73 70 71 74
 40 74 71 72 75
 41 76 77 78 79
 42 79 78 80 81
 43 82 76 79 83
 44 83 79 81 84
 45 85 82 83 86
 46 86 83 84 87
 47 88 85 86 89
 48 89 86 87 90
 49 91 92 93 94
 50 94 93 95 96
 51 97 91 94 98
 52 98 94 96 99
 53 100 97 98 101
 54 101 98 99 102
 55 103 100 101 104
 56 104 101 102 105
 57 106 107 108 109
 58 109 108 110 111
 59 112 106 109 113
 60 113 109 111 114
 61 115 112 113 116
 62 116 113 114 117
 63 118 115 116 119
 64 119 116 117 120
 65 121 122 123 124
 66 124 123 125 126
 67 127 121 124 128
 68 128 124 126 129
 69 130 127 128 131
 70 131 128 129 132
 71 133 130 131 134
 72 134 131 132 135
 73 136 137 138 139
 74 139 138 140 141
 75 142 136 139 143
 76 143 139 141 144
 77 145 142 143 146
 78 146 143 144 147
 79 148 145 146 149
 80 149 146 147 150
 81 151 152 153 154
 82 154 153 155 156
 83 157 151 154 158
 84 158 154 156 159
 85 160 157 158 161
 86 161 158 159 162
 87 163 160 161 164
 88 164 161 162 165
 89 166 167 168 169
 90 169 168 170 171
 91 172 166 169 173
 92 173 169 171 174
 93 175 172 173 176
 94 176 173 174 177
 95 178 175 176 179
 96 179 176 177 180
 97 181 182 183 184
 98 184 183 185 186
 99 187 181 184 188
 100 188 184 186 189
 101 190 187 188 191
 102 191 188 189 192
 103 193 190 191 194
 104 194 191 192 195
 105 196 197 198 199
 106 199 198 200 201
 107 202 196 199 203
 108 203 199 201 204
 109 205 202 203 206
 110 206 203 204 207
 111 208 205 206 209
 112 209 206 207 210
 113 211 212 213 214
 114 214 213 215 216
 115 217 211 214 218
 116 218 214 216 219
 117 220 217 218 221
 118 221 218 219 222
 119 223 220 221 224
 120 224 221 222 225
 121 226 227 228 229
 122 229 228 230 231
 123 232 226 229 233
 124 233 229 231 234
 125 235 232 233 236
 126 236 233 234 237
 127 238 235 236 239
 128 239 236 237 240
 129 241 242 243 244
 130 244 243 245 246
 131 247 241 244 248
 132 248 244 246 249
 133 250 247 248 251
 134 251 248 249 252
 135 253 250 251 254
 136 254 251 252 255
 137 256 257 258 259
 138 259 258 260 261
 139 262 256 259 263
 140 263 259 261 264
 141 265 262 263 266
 142 266 263 264 267
 143 268 265 266 269
 144 269 266 267 270
 145 271 272 273 274
 146 274 273 275 276
 147 277 271 274 278
 148 278 274 276 279
 149 280 277 278 281
 150 281 278 279 282
 151 283 280 281 284
 152 284 281 282 285
end elements

MESH "axis" dimension 3 ElemType Linear Nnode 2
Coordinates
 286 0.05 0.1 0.05
 287 0.1 0.1 0.05
 288 0.15 0.1 0.05
 289 0.2 0.1 0.05
 290 0.25 0.1 0.05
 291 0.3 0.1 0.05
 292 0.35 0.1 0.05
 293 0.4 0.1 0.05
 294 0.45 0.1 0.05
 295 0.5 0.1 0.05
 296 0.55 0.1 0.05
 297 0.6 0.1 0.05
 298 0.65 0.1 0.05
 299 0.7 0.1 0.05
 300 0.75 0.1 0.05
 301 0.8 0.1 0.05
 302 0.85 0.1 0.05
 303 0.9 0.1 0.05
 304 0.95 0.1 0.05
end coordinates
Elements
 153 286 287
 154 287 288
 155 288 289
 156 289 290
 157 290 291
 158 291 292
 159 292 293
 160 293 294
 161 294 295
 162 295 296
 163 296 297
 164 297 298
 165 298 299
 166 299 300
 167 300 301
 168 301 302
 169 302 303
 170 303 304
end elements
