1 1 2 33 32 1
2 2 3 34 33 1
3 3 4 35 34 1
4 4 5 36 35 1
5 5 6 37 36 1
6 6 7 38 37 1
7 7 8 39 38 1
8 8 9 40 39 1
9 9 10 41 40 1
10 10 11 42 41 1
11 11 12 43 42 1
12 12 13 44 43 1
13 13 14 45 44 1
14 14 15 46 45 1
15 15 16 47 46 1
16 16 17 48 47 1
17 17 18 49 48 1
18 18 19 50 49 1
19 19 20 51 50 1
20 20 21 52 51 1
21 21 22 53 52 1
22 22 23 54 53 1
23 23 24 55 54 1
24 24 25 56 55 1
25 25 26 57 56 1
26 26 27 58 57 1
27 27 28 59 58 1
28 28 29 60 59 1
29 29 30 61 60 1
30 30 31 62 61 1
31 32 33 64 63 1
32 33 34 65 64 1
33 34 35 66 65 1
34 35 36 67 66 1
35 36 37 68 67 1
36 37 38 69 68 1
37 38 39 70 69 1
38 39 40 71 70 1
39 40 41 72 71 1
40 41 42 73 72 1
41 42 43 74 73 1
42 43 44 75 74 1
43 44 45 76 75 1
44 45 46 77 76 1
45 46 47 78 77 1
46 47 48 79 78 1
47 48 49 80 79 1
48 49 50 81 80 1
49 50 51 82 81 1
50 51 52 83 82 1
51 52 53 84 83 1
52 53 54 85 84 1
53 54 55 86 85 1
54 55 56 87 86 1
55 56 57 88 87 1
56 57 58 89 88 1
57 58 59 90 89 1
58 59 60 91 90 1
59 60 61 92 91 1
60 61 62 93 92 1
61 63 64 95 94 1
62 64 65 96 95 1
63 65 66 97 96 1
64 66 67 98 97 1
65 67 68 99 98 1
66 68 69 100 99 1
67 69 70 101 100 1
68 70 71 102 101 1
69 71 72 103 102 1
70 72 73 104 103 1
71 73 74 105 104 1
72 74 75 106 105 1
73 75 76 107 106 1
74 76 77 108 107 1
75 77 78 109 108 1
76 78 79 110 109 1
77 79 80 111 110 1
78 80 81 112 111 1
79 81 82 113 112 1
80 82 83 114 113 1
81 83 84 115 114 1
82 84 85 116 115 1
83 85 86 117 116 1
84 86 87 118 117 1
85 87 88 119 118 1
86 88 89 120 119 1
87 89 90 121 120 1
88 90 91 122 121 1
89 91 92 123 122 1
90 92 93 124 123 1
91 94 95 126 125 1
92 95 96 127 126 1
93 96 97 128 127 1
94 97 98 129 128 1
95 98 99 130 129 1
96 99 100 131 130 1
97 100 101 132 131 1
98 101 102 133 132 1
99 102 103 134 133 1
100 103 104 135 134 1
101 104 105 136 135 1
102 105 106 137 136 1
103 106 107 138 137 1
104 107 108 139 138 1
105 108 109 140 139 1
106 109 110 141 140 1
107 110 111 142 141 1
108 111 112 143 142 1
109 112 113 144 143 1
110 113 114 145 144 1
111 114 115 146 145 1
112 115 116 147 146 1
113 116 117 148 147 1
114 117 118 149 148 1
115 118 119 150 149 1
116 119 120 151 150 1
117 120 121 152 151 1
118 121 122 153 152 1
119 122 123 154 153 1
120 123 124 155 154 1
121 125 126 157 156 1
122 126 127 158 157 1
123 127 128 159 158 1
124 128 129 160 159 1
125 129 130 161 160 1
126 130 131 162 161 1
127 131 132 163 162 1
128 132 133 164 163 1
129 133 134 165 164 1
130 134 135 166 165 1
131 135 136 167 166 1
132 136 137 168 167 1
133 137 138 169 168 1
134 138 139 170 169 1
135 139 140 171 170 1
136 140 141 172 171 1
137 141 142 173 172 1
138 142 143 174 173 1
139 143 144 175 174 1
140 144 145 176 175 1
141 145 146 177 176 1
142 146 147 178 177 1
143 147 148 179 178 1
144 148 149 180 179 1
145 149 150 181 180 1
146 150 151 182 181 1
147 151 152 183 182 1
148 152 153 184 183 1
149 153 154 185 184 1
150 154 155 186 185 1
151 156 157 188 187 1
152 157 158 189 188 1
153 158 159 190 189 1
154 159 160 191 190 1
155 160 161 192 191 1
156 161 162 193 192 1
157 162 163 194 193 1
158 163 164 195 194 1
159 164 165 196 195 1
160 165 166 197 196 1
161 166 167 198 197 1
162 167 168 199 198 1
163 168 169 200 199 1
164 169 170 201 200 1
165 170 171 202 201 1
166 171 172 203 202 1
167 172 173 204 203 1
168 173 174 205 204 1
169 174 175 206 205 1
170 175 176 207 206 1
171 176 177 208 207 1
172 177 178 209 208 1
173 178 179 210 209 1
174 179 180 211 210 1
175 180 181 212 211 1
176 181 182 213 212 1
177 182 183 214 213 1
178 183 184 215 214 1
179 184 185 216 215 1
180 185 186 217 216 1
181 187 188 219 218 1
182 188 189 220 219 1
183 189 190 221 220 1
184 190 191 222 221 1
185 191 192 223 222 1
186 192 193 224 223 1
187 193 194 225 224 1
188 194 195 226 225 1
189 195 196 227 226 1
190 196 197 228 227 1
191 197 198 229 228 1
192 198 199 230 229 1
193 199 200 231 230 1
194 200 201 232 231 1
195 201 202 233 232 1
196 202 203 234 233 1
197 203 204 235 234 1
198 204 205 236 235 1
199 205 206 237 236 1
200 206 207 238 237 1
201 207 208 239 238 1
202 208 209 240 239 1
203 209 210 241 240 1
204 210 211 242 241 1
205 211 212 243 242 1
206 212 213 244 243 1
207 213 214 245 244 1
208 214 215 246 245 1
209 215 216 247 246 1
210 216 217 248 247 1
211 218 219 250 249 1
212 219 220 251 250 1
213 220 221 252 251 1
214 221 222 253 252 1
215 222 223 254 253 1
216 223 224 255 254 1
217 224 225 256 255 1
218 225 226 257 256 1
219 226 227 258 257 1
220 227 228 259 258 1
221 228 229 260 259 1
222 229 230 261 260 1
223 230 231 262 261 1
224 231 232 263 262 1
225 232 233 264 263 1
226 233 234 265 264 1
227 234 235 266 265 1
228 235 236 267 266 1
229 236 237 268 267 1
230 237 238 269 268 1
231 238 239 270 269 1
232 239 240 271 270 1
233 240 241 272 271 1
234 241 242 273 272 1
235 242 243 274 273 1
236 243 244 275 274 1
237 244 245 276 275 1
238 245 246 277 276 1
239 246 247 278 277 1
240 247 248 279 278 1
241 249 250 281 280 1
242 250 251 282 281 1
243 251 252 283 282 1
244 252 253 284 283 1
245 253 254 285 284 1
246 254 255 286 285 1
247 255 256 287 286 1
248 256 257 288 287 1
249 257 258 289 288 1
250 258 259 290 289 1
251 259 260 291 290 1
252 260 261 292 291 1
253 261 262 293 292 1
254 262 263 294 293 1
255 263 264 295 294 1
256 264 265 296 295 1
257 265 266 297 296 1
258 266 267 298 297 1
259 267 268 299 298 1
260 268 269 300 299 1
261 269 270 301 300 1
262 270 271 302 301 1
263 271 272 303 302 1
264 272 273 304 303 1
265 273 274 305 304 1
266 274 275 306 305 1
267 275 276 307 306 1
268 276 277 308 307 1
269 277 278 309 308 1
270 278 279 310 309 1
271 280 281 312 311 1
272 281 282 313 312 1
273 282 283 314 313 1
274 283 284 315 314 1
275 284 285 316 315 1
276 285 286 317 316 1
277 286 287 318 317 1
278 287 288 319 318 1
279 288 289 320 319 1
280 289 290 321 320 1
281 290 291 322 321 1
282 291 292 323 322 1
283 292 293 324 323 1
284 293 294 325 324 1
285 294 295 326 325 1
286 295 296 327 326 1
287 296 297 328 327 1
288 297 298 329 328 1
289 298 299 330 329 1
290 299 300 331 330 1
291 300 301 332 331 1
292 301 302 333 332 1
293 302 303 334 333 1
294 303 304 335 334 1
295 304 305 336 335 1
296 305 306 337 336 1
297 306 307 338 337 1
298 307 308 339 338 1
299 308 309 340 339 1
300 309 310 341 340 1
301 311 312 343 342 1
302 312 313 344 343 1
303 313 314 345 344 1
304 314 315 346 345 1
305 315 316 347 346 1
306 316 317 348 347 1
307 317 318 349 348 1
308 318 319 350 349 1
309 319 320 351 350 1
310 320 321 352 351 1
311 321 322 353 352 1
312 322 323 354 353 1
313 323 324 355 354 1
314 324 325 356 355 1
315 325 326 357 356 1
316 326 327 358 357 1
317 327 328 359 358 1
318 328 329 360 359 1
319 329 330 361 360 1
320 330 331 362 361 1
321 331 332 363 362 1
322 332 333 364 363 1
323 333 334 365 364 1
324 334 335 366 365 1
325 335 336 367 366 1
326 336 337 368 367 1
327 337 338 369 368 1
328 338 339 370 369 1
329 339 340 371 370 1
330 340 341 372 371 1
331 342 343 374 373 1
332 343 344 375 374 1
333 344 345 376 375 1
334 345 346 377 376 1
335 346 347 378 377 1
336 347 348 379 378 1
337 348 349 380 379 1
338 349 350 381 380 1
339 350 351 382 381 1
340 351 352 383 382 1
341 352 353 384 383 1
342 353 354 385 384 1
343 354 355 386 385 1
344 355 356 387 386 1
345 356 357 388 387 1
346 357 358 389 388 1
347 358 359 390 389 1
348 359 360 391 390 1
349 360 361 392 391 1
350 361 362 393 392 1
351 362 363 394 393 1
352 363 364 395 394 1
353 364 365 396 395 1
354 365 366 397 396 1
355 366 367 398 397 1
356 367 368 399 398 1
357 368 369 400 399 1
358 369 370 401 400 1
359 370 371 402 401 1
360 371 372 403 402 1
361 373 374 405 404 1
362 374 375 406 405 1
363 375 376 407 406 1
364 376 377 408 407 1
365 377 378 409 408 1
366 378 379 410 409 1
367 379 380 411 410 1
368 380 381 412 411 1
369 381 382 413 412 1
370 382 383 414 413 1
371 383 384 415 414 1
372 384 385 416 415 1
373 385 386 417 416 1
374 386 387 418 417 1
375 387 388 419 418 1
376 388 389 420 419 1
377 389 390 421 420 1
378 390 391 422 421 1
379 391 392 423 422 1
380 392 393 424 423 1
381 393 394 425 424 1
382 394 395 426 425 1
383 395 396 427 426 1
384 396 397 428 427 1
385 397 398 429 428 1
386 398 399 430 429 1
387 399 400 431 430 1
388 400 401 432 431 1
389 401 402 433 432 1
390 402 403 434 433 1
391 404 405 436 435 1
392 405 406 437 436 1
393 406 407 438 437 1
394 407 408 439 438 1
395 408 409 440 439 1
396 409 410 441 440 1
397 410 411 442 441 1
398 411 412 443 442 1
399 412 413 444 443 1
400 413 414 445 444 1
401 414 415 446 445 1
402 415 416 447 446 1
403 416 417 448 447 1
404 417 418 449 448 1
405 418 419 450 449 1
406 419 420 451 450 1
407 420 421 452 451 1
408 421 422 453 452 1
409 422 423 454 453 1
410 423 424 455 454 1
411 424 425 456 455 1
412 425 426 457 456 1
413 426 427 458 457 1
414 427 428 459 458 1
415 428 429 460 459 1
416 429 430 461 460 1
417 430 431 462 461 1
418 431 432 463 462 1
419 432 433 464 463 1
420 433 434 465 464 1
421 435 436 467 466 1
422 436 437 468 467 1
423 437 438 469 468 1
424 438 439 470 469 1
425 439 440 471 470 1
426 440 441 472 471 1
427 441 442 473 472 1
428 442 443 474 473 1
429 443 444 475 474 1
430 444 445 476 475 1
431 445 446 477 476 1
432 446 447 478 477 1
433 447 448 479 478 1
434 448 449 480 479 1
435 449 450 481 480 1
436 450 451 482 481 1
437 451 452 483 482 1
438 452 453 484 483 1
439 453 454 485 484 1
440 454 455 486 485 1
441 455 456 487 486 1
442 456 457 488 487 1
443 457 458 489 488 1
444 458 459 490 489 1
445 459 460 491 490 1
446 460 461 492 491 1
447 461 462 493 492 1
448 462 463 494 493 1
449 463 464 495 494 1
450 464 465 496 495 1
451 466 467 498 497 1
452 467 468 499 498 1
453 468 469 500 499 1
454 469 470 501 500 1
455 470 471 502 501 1
456 471 472 503 502 1
457 472 473 504 503 1
458 473 474 505 504 1
459 474 475 506 505 1
460 475 476 507 506 1
461 476 477 508 507 1
462 477 478 509 508 1
463 478 479 510 509 1
464 479 480 511 510 1
465 480 481 512 511 1
466 481 482 513 512 1
467 482 483 514 513 1
468 483 484 515 514 1
469 484 485 516 515 1
470 485 486 517 516 1
471 486 487 518 517 1
472 487 488 519 518 1
473 488 489 520 519 1
474 489 490 521 520 1
475 490 491 522 521 1
476 491 492 523 522 1
477 492 493 524 523 1
478 493 494 525 524 1
479 494 495 526 525 1
480 495 496 527 526 1
481 497 498 529 528 1
482 498 499 530 529 1
483 499 500 531 530 1
484 500 501 532 531 1
485 501 502 533 532 1
486 502 503 534 533 1
487 503 504 535 534 1
488 504 505 536 535 1
489 505 506 537 536 1
490 506 507 538 537 1
491 507 508 539 538 1
492 508 509 540 539 1
493 509 510 541 540 1
494 510 511 542 541 1
495 511 512 543 542 1
496 512 513 544 543 1
497 513 514 545 544 1
498 514 515 546 545 1
499 515 516 547 546 1
500 516 517 548 547 1
501 517 518 549 548 1
502 518 519 550 549 1
503 519 520 551 550 1
504 520 521 552 551 1
505 521 522 553 552 1
506 522 523 554 553 1
507 523 524 555 554 1
508 524 525 556 555 1
509 525 526 557 556 1
510 526 527 558 557 1
511 528 529 560 559 1
512 529 530 561 560 1
513 530 531 562 561 1
514 531 532 563 562 1
515 532 533 564 563 1
516 533 534 565 564 1
517 534 535 566 565 1
518 535 536 567 566 1
519 536 537 568 567 1
520 537 538 569 568 1
521 538 539 570 569 1
522 539 540 571 570 1
523 540 541 572 571 1
524 541 542 573 572 1
525 542 543 574 573 1
526 543 544 575 574 1
527 544 545 576 575 1
528 545 546 577 576 1
529 546 547 578 577 1
530 547 548 579 578 1
531 548 549 580 579 1
532 549 550 581 580 1
533 550 551 582 581 1
534 551 552 583 582 1
535 552 553 584 583 1
536 553 554 585 584 1
537 554 555 586 585 1
538 555 556 587 586 1
539 556 557 588 587 1
540 557 558 589 588 1
541 559 560 591 590 1
542 560 561 592 591 1
543 561 562 593 592 1
544 562 563 594 593 1
545 563 564 595 594 1
546 564 565 596 595 1
547 565 566 597 596 1
548 566 567 598 597 1
549 567 568 599 598 1
550 568 569 600 599 1
551 569 570 601 600 1
552 570 571 602 601 1
553 571 572 603 602 1
554 572 573 604 603 1
555 573 574 605 604 1
556 574 575 606 605 1
557 575 576 607 606 1
558 576 577 608 607 1
559 577 578 609 608 1
560 578 579 610 609 1
561 579 580 611 610 1
562 580 581 612 611 1
563 581 582 613 612 1
564 582 583 614 613 1
565 583 584 615 614 1
566 584 585 616 615 1
567 585 586 617 616 1
568 586 587 618 617 1
569 587 588 619 618 1
570 588 589 620 619 1
571 590 591 622 621 1
572 591 592 623 622 1
573 592 593 624 623 1
574 593 594 625 624 1
575 594 595 626 625 1
576 595 596 627 626 1
577 596 597 628 627 1
578 597 598 629 628 1
579 598 599 630 629 1
580 599 600 631 630 1
581 600 601 632 631 1
582 601 602 633 632 1
583 602 603 634 633 1
584 603 604 635 634 1
585 604 605 636 635 1
586 605 606 637 636 1
587 606 607 638 637 1
588 607 608 639 638 1
589 608 609 640 639 1
590 609 610 641 640 1
591 610 611 642 641 1
592 611 612 643 642 1
593 612 613 644 643 1
594 613 614 645 644 1
595 614 615 646 645 1
596 615 616 647 646 1
597 616 617 648 647 1
598 617 618 649 648 1
599 618 619 650 649 1
600 619 620 651 650 1
601 631 632 653 652 2
602 632 633 654 653 2
603 633 634 655 654 2
604 634 635 656 655 2
605 635 636 657 656 2
606 636 637 658 657 2
607 637 638 659 658 2
608 638 639 660 659 2
609 639 640 661 660 2
610 640 641 662 661 2
611 652 653 664 663 2
612 653 654 665 664 2
613 654 655 666 665 2
614 655 656 667 666 2
615 656 657 668 667 2
616 657 658 669 668 2
617 658 659 670 669 2
618 659 660 671 670 2
619 660 661 672 671 2
620 661 662 673 672 2
621 663 664 675 674 2
622 664 665 676 675 2
623 665 666 677 676 2
624 666 667 678 677 2
625 667 668 679 678 2
626 668 669 680 679 2
627 669 670 681 680 2
628 670 671 682 681 2
629 671 672 683 682 2
630 672 673 684 683 2
631 674 675 686 685 2
632 675 676 687 686 2
633 676 677 688 687 2
634 677 678 689 688 2
635 678 679 690 689 2
636 679 680 691 690 2
637 680 681 692 691 2
638 681 682 693 692 2
639 682 683 694 693 2
640 683 684 695 694 2
641 685 686 697 696 2
642 686 687 698 697 2
643 687 688 699 698 2
644 688 689 700 699 2
645 689 690 701 700 2
646 690 691 702 701 2
647 691 692 703 702 2
648 692 693 704 703 2
649 693 694 705 704 2
650 694 695 706 705 2
651 696 697 708 707 2
652 697 698 709 708 2
653 698 699 710 709 2
654 699 700 711 710 2
655 700 701 712 711 2
656 701 702 713 712 2
657 702 703 714 713 2
658 703 704 715 714 2
659 704 705 716 715 2
660 705 706 717 716 2
661 707 708 719 718 2
662 708 709 720 719 2
663 709 710 721 720 2
664 710 711 722 721 2
665 711 712 723 722 2
666 712 713 724 723 2
667 713 714 725 724 2
668 714 715 726 725 2
669 715 716 727 726 2
670 716 717 728 727 2
671 718 719 730 729 2
672 719 720 731 730 2
673 720 721 732 731 2
674 721 722 733 732 2
675 722 723 734 733 2
676 723 724 735 734 2
677 724 725 736 735 2
678 725 726 737 736 2
679 726 727 738 737 2
680 727 728 739 738 2
681 729 730 741 740 2
682 730 731 742 741 2
683 731 732 743 742 2
684 732 733 744 743 2
685 733 734 745 744 2
686 734 735 746 745 2
687 735 736 747 746 2
688 736 737 748 747 2
689 737 738 749 748 2
690 738 739 750 749 2
691 740 741 752 751 2
692 741 742 753 752 2
693 742 743 754 753 2
694 743 744 755 754 2
695 744 745 756 755 2
696 745 746 757 756 2
697 746 747 758 757 2
698 747 748 759 758 2
699 748 749 760 759 2
700 749 750 761 760 2
701 751 752 763 762 2
702 752 753 764 763 2
703 753 754 765 764 2
704 754 755 766 765 2
705 755 756 767 766 2
706 756 757 768 767 2
707 757 758 769 768 2
708 758 759 770 769 2
709 759 760 771 770 2
710 760 761 772 771 2
711 762 763 774 773 2
712 763 764 775 774 2
713 764 765 776 775 2
714 765 766 777 776 2
715 766 767 778 777 2
716 767 768 779 778 2
717 768 769 780 779 2
718 769 770 781 780 2
719 770 771 782 781 2
720 771 772 783 782 2
721 773 774 785 784 2
722 774 775 786 785 2
723 775 776 787 786 2
724 776 777 788 787 2
725 777 778 789 788 2
726 778 779 790 789 2
727 779 780 791 790 2
728 780 781 792 791 2
729 781 782 793 792 2
730 782 783 794 793 2
731 784 785 796 795 2
732 785 786 797 796 2
733 786 787 798 797 2
734 787 788 799 798 2
735 788 789 800 799 2
736 789 790 801 800 2
737 790 791 802 801 2
738 791 792 803 802 2
739 792 793 804 803 2
740 793 794 805 804 2
741 795 796 807 806 2
742 796 797 808 807 2
743 797 798 809 808 2
744 798 799 810 809 2
745 799 800 811 810 2
746 800 801 812 811 2
747 801 802 813 812 2
748 802 803 814 813 2
749 803 804 815 814 2
750 804 805 816 815 2
751 806 807 818 817 2
752 807 808 819 818 2
753 808 809 820 819 2
754 809 810 821 820 2
755 810 811 822 821 2
756 811 812 823 822 2
757 812 813 824 823 2
758 813 814 825 824 2
759 814 815 826 825 2
760 815 816 827 826 2
761 621 622 829 828 3
762 622 623 830 829 3
763 623 624 831 830 3
764 624 625 832 831 3
765 625 626 833 832 3
766 626 627 834 833 3
767 627 628 835 834 3
768 628 629 836 835 3
769 629 630 837 836 3
770 630 631 652 837 3
771 828 829 839 838 3
772 829 830 840 839 3
773 830 831 841 840 3
774 831 832 842 841 3
775 832 833 843 842 3
776 833 834 844 843 3
777 834 835 845 844 3
778 835 836 846 845 3
779 836 837 847 846 3
780 837 652 663 847 3
781 838 839 849 848 3
782 839 840 850 849 3
783 840 841 851 850 3
784 841 842 852 851 3
785 842 843 853 852 3
786 843 844 854 853 3
787 844 845 855 854 3
788 845 846 856 855 3
789 846 847 857 856 3
790 847 663 674 857 3
791 848 849 859 858 3
792 849 850 860 859 3
793 850 851 861 860 3
794 851 852 862 861 3
795 852 853 863 862 3
796 853 854 864 863 3
797 854 855 865 864 3
798 855 856 866 865 3
799 856 857 867 866 3
800 857 674 685 867 3
801 858 859 869 868 3
802 859 860 870 869 3
803 860 861 871 870 3
804 861 862 872 871 3
805 862 863 873 872 3
806 863 864 874 873 3
807 864 865 875 874 3
808 865 866 876 875 3
809 866 867 877 876 3
810 867 685 696 877 3
811 868 869 879 878 3
812 869 870 880 879 3
813 870 871 881 880 3
814 871 872 882 881 3
815 872 873 883 882 3
816 873 874 884 883 3
817 874 875 885 884 3
818 875 876 886 885 3
819 876 877 887 886 3
820 877 696 707 887 3
821 878 879 889 888 3
822 879 880 890 889 3
823 880 881 891 890 3
824 881 882 892 891 3
825 882 883 893 892 3
826 883 884 894 893 3
827 884 885 895 894 3
828 885 886 896 895 3
829 886 887 897 896 3
830 887 707 718 897 3
831 888 889 899 898 3
832 889 890 900 899 3
833 890 891 901 900 3
834 891 892 902 901 3
835 892 893 903 902 3
836 893 894 904 903 3
837 894 895 905 904 3
838 895 896 906 905 3
839 896 897 907 906 3
840 897 718 729 907 3
841 898 899 909 908 3
842 899 900 910 909 3
843 900 901 911 910 3
844 901 902 912 911 3
845 902 903 913 912 3
846 903 904 914 913 3
847 904 905 915 914 3
848 905 906 916 915 3
849 906 907 917 916 3
850 907 729 740 917 3
851 908 909 919 918 3
852 909 910 920 919 3
853 910 911 921 920 3
854 911 912 922 921 3
855 912 913 923 922 3
856 913 914 924 923 3
857 914 915 925 924 3
858 915 916 926 925 3
859 916 917 927 926 3
860 917 740 751 927 3
861 918 919 929 928 3
862 919 920 930 929 3
863 920 921 931 930 3
864 921 922 932 931 3
865 922 923 933 932 3
866 923 924 934 933 3
867 924 925 935 934 3
868 925 926 936 935 3
869 926 927 937 936 3
870 927 751 762 937 3
871 928 929 939 938 3
872 929 930 940 939 3
873 930 931 941 940 3
874 931 932 942 941 3
875 932 933 943 942 3
876 933 934 944 943 3
877 934 935 945 944 3
878 935 936 946 945 3
879 936 937 947 946 3
880 937 762 773 947 3
881 938 939 949 948 3
882 939 940 950 949 3
883 940 941 951 950 3
884 941 942 952 951 3
885 942 943 953 952 3
886 943 944 954 953 3
887 944 945 955 954 3
888 945 946 956 955 3
889 946 947 957 956 3
890 947 773 784 957 3
891 948 949 959 958 3
892 949 950 960 959 3
893 950 951 961 960 3
894 951 952 962 961 3
895 952 953 963 962 3
896 953 954 964 963 3
897 954 955 965 964 3
898 955 956 966 965 3
899 956 957 967 966 3
900 957 784 795 967 3
901 958 959 969 968 3
902 959 960 970 969 3
903 960 961 971 970 3
904 961 962 972 971 3
905 962 963 973 972 3
906 963 964 974 973 3
907 964 965 975 974 3
908 965 966 976 975 3
909 966 967 977 976 3
910 967 795 806 977 3
