         1         2         3        27        26         1
         2         3         4        28        27         1
         3         4         5        29        28         1
         4         5         6        30        29         1
         5         6         7        31        30         1
         6         8         9        33        32         1
         7         9        10        34        33         1
         8        10        11        35        34         1
         9        11        12        36        35         1
        10        12        13        37        36         1
        11        14        15        39        38         1
        12        15        16        40        39         1
        13        16        17        41        40         1
        14        17        18        42        41         1
        15        18        19        43        42         1
        16        20        21        45        44         1
        17        21        22        46        45         1
        18        22        23        47        46         1
        19        23        24        48        47         1
        20        24         1        25        48         1
        21        26        27        51        50         1
        22        27        28        52        51         1
        23        28        29        53        52         1
        24        29        30        54        53         1
        25        30        31        55        54         1
        26        32        33        57        56         1
        27        33        34        58        57         1
        28        34        35        59        58         1
        29        35        36        60        59         1
        30        36        37        61        60         1
        31        38        39        63        62         1
        32        39        40        64        63         1
        33        40        41        65        64         1
        34        41        42        66        65         1
        35        42        43        67        66         1
        36        44        45        69        68         1
        37        45        46        70        69         1
        38        46        47        71        70         1
        39        47        48        72        71         1
        40        48        25        49        72         1
        41        50        51        75        74         1
        42        51        52        76        75         1
        43        52        53        77        76         1
        44        53        54        78        77         1
        45        54        55        79        78         1
        46        56        57        81        80         1
        47        57        58        82        81         1
        48        58        59        83        82         1
        49        59        60        84        83         1
        50        60        61        85        84         1
        51        62        63        87        86         1
        52        63        64        88        87         1
        53        64        65        89        88         1
        54        65        66        90        89         1
        55        66        67        91        90         1
        56        68        69        93        92         1
        57        69        70        94        93         1
        58        70        71        95        94         1
        59        71        72        96        95         1
        60        72        49        73        96         1
        61        74        75        99        98         1
        62        75        76       100        99         1
        63        76        77       101       100         1
        64        77        78       102       101         1
        65        78        79       103       102         1
        66        80        81       105       104         1
        67        81        82       106       105         1
        68        82        83       107       106         1
        69        83        84       108       107         1
        70        84        85       109       108         1
        71        86        87       111       110         1
        72        87        88       112       111         1
        73        88        89       113       112         1
        74        89        90       114       113         1
        75        90        91       115       114         1
        76        92        93       117       116         1
        77        93        94       118       117         1
        78        94        95       119       118         1
        79        95        96       120       119         1
        80        96        73        97       120         1
        81       169       170       190       189         2
        82       170       171       191       190         2
        83       171       172       192       191         2
        84       172       173       193       192         2
        85       173       174       194       193         2
        86       174       175       195       194         2
        87       175       176       196       195         2
        88       176       177       197       196         2
        89       177       178       198       197         2
        90       178       179       199       198         2
        91       179       180       200       199         2
        92       180       181       201       200         2
        93       181       182       202       201         2
        94       182       183       203       202         2
        95       183       184       204       203         2
        96       184       185       205       204         2
        97       185       186       206       205         2
        98       186       187       207       206         2
        99       187       188       208       207         2
       100       188       169       189       208         2
       101       189       190       210       209         2
       102       190       191       211       210         2
       103       191       192       212       211         2
       104       192       193       213       212         2
       105       193       194       214       213         2
       106       194       195       215       214         2
       107       195       196       216       215         2
       108       196       197       217       216         2
       109       197       198       218       217         2
       110       198       199       219       218         2
       111       199       200       220       219         2
       112       200       201       221       220         2
       113       201       202       222       221         2
       114       202       203       223       222         2
       115       203       204       224       223         2
       116       204       205       225       224         2
       117       205       206       226       225         2
       118       206       207       227       226         2
       119       207       208       228       227         2
       120       208       189       209       228         2
       121       209       210       230       229         2
       122       210       211       231       230         2
       123       211       212       232       231         2
       124       212       213       233       232         2
       125       213       214       234       233         2
       126       214       215       235       234         2
       127       215       216       236       235         2
       128       216       217       237       236         2
       129       217       218       238       237         2
       130       218       219       239       238         2
       131       219       220       240       239         2
       132       220       221       241       240         2
       133       221       222       242       241         2
       134       222       223       243       242         2
       135       223       224       244       243         2
       136       224       225       245       244         2
       137       225       226       246       245         2
       138       226       227       247       246         2
       139       227       228       248       247         2
       140       228       209       229       248         2
       141       229       230       250       249         2
       142       230       231       251       250         2
       143       231       232       252       251         2
       144       232       233       253       252         2
       145       233       234       254       253         2
       146       234       235       255       254         2
       147       235       236       256       255         2
       148       236       237       257       256         2
       149       237       238       258       257         2
       150       238       239       259       258         2
       151       239       240       260       259         2
       152       240       241       261       260         2
       153       241       242       262       261         2
       154       242       243       263       262         2
       155       243       244       264       263         2
       156       244       245       265       264         2
       157       245       246       266       265         2
       158       246       247       267       266         2
       159       247       248       268       267         2
       160       248       229       249       268         2
       161        98        99       170       169         3
       162        99       100       171       170         3
       163       100       101       172       171         3
       164       101       102       173       172         3
       165       102       103       174       173         3
       166       104       105       175       174         3
       167       105       106       176       175         3
       168       106       107       177       176         3
       169       107       108       178       177         3
       170       108       109       179       178         3
       171       110       111       180       179         3
       172       111       112       181       180         3
       173       112       113       182       181         3
       174       113       114       183       182         3
       175       114       115       184       183         3
       176       116       117       185       184         3
       177       117       118       186       185         3
       178       118       119       187       186         3
       179       119       120       188       187         3
       180       120        97       169       188         3
       181         2        26        25         1         4
       182        26        50        49        25         4
       183        50        74        73        49         4
       184        74        98        97        73         4
       185         8        32        31         7         4
       186        32        56        55        31         4
       187        56        80        79        55         4
       188        80       104       103        79         4
       189        14        38        37        13         4
       190        38        62        61        37         4
       191        62        86        85        61         4
       192        86       110       109        85         4
       193        20        44        43        19         4
       194        44        68        67        43         4
       195        68        92        91        67         4
       196        92       116       115        91         4
       197       121       122         5
       198       122       123         5
       199       123       124         5
       200       124       125         5
       201       125       126         5
       202       126       127         5
       203       127       128         5
       204       128       129         5
       205       129       130         5
       206       130       131         5
       207       131       132         5
       208       132       133         5
       209       133       134         5
       210       134       135         5
       211       135       136         5
       212       136       137         5
       213       137       138         5
       214       138       139         5
       215       139       140         5
       216       140       141         5
       217       141       142         5
       218       142       143         5
       219       143       144         5
       220       144       121         5
       221       145       146         5
       222       146       147         5
       223       147       148         5
       224       148       149         5
       225       149       150         5
       226       150       151         5
       227       151       152         5
       228       152       153         5
       229       153       154         5
       230       154       155         5
       231       155       156         5
       232       156       157         5
       233       157       158         5
       234       158       159         5
       235       159       160         5
       236       160       161         5
       237       161       162         5
       238       162       163         5
       239       163       164         5
       240       164       165         5
       241       165       166         5
       242       166       167         5
       243       167       168         5
       244       168       145         5
       245       121        25         6
       246       122        26         6
       247       123        27         6
       248       124        28         6
       249       125        29         6
       250       126        30         6
       251       127        31         6
       252       128        32         6
       253       129        33         6
       254       130        34         6
       255       131        35         6
       256       132        36         6
       257       133        37         6
       258       134        38         6
       259       135        39         6
       260       136        40         6
       261       137        41         6
       262       138        42         6
       263       139        43         6
       264       140        44         6
       265       141        45         6
       266       142        46         6
       267       143        47         6
       268       144        48         6
       269       145        73         6
       270       146        74         6
       271       147        75         6
       272       148        76         6
       273       149        77         6
       274       150        78         6
       275       151        79         6
       276       152        80         6
       277       153        81         6
       278       154        82         6
       279       155        83         6
       280       156        84         6
       281       157        85         6
       282       158        86         6
       283       159        87         6
       284       160        88         6
       285       161        89         6
       286       162        90         6
       287       163        91         6
       288       164        92         6
       289       165        93         6
       290       166        94         6
       291       167        95         6
       292       168        96         6
