         1         1         5        61        60         1
         2         5         6        62        61         1
         3         6         7        63        62         1
         4         7         8        64        63         1
         5         8         9        65        64         1
         6         9        10        66        65         1
         7        10        11        67        66         1
         8        11        12        68        67         1
         9        12        13        69        68         1
        10        13         2        14        69         1
        11        60        61        70        59         1
        12        61        62        71        70         1
        13        62        63        72        71         1
        14        63        64        73        72         1
        15        64        65        74        73         1
        16        65        66        75        74         1
        17        66        67        76        75         1
        18        67        68        77        76         1
        19        68        69        78        77         1
        20        69        14        15        78         1
        21        59        70        79        58         1
        22        70        71        80        79         1
        23        71        72        81        80         1
        24        72        73        82        81         1
        25        73        74        83        82         1
        26        74        75        84        83         1
        27        75        76        85        84         1
        28        76        77        86        85         1
        29        77        78        87        86         1
        30        78        15        16        87         1
        31        58        79        88        57         1
        32        79        80        89        88         1
        33        80        81        90        89         1
        34        81        82        91        90         1
        35        82        83        92        91         1
        36        83        84        93        92         1
        37        84        85        94        93         1
        38        85        86        95        94         1
        39        86        87        96        95         1
        40        87        16        17        96         1
        41        57        88        97        56         1
        42        88        89        98        97         1
        43        89        90        99        98         1
        44        90        91       100        99         1
        45        91        92       101       100         1
        46        92        93       102       101         1
        47        93        94       103       102         1
        48        94        95       104       103         1
        49        95        96       105       104         1
        50        96        17        18       105         1
        51        56        97       106        55         1
        52        97        98       107       106         1
        53        98        99       108       107         1
        54        99       100       109       108         1
        55       100       101       110       109         1
        56       101       102       111       110         1
        57       102       103       112       111         1
        58       103       104       113       112         1
        59       104       105       114       113         1
        60       105        18        19       114         1
        61        55       106       115        54         1
        62       106       107       116       115         1
        63       107       108       117       116         1
        64       108       109       118       117         1
        65       109       110       119       118         1
        66       110       111       120       119         1
        67       111       112       121       120         1
        68       112       113       122       121         1
        69       113       114       123       122         1
        70       114        19        20       123         1
        71        54       115       124        53         1
        72       115       116       125       124         1
        73       116       117       126       125         1
        74       117       118       127       126         1
        75       118       119       128       127         1
        76       119       120       129       128         1
        77       120       121       130       129         1
        78       121       122       131       130         1
        79       122       123       132       131         1
        80       123        20        21       132         1
        81        53       124       133        52         1
        82       124       125       134       133         1
        83       125       126       135       134         1
        84       126       127       136       135         1
        85       127       128       137       136         1
        86       128       129       138       137         1
        87       129       130       139       138         1
        88       130       131       140       139         1
        89       131       132       141       140         1
        90       132        21        22       141         1
        91        52       133       142        51         1
        92       133       134       143       142         1
        93       134       135       144       143         1
        94       135       136       145       144         1
        95       136       137       146       145         1
        96       137       138       147       146         1
        97       138       139       148       147         1
        98       139       140       149       148         1
        99       140       141       150       149         1
       100       141        22        23       150         1
       101        51       142       151        50         1
       102       142       143       152       151         1
       103       143       144       153       152         1
       104       144       145       154       153         1
       105       145       146       155       154         1
       106       146       147       156       155         1
       107       147       148       157       156         1
       108       148       149       158       157         1
       109       149       150       159       158         1
       110       150        23        24       159         1
       111        50       151       160        49         1
       112       151       152       161       160         1
       113       152       153       162       161         1
       114       153       154       163       162         1
       115       154       155       164       163         1
       116       155       156       165       164         1
       117       156       157       166       165         1
       118       157       158       167       166         1
       119       158       159       168       167         1
       120       159        24        25       168         1
       121        49       160       169        48         1
       122       160       161       170       169         1
       123       161       162       171       170         1
       124       162       163       172       171         1
       125       163       164       173       172         1
       126       164       165       174       173         1
       127       165       166       175       174         1
       128       166       167       176       175         1
       129       167       168       177       176         1
       130       168        25        26       177         1
       131        48       169       178        47         1
       132       169       170       179       178         1
       133       170       171       180       179         1
       134       171       172       181       180         1
       135       172       173       182       181         1
       136       173       174       183       182         1
       137       174       175       184       183         1
       138       175       176       185       184         1
       139       176       177       186       185         1
       140       177        26        27       186         1
       141        47       178       187        46         1
       142       178       179       188       187         1
       143       179       180       189       188         1
       144       180       181       190       189         1
       145       181       182       191       190         1
       146       182       183       192       191         1
       147       183       184       193       192         1
       148       184       185       194       193         1
       149       185       186       195       194         1
       150       186        27        28       195         1
       151        46       187       196        45         1
       152       187       188       197       196         1
       153       188       189       198       197         1
       154       189       190       199       198         1
       155       190       191       200       199         1
       156       191       192       201       200         1
       157       192       193       202       201         1
       158       193       194       203       202         1
       159       194       195       204       203         1
       160       195        28        29       204         1
       161        45       196       205        44         1
       162       196       197       206       205         1
       163       197       198       207       206         1
       164       198       199       208       207         1
       165       199       200       209       208         1
       166       200       201       210       209         1
       167       201       202       211       210         1
       168       202       203       212       211         1
       169       203       204       213       212         1
       170       204        29        30       213         1
       171        44       205       214        43         1
       172       205       206       215       214         1
       173       206       207       216       215         1
       174       207       208       217       216         1
       175       208       209       218       217         1
       176       209       210       219       218         1
       177       210       211       220       219         1
       178       211       212       221       220         1
       179       212       213       222       221         1
       180       213        30        31       222         1
       181        43       214       223        42         1
       182       214       215       224       223         1
       183       215       216       225       224         1
       184       216       217       226       225         1
       185       217       218       227       226         1
       186       218       219       228       227         1
       187       219       220       229       228         1
       188       220       221       230       229         1
       189       221       222       231       230         1
       190       222        31        32       231         1
       191        42       223        41         4         1
       192       223       224        40        41         1
       193       224       225        39        40         1
       194       225       226        38        39         1
       195       226       227        37        38         1
       196       227       228        36        37         1
       197       228       229        35        36         1
       198       229       230        34        35         1
       199       230       231        33        34         1
       200       231        32         3        33         1
