         1        97       121       361       124         1
         2       121        95       122       361         1
         3       124       361       123       120         1
         4       361       122       118       123         1
         5        95       125       362       122         1
         6       125        94       126       362         1
         7       122       362       127       118         1
         8       362       126       116       127         1
         9        94       128       363       126         1
        10       128        92       129       363         1
        11       126       363       130       116         1
        12       363       129       115       130         1
        13        92       131       364       129         1
        14       131        90       132       364         1
        15       129       364       133       115         1
        16       364       132       112       133         1
        17        90       134       365       132         1
        18       134        80       135       365         1
        19       132       365       136       112         1
        20       365       135       110       136         1
        21       120       137       366       124         1
        22       137       119       138       366         1
        23       124       366       139        97         1
        24       366       138        96       139         1
        25       119       140       367       138         1
        26       140       117       141       367         1
        27       138       367       142        96         1
        28       367       141        93       142         1
        29       117       143       368       141         1
        30       143       114       144       368         1
        31       141       368       145        93         1
        32       368       144        91       145         1
        33       114       146       369       144         1
        34       146       113       147       369         1
        35       144       369       148        91         1
        36       369       147        89       148         1
        37       113       149       370       147         1
        38       149       111       150       370         1
        39       147       370       151        89         1
        40       370       150        81       151         1
        41        56       152       371       155         1
        42       152        60       153       371         1
        43       155       371       154       100         1
        44       371       153       102       154         1
        45        60       156       372       153         1
        46       156        65       157       372         1
        47       153       372       158       102         1
        48       372       157       104       158         1
        49        65       159       373       157         1
        50       159        69       160       373         1
        51       157       373       161       104         1
        52       373       160       107       161         1
        53        69       162       374       160         1
        54       162        76       163       374         1
        55       160       374       164       107         1
        56       374       163       109       164         1
        57        76       165       375       163         1
        58       165        81       150       375         1
        59       163       375       166       109         1
        60       375       150       111       166         1
        61       100       167       376       155         1
        62       167        98       168       376         1
        63       155       376       169        56         1
        64       376       168        53       169         1
        65        98       170       377       168         1
        66       170        72       171       377         1
        67       168       377       172        53         1
        68       377       171        45       172         1
        69        72       173       378       171         1
        70       173        51       174       378         1
        71       171       378       175        45         1
        72       378       174        41       175         1
        73        51       176       379       174         1
        74       176        31       177       379         1
        75       174       379       178        41         1
        76       379       177        37       178         1
        77        31       179       380       177         1
        78       179        10       180       380         1
        79       177       380       181        37         1
        80       380       180        33       181         1
        81        12       182       381       185         1
        82       182        13       183       381         1
        83       185       381       184         1         1
        84       381       183         2       184         1
        85        13       186       382       183         1
        86       186        15       187       382         1
        87       183       382       188         2         1
        88       382       187         5       188         1
        89        15       189       383       187         1
        90       189        18       190       383         1
        91       187       383       191         5         1
        92       383       190         7       191         1
        93        18       192       384       190         1
        94       192        25       193       384         1
        95       190       384       194         7         1
        96       384       193         8       194         1
        97        25       195       385       193         1
        98       195        33       180       385         1
        99       193       385       196         8         1
       100       385       180        10       196         1
       101         1       197       386       185         1
       102       197         3       198       386         1
       103       185       386       199        12         1
       104       386       198        14       199         1
       105         3       200       387       198         1
       106       200         4       201       387         1
       107       198       387       202        14         1
       108       387       201        16       202         1
       109         4       203       388       201         1
       110       203         6       204       388         1
       111       201       388       205        16         1
       112       388       204        17       205         1
       113         6       206       389       204         1
       114       206         9       207       389         1
       115       204       389       208        17         1
       116       389       207        24       208         1
       117         9       209       390       207         1
       118       209        11       210       390         1
       119       207       390       211        24         1
       120       390       210        32       211         1
       121        57       212       391       215         1
       122       212        52       213       391         1
       123       215       391       214       101         1
       124       391       213        99       214         1
       125        52       216       392       213         1
       126       216        44       217       392         1
       127       213       392       218        99         1
       128       392       217        73       218         1
       129        44       219       393       217         1
       130       219        40       220       393         1
       131       217       393       221        73         1
       132       393       220        50       221         1
       133        40       222       394       220         1
       134       222        36       223       394         1
       135       220       394       224        50         1
       136       394       223        30       224         1
       137        36       225       395       223         1
       138       225        32       210       395         1
       139       223       395       226        30         1
       140       395       210        11       226         1
       141       101       227       396       215         1
       142       227       103       228       396         1
       143       215       396       229        57         1
       144       396       228        61       229         1
       145       103       230       397       228         1
       146       230       105       231       397         1
       147       228       397       232        61         1
       148       397       231        64       232         1
       149       105       233       398       231         1
       150       233       106       234       398         1
       151       231       398       235        64         1
       152       398       234        68       235         1
       153       106       236       399       234         1
       154       236       108       237       399         1
       155       234       399       238        68         1
       156       399       237        77       238         1
       157       108       239       400       237         1
       158       239       110       135       400         1
       159       237       400       240        77         1
       160       400       135        80       240         1
       161       612       241       401       675         2
       162       241       242       402       401         2
       163       242        38       243       402         2
       164       675       401       245       610         2
       165       401       402       244       245         2
       166       402       243        34       244         2
       167       614       246       403       674         2
       168       246       247       404       403         2
       169       247        42       248       404         2
       170       674       403       241       612         2
       171       403       404       242       241         2
       172       404       248        38       242         2
       173       616       249       405       673         2
       174       249       250       406       405         2
       175       250        46       251       406         2
       176       673       405       246       614         2
       177       405       406       247       246         2
       178       406       251        42       247         2
       179       618       252       407       672         2
       180       252       253       408       407         2
       181       253        48       254       408         2
       182       672       407       249       616         2
       183       407       408       250       249         2
       184       408       254        46       250         2
       185       621       255       409       671         2
       186       255       256       410       409         2
       187       256        55       257       410         2
       188       671       409       252       618         2
       189       409       410       253       252         2
       190       410       257        48       253         2
       191       603       258       411       666         2
       192       258       259       412       411         2
       193       259        20       260       412         2
       194       666       411       262       601         2
       195       411       412       261       262         2
       196       412       260        19       261         2
       197       605       263       413       667         2
       198       263       264       414       413         2
       199       264        23       265       414         2
       200       667       413       258       603         2
       201       413       414       259       258         2
       202       414       265        20       259         2
       203       606       266       415       668         2
       204       266       267       416       415         2
       205       267        27       268       416         2
       206       668       415       263       605         2
       207       415       416       264       263         2
       208       416       268        23       264         2
       209       608       269       417       669         2
       210       269       270       418       417         2
       211       270        28       271       418         2
       212       669       417       266       606         2
       213       417       418       267       266         2
       214       418       271        27       267         2
       215       610       245       419       670         2
       216       245       244       420       419         2
       217       244        34       272       420         2
       218       670       419       269       608         2
       219       419       420       270       269         2
       220       420       272        28       270         2
       221       623       273       421       676         2
       222       273       274       422       421         2
       223       274        59       275       422         2
       224       676       421       255       621         2
       225       421       422       256       255         2
       226       422       275        55       256         2
       227       624       276       423       677         2
       228       276       277       424       423         2
       229       277        62       278       424         2
       230       677       423       273       623         2
       231       423       424       274       273         2
       232       424       278        59       274         2
       233       626       279       425       678         2
       234       279       280       426       425         2
       235       280        66       281       426         2
       236       678       425       276       624         2
       237       425       426       277       276         2
       238       426       281        62       277         2
       239       629       282       427       679         2
       240       282       283       428       427         2
       241       283        70       284       428         2
       242       679       427       279       626         2
       243       427       428       280       279         2
       244       428       284        66       280         2
       245       630       285       429       680         2
       246       285       286       430       429         2
       247       286        75       287       430         2
       248       680       429       282       629         2
       249       429       430       283       282         2
       250       430       287        70       283         2
       251       633       288       431       645         2
       252       288       289       432       431         2
       253       289        79       290       432         2
       254       645       431       285       630         2
       255       431       432       286       285         2
       256       432       290        75       286         2
       257       635       291       433       644         2
       258       291       292       434       433         2
       259       292        83       293       434         2
       260       644       433       288       633         2
       261       433       434       289       288         2
       262       434       293        79       289         2
       263       637       294       435       643         2
       264       294       295       436       435         2
       265       295        84       296       436         2
       266       643       435       291       635         2
       267       435       436       292       291         2
       268       436       296        83       292         2
       269       638       297       437       642         2
       270       297       298       438       437         2
       271       298        87       299       438         2
       272       642       437       294       637         2
       273       437       438       295       294         2
       274       438       299        84       295         2
       275       640       300       439       641         2
       276       300       301       440       439         2
       277       301        88       302       440         2
       278       641       439       297       638         2
       279       439       440       298       297         2
       280       440       302        87       298         2
       281       639       303       441       646         2
       282       303       304       442       441         2
       283       304        86       305       442         2
       284       646       441       300       640         2
       285       441       442       301       300         2
       286       442       305        88       301         2
       287       636       306       443       647         2
       288       306       307       444       443         2
       289       307        85       308       444         2
       290       647       443       303       639         2
       291       443       444       304       303         2
       292       444       308        86       304         2
       293       634       309       445       648         2
       294       309       310       446       445         2
       295       310        82       311       446         2
       296       648       445       306       636         2
       297       445       446       307       306         2
       298       446       311        85       307         2
       299       632       312       447       649         2
       300       312       313       448       447         2
       301       313        78       314       448         2
       302       649       447       309       634         2
       303       447       448       310       309         2
       304       448       314        82       310         2
       305       631       315       449       650         2
       306       315       316       450       449         2
       307       316        74       317       450         2
       308       650       449       312       632         2
       309       449       450       313       312         2
       310       450       317        78       313         2
       311       628       318       451       655         2
       312       318       319       452       451         2
       313       319        71       320       452         2
       314       655       451       315       631         2
       315       451       452       316       315         2
       316       452       320        74       316         2
       317       627       321       453       654         2
       318       321       322       454       453         2
       319       322        67       323       454         2
       320       654       453       318       628         2
       321       453       454       319       318         2
       322       454       323        71       319         2
       323       625       324       455       653         2
       324       324       325       456       455         2
       325       325        63       326       456         2
       326       653       455       321       627         2
       327       455       456       322       321         2
       328       456       326        67       322         2
       329       622       327       457       652         2
       330       327       328       458       457         2
       331       328        58       329       458         2
       332       652       457       324       625         2
       333       457       458       325       324         2
       334       458       329        63       325         2
       335       620       330       459       651         2
       336       330       331       460       459         2
       337       331        54       332       460         2
       338       651       459       327       622         2
       339       459       460       328       327         2
       340       460       332        58       328         2
       341       619       333       461       656         2
       342       333       334       462       461         2
       343       334        49       335       462         2
       344       656       461       330       620         2
       345       461       462       331       330         2
       346       462       335        54       331         2
       347       617       336       463       657         2
       348       336       337       464       463         2
       349       337        47       338       464         2
       350       657       463       333       619         2
       351       463       464       334       333         2
       352       464       338        49       334         2
       353       615       339       465       658         2
       354       339       340       466       465         2
       355       340        43       341       466         2
       356       658       465       336       617         2
       357       465       466       337       336         2
       358       466       341        47       337         2
       359       613       342       467       659         2
       360       342       343       468       467         2
       361       343        39       344       468         2
       362       659       467       339       615         2
       363       467       468       340       339         2
       364       468       344        43       340         2
       365       611       345       469       660         2
       366       345       346       470       469         2
       367       346        35       347       470         2
       368       660       469       342       613         2
       369       469       470       343       342         2
       370       470       347        39       343         2
       371       609       348       471       665         2
       372       348       349       472       471         2
       373       349        29       350       472         2
       374       665       471       345       611         2
       375       471       472       346       345         2
       376       472       350        35       346         2
       377       607       351       473       664         2
       378       351       352       474       473         2
       379       352        26       353       474         2
       380       664       473       348       609         2
       381       473       474       349       348         2
       382       474       353        29       349         2
       383       604       354       475       663         2
       384       354       355       476       475         2
       385       355        22       356       476         2
       386       663       475       351       607         2
       387       475       476       352       351         2
       388       476       356        26       352         2
       389       602       357       477       662         2
       390       357       358       478       477         2
       391       358        21       359       478         2
       392       662       477       354       604         2
       393       477       478       355       354         2
       394       478       359        22       355         2
       395       601       262       479       661         2
       396       262       261       480       479         2
       397       261        19       360       480         2
       398       661       479       357       602         2
       399       479       480       358       357         2
       400       480       360        21       358         2
       401       481       482         3
       402       482       483         3
       403       483       484         3
       404       484       485         3
       405       485       486         3
       406       486       487         3
       407       487       488         3
       408       488       489         3
       409       489       490         3
       410       490       491         3
       411       491       492         3
       412       492       493         3
       413       493       494         3
       414       494       495         3
       415       495       496         3
       416       496       497         3
       417       497       498         3
       418       498       499         3
       419       499       500         3
       420       500       501         3
       421       501       502         3
       422       502       503         3
       423       503       504         3
       424       504       505         3
       425       505       506         3
       426       506       507         3
       427       507       508         3
       428       508       509         3
       429       509       510         3
       430       510       481         3
       431       481       511         4
       432       482       512         4
       433       483       513         4
       434       484       514         4
       435       485       515         4
       436       486       516         4
       437       487       517         4
       438       488       518         4
       439       489       519         4
       440       490       520         4
       441       491       521         4
       442       492       522         4
       443       493       523         4
       444       494       524         4
       445       495       525         4
       446       496       526         4
       447       497       527         4
       448       498       528         4
       449       499       529         4
       450       500       530         4
       451       501       531         4
       452       502       532         4
       453       503       533         4
       454       504       534         4
       455       505       535         4
       456       506       536         4
       457       507       537         4
       458       508       538         4
       459       509       539         4
       460       510       540         4
       461       541       542         5
       462       542       543         5
       463       543       544         5
       464       544       545         5
       465       545       546         5
       466       546       547         5
       467       547       548         5
       468       548       549         5
       469       549       550         5
       470       550       551         5
       471       551       552         5
       472       552       553         5
       473       553       554         5
       474       554       555         5
       475       555       556         5
       476       556       557         5
       477       557       558         5
       478       558       559         5
       479       559       560         5
       480       560       561         5
       481       561       562         5
       482       562       563         5
       483       563       564         5
       484       564       565         5
       485       565       566         5
       486       566       567         5
       487       567       568         5
       488       568       569         5
       489       569       570         5
       490       570       541         5
       491       541       571         6
       492       542       572         6
       493       543       573         6
       494       544       574         6
       495       545       575         6
       496       546       576         6
       497       547       577         6
       498       548       578         6
       499       549       579         6
       500       550       580         6
       501       551       581         6
       502       552       582         6
       503       553       583         6
       504       554       584         6
       505       555       585         6
       506       556       586         6
       507       557       587         6
       508       558       588         6
       509       559       589         6
       510       560       590         6
       511       561       591         6
       512       562       592         6
       513       563       593         6
       514       564       594         6
       515       565       595         6
       516       566       596         6
       517       567       597         6
       518       568       598         6
       519       569       599         6
       520       570       600         6
       521       121        97       640       641         7
       522        95       121       641       638         7
       523       125        95       638       642         7
       524        94       125       642       637         7
       525       128        94       637       643         7
       526        92       128       643       635         7
       527       131        92       635       644         7
       528        90       131       644       633         7
       529       134        90       633       645         7
       530        80       134       645       630         7
       531       139        96       639       646         7
       532        97       139       646       640         7
       533       142        93       636       647         7
       534        96       142       647       639         7
       535       145        91       634       648         7
       536        93       145       648       636         7
       537       148        89       632       649         7
       538        91       148       649       634         7
       539       151        81       631       650         7
       540        89       151       650       632         7
       541       152        56       620       651         7
       542        60       152       651       622         7
       543       156        60       622       652         7
       544        65       156       652       625         7
       545       159        65       625       653         7
       546        69       159       653       627         7
       547       162        69       627       654         7
       548        76       162       654       628         7
       549       165        76       628       655         7
       550        81       165       655       631         7
       551       169        53       619       656         7
       552        56       169       656       620         7
       553       172        45       617       657         7
       554        53       172       657       619         7
       555       175        41       615       658         7
       556        45       175       658       617         7
       557       178        37       613       659         7
       558        41       178       659       615         7
       559       181        33       611       660         7
       560        37       181       660       613         7
       561       182        12       601       661         7
       562        13       182       661       602         7
       563       186        13       602       662         7
       564        15       186       662       604         7
       565       189        15       604       663         7
       566        18       189       663       607         7
       567       192        18       607       664         7
       568        25       192       664       609         7
       569       195        25       609       665         7
       570        33       195       665       611         7
       571       199        14       603       666         7
       572        12       199       666       601         7
       573       202        16       605       667         7
       574        14       202       667       603         7
       575       205        17       606       668         7
       576        16       205       668       605         7
       577       208        24       608       669         7
       578        17       208       669       606         7
       579       211        32       610       670         7
       580        24       211       670       608         7
       581       212        57       621       671         7
       582        52       212       671       618         7
       583       216        52       618       672         7
       584        44       216       672       616         7
       585       219        44       616       673         7
       586        40       219       673       614         7
       587       222        40       614       674         7
       588        36       222       674       612         7
       589       225        36       612       675         7
       590        32       225       675       610         7
       591       229        61       623       676         7
       592        57       229       676       621         7
       593       232        64       624       677         7
       594        61       232       677       623         7
       595       235        68       626       678         7
       596        64       235       678       624         7
       597       238        77       629       679         7
       598        68       238       679       626         7
       599       240        80       630       680         7
       600        77       240       680       629         7
