 mesh dimension  3   elemtype Linear  nnode  2
 coordinates
         1   0.710000E+01   0.000000E+00
         2   0.694485E+01   0.147617E+01
         3   0.648617E+01   0.288783E+01
         4   0.574402E+01   0.417327E+01
         5   0.475083E+01   0.527632E+01
         6   0.355000E+01   0.614878E+01
         7   0.219403E+01   0.675250E+01
         8   0.742160E+00   0.706110E+01
         9  -0.742142E+00   0.706111E+01
        10  -0.219401E+01   0.675250E+01
        11  -0.354999E+01   0.614879E+01
        12  -0.475082E+01   0.527634E+01
        13  -0.574401E+01   0.417329E+01
        14  -0.648617E+01   0.288785E+01
        15  -0.694484E+01   0.147619E+01
        16  -0.710000E+01   0.180000E-04
        17  -0.694485E+01  -0.147615E+01
        18  -0.648618E+01  -0.288781E+01
        19  -0.574403E+01  -0.417326E+01
        20  -0.475084E+01  -0.527631E+01
        21  -0.355002E+01  -0.614877E+01
        22  -0.219405E+01  -0.675249E+01
        23  -0.742178E+00  -0.706110E+01
        24   0.742128E+00  -0.706111E+01
        25   0.219399E+01  -0.675251E+01
        26   0.354997E+01  -0.614880E+01
        27   0.475080E+01  -0.527635E+01
        28   0.574400E+01  -0.417330E+01
        29   0.648616E+01  -0.288786E+01
        30   0.694484E+01  -0.147621E+01
        31   0.825000E+01   0.000000E+00
        32   0.806972E+01   0.171527E+01
        33   0.753675E+01   0.335557E+01
        34   0.667439E+01   0.484922E+01
        35   0.552033E+01   0.613094E+01
        36   0.412501E+01   0.714471E+01
        37   0.254940E+01   0.784621E+01
        38   0.862369E+00   0.820480E+01
        39  -0.862348E+00   0.820481E+01
        40  -0.254938E+01   0.784622E+01
        41  -0.412499E+01   0.714472E+01
        42  -0.552032E+01   0.613095E+01
        43  -0.667438E+01   0.484924E+01
        44  -0.753674E+01   0.335559E+01
        45  -0.806971E+01   0.171529E+01
        46  -0.825000E+01   0.209200E-04
        47  -0.806972E+01  -0.171525E+01
        48  -0.753676E+01  -0.335556E+01
        49  -0.667440E+01  -0.484921E+01
        50  -0.552035E+01  -0.613093E+01
        51  -0.412502E+01  -0.714470E+01
        52  -0.254942E+01  -0.784621E+01
        53  -0.862390E+00  -0.820480E+01
        54   0.862332E+00  -0.820481E+01
        55   0.254936E+01  -0.784623E+01
        56   0.412497E+01  -0.714473E+01
        57   0.552030E+01  -0.613097E+01
        58   0.667437E+01  -0.484926E+01
        59   0.753673E+01  -0.335561E+01
        60   0.806971E+01  -0.171531E+01
 end coordinates
 elements
         1         1         2         3
         2         2         3         3
         3         3         4         3
         4         4         5         3
         5         5         6         3
         6         6         7         3
         7         7         8         3
         8         8         9         3
         9         9        10         3
        10        10        11         3
        11        11        12         3
        12        12        13         3
        13        13        14         3
        14        14        15         3
        15        15        16         3
        16        16        17         3
        17        17        18         3
        18        18        19         3
        19        19        20         3
        20        20        21         3
        21        21        22         3
        22        22        23         3
        23        23        24         3
        24        24        25         3
        25        25        26         3
        26        26        27         3
        27        27        28         3
        28        28        29         3
        29        29        30         3
        30        30         1         3
        31        31        32         5
        32        32        33         5
        33        33        34         5
        34        34        35         5
        35        35        36         5
        36        36        37         5
        37        37        38         5
        38        38        39         5
        39        39        40         5
        40        40        41         5
        41        41        42         5
        42        42        43         5
        43        43        44         5
        44        44        45         5
        45        45        46         5
        46        46        47         5
        47        47        48         5
        48        48        49         5
        49        49        50         5
        50        50        51         5
        51        51        52         5
        52        52        53         5
        53        53        54         5
        54        54        55         5
        55        55        56         5
        56        56        57         5
        57        57        58         5
        58        58        59         5
        59        59        60         5
        60        60        31         5
 end elements
