         1               22        47        20        21         1
         2               47        48        19        20         1
         3               48        49        18        19         1
         4               49        50        17        18         1
         5               50        51        16        17         1
         6               51        52        15        16         1
         7               52        53        14        15         1
         8               53        54        13        14         1
         9               54        55        12        13         1
        10               55        56        11        12         1
        11               56        57        10        11         1
        12               57        58         9        10         1
        13               58        59         8         9         1
        14               59        60         7         8         1
        15               60        61         6         7         1
        16               61        62         5         6         1
        17               62        63         4         5         1
        18               63        64         3         4         1
        19               64        65         2         3         1
        20               65        46         1         2         1
        21               66        67        33        34         1
        22               67        68        32        33         1
        23               68        69        31        32         1
        24               69        70        30        31         1
        25               70        71        29        30         1
        26               71        72        28        29         1
        27               72        73        27        28         1
        28               73        74        26        27         1
        29               74        75        25        26         1
        30               75        23        24        25         1
        31               56        55        67        66         1
        32               55        54        68        67         1
        33               54        53        69        68         1
        34               53        52        70        69         1
        35               52        51        71        70         1
        36               51        50        72        71         1
        37               50        49        73        72         1
        38               49        48        74        73         1
        39               48        47        75        74         1
        40               47        22        23        75         1
        41               45        76        43        44         1
        42               76        77        42        43         1
        43               77        78        41        42         1
        44               78        79        40        41         1
        45               79        80        39        40         1
        46               80        81        38        39         1
        47               81        82        37        38         1
        48               82        83        36        37         1
        49               83        84        35        36         1
        50               84        66        34        35         1
        51               46        65        76        45         1
        52               65        64        77        76         1
        53               64        63        78        77         1
        54               63        62        79        78         1
        55               62        61        80        79         1
        56               61        60        81        80         1
        57               60        59        82        81         1
        58               59        58        83        82         1
        59               58        57        84        83         1
        60               57        56        66        84         1
        61              194       195       190       191         1
        62              195       186       187       190         1
        63              165       166       195       194         1
        64              166       167       186       195         1
        65              109       196       193       108         1
        66              196       197       192       193         1
        67              197       194       191       192         1
        68              110       163       196       109         1
        69              163       164       197       196         1
        70              164       165       194       197         1
        71              198       200      1284      1285         1
        72              200       189      1283      1284         1
        73              199       201       200       198         1
        74              201       188       189       200         1
        75              191       190       201       199         1
        76              190       187       188       201         1
        77              106       202      1287      1288         1
        78              202       203      1286      1287         1
        79              203       198      1285      1286         1
        80              107       204       202       106         1
        81              204       205       203       202         1
        82              205       199       198       203         1
        83              108       193       204       107         1
        84              193       192       205       204         1
        85              192       191       199       205         1
        86              210       211       206       207         1
        87              211       182       183       206         1
        88              170       171       211       210         1
        89              171       172       182       211         1
        90              186       212       209       187         1
        91              212       213       208       209         1
        92              213       210       207       208         1
        93              167       168       212       186         1
        94              168       169       213       212         1
        95              169       170       210       213         1
        96              214       216      1279      1280         1
        97              216       185      1278      1279         1
        98              215       217       216       214         1
        99              217       184       185       216         1
       100              207       206       217       215         1
       101              206       183       184       217         1
       102              189       218      1282      1283         1
       103              218       219      1281      1282         1
       104              219       214      1280      1281         1
       105              187       209       220       188         1
       106              188       220       218       189         1
       107              215       221       208       207         1
       108              221       220       209       208         1
       109              214       219       221       215         1
       110              219       218       220       221         1
       111              230       231       226       227         1
       112              231       222       223       226         1
       113              175       176       231       230         1
       114              176       177       222       231         1
       115              182       232       229       183         1
       116              232       233       228       229         1
       117              233       230       227       228         1
       118              172       173       232       182         1
       119              173       174       233       232         1
       120              174       175       230       233         1
       121              234       236      1274      1275         1
       122              236       225      1273      1274         1
       123              235       237       236       234         1
       124              237       224       225       236         1
       125              227       226       237       235         1
       126              226       223       224       237         1
       127              185       238      1277      1278         1
       128              238       239      1276      1277         1
       129              239       234      1275      1276         1
       130              183       229       240       184         1
       131              184       240       238       185         1
       132              235       241       228       227         1
       133              241       240       229       228         1
       134              234       239       241       235         1
       135              239       238       240       241         1
       136              246       247       242       243         1
       137              247       140       141       242         1
       138              180       181       247       246         1
       139              181       139       140       247         1
       140              222       248       245       223         1
       141              248       249       244       245         1
       142              249       246       243       244         1
       143              177       178       248       222         1
       144              178       179       249       248         1
       145              179       180       246       249         1
       146              250       252      1269      1270         1
       147              252       143      1268      1269         1
       148              251       253       252       250         1
       149              253       142       143       252         1
       150              243       242       253       251         1
       151              242       141       142       253         1
       152              225       254      1272      1273         1
       153              254       255      1271      1272         1
       154              255       250      1270      1271         1
       155              223       245       256       224         1
       156              224       256       254       225         1
       157              251       257       244       243         1
       158              257       256       245       244         1
       159              250       255       257       251         1
       160              255       254       256       257         1
       161              272       273       262       263         1
       162              273       258       259       262         1
       163              151       152       273       272         1
       164              152       153       258       273         1
       165              271       274       265       266         1
       166              274       275       264       265         1
       167              275       272       263       264         1
       168              148       149       274       271         1
       169              149       150       275       274         1
       170              150       151       272       275         1
       171              276       277       267       268         1
       172              277       271       266       267         1
       173              146       147       277       276         1
       174              147       148       271       277         1
       175              114       278       270       113         1
       176              278       279       269       270         1
       177              279       276       268       269         1
       178              115       144       278       114         1
       179              144       145       279       278         1
       180              145       146       276       279         1
       181              280       282       168       167         1
       182              282       283       169       168         1
       183              283       284       170       169         1
       184              284       285       171       170         1
       185              285       261       172       171         1
       186              286       287       265       264         1
       187              287       281       266       265         1
       188              283       282       287       286         1
       189              282       280       281       287         1
       190              260       288       262       259         1
       191              288       289       263       262         1
       192              289       286       264       263         1
       193              261       285       288       260         1
       194              285       284       289       288         1
       195              284       283       286       289         1
       196              111       290       163       110         1
       197              290       291       164       163         1
       198              291       292       165       164         1
       199              292       293       166       165         1
       200              293       280       167       166         1
       201              294       295       270       269         1
       202              295       112       113       270         1
       203              291       290       295       294         1
       204              290       111       112       295         1
       205              281       296       267       266         1
       206              296       297       268       267         1
       207              297       294       269       268         1
       208              280       293       296       281         1
       209              293       292       297       296         1
       210              292       291       294       297         1
       211              308       309       298       299         1
       212              309       135       136       298         1
       213              161       162       309       308         1
       214              162       134       135       309         1
       215              307       310       301       302         1
       216              310       311       300       301         1
       217              311       308       299       300         1
       218              158       159       310       307         1
       219              159       160       311       310         1
       220              160       161       308       311         1
       221              312       313       303       304         1
       222              313       307       302       303         1
       223              156       157       313       312         1
       224              157       158       307       313         1
       225              258       314       306       259         1
       226              314       315       305       306         1
       227              315       312       304       305         1
       228              153       154       314       258         1
       229              154       155       315       314         1
       230              155       156       312       315         1
       231              316       318       178       177         1
       232              318       319       179       178         1
       233              319       320       180       179         1
       234              320       321       181       180         1
       235              321       138       139       181         1
       236              322       323       301       300         1
       237              323       317       302       301         1
       238              319       318       323       322         1
       239              318       316       317       323         1
       240              137       324       298       136         1
       241              324       325       299       298         1
       242              325       322       300       299         1
       243              138       321       324       137         1
       244              321       320       325       324         1
       245              320       319       322       325         1
       246              261       326       173       172         1
       247              326       327       174       173         1
       248              327       328       175       174         1
       249              328       329       176       175         1
       250              329       316       177       176         1
       251              330       331       306       305         1
       252              331       260       259       306         1
       253              327       326       331       330         1
       254              326       261       260       331         1
       255              317       332       303       302         1
       256              332       333       304       303         1
       257              333       330       305       304         1
       258              316       329       332       317         1
       259              329       328       333       332         1
       260              328       327       330       333         1
       261              366       367       360       361         1
       262              367       368       359       360         1
       263              368       369       358       359         1
       264              369       370       357       358         1
       265              370       353       354       357         1
       266              338       339       367       366         1
       267              339       340       368       367         1
       268              340       341       369       368         1
       269              341       342       370       369         1
       270              342       343       353       370         1
       271              119       371       365       118         1
       272              371       372       364       365         1
       273              372       373       363       364         1
       274              373       374       362       363         1
       275              374       366       361       362         1
       276              120       334       371       119         1
       277              334       335       372       371         1
       278              335       336       373       372         1
       279              336       337       374       373         1
       280              337       338       366       374         1
       281              375       377       149       148         1
       282              377       378       150       149         1
       283              378       379       151       150         1
       284              379       380       152       151         1
       285              380       356       153       152         1
       286              376       381       377       375         1
       287              381       382       378       377         1
       288              382       383       379       378         1
       289              383       384       380       379         1
       290              384       355       356       380         1
       291              361       360       381       376         1
       292              360       359       382       381         1
       293              359       358       383       382         1
       294              358       357       384       383         1
       295              357       354       355       384         1
       296              116       385       144       115         1
       297              385       386       145       144         1
       298              386       387       146       145         1
       299              387       388       147       146         1
       300              388       375       148       147         1
       301              117       389       385       116         1
       302              389       390       386       385         1
       303              390       391       387       386         1
       304              391       392       388       387         1
       305              392       376       375       388         1
       306              118       365       389       117         1
       307              365       364       390       389         1
       308              364       363       391       390         1
       309              363       362       392       391         1
       310              362       361       376       392         1
       311              402       403       396       397         1
       312              403       404       395       396         1
       313              404       405       394       395         1
       314              405       406       393       394         1
       315              406       130       131       393         1
       316              348       349       403       402         1
       317              349       350       404       403         1
       318              350       351       405       404         1
       319              351       352       406       405         1
       320              352       129       130       406         1
       321              353       407       401       354         1
       322              407       408       400       401         1
       323              408       409       399       400         1
       324              409       410       398       399         1
       325              410       402       397       398         1
       326              343       344       407       353         1
       327              344       345       408       407         1
       328              345       346       409       408         1
       329              346       347       410       409         1
       330              347       348       402       410         1
       331              411       413       159       158         1
       332              413       414       160       159         1
       333              414       415       161       160         1
       334              415       416       162       161         1
       335              416       133       134       162         1
       336              412       417       413       411         1
       337              417       418       414       413         1
       338              418       419       415       414         1
       339              419       420       416       415         1
       340              420       132       133       416         1
       341              397       396       417       412         1
       342              396       395       418       417         1
       343              395       394       419       418         1
       344              394       393       420       419         1
       345              393       131       132       420         1
       346              356       421       154       153         1
       347              421       422       155       154         1
       348              422       423       156       155         1
       349              423       424       157       156         1
       350              424       411       158       157         1
       351              355       425       421       356         1
       352              425       426       422       421         1
       353              426       427       423       422         1
       354              427       428       424       423         1
       355              428       412       411       424         1
       356              354       401       425       355         1
       357              401       400       426       425         1
       358              400       399       427       426         1
       359              399       398       428       427         1
       360              398       397       412       428         1
       361              448       449       437       438         1
       362              449       450       436       437         1
       363              450       451       435       436         1
       364              451       452       434       435         1
       365              452       453       433       434         1
       366              453       454       432       433         1
       367              454       455       431       432         1
       368              455       456       430       431         1
       369              456       457       429       430         1
       370              457       121       122       429         1
       371              343       342       449       448         1
       372              342       341       450       449         1
       373              341       340       451       450         1
       374              340       339       452       451         1
       375              339       338       453       452         1
       376              338       337       454       453         1
       377              337       336       455       454         1
       378              336       335       456       455         1
       379              335       334       457       456         1
       380              334       120       121       457         1
       381              458       459       442       443         1
       382              459       460       441       442         1
       383              460       461       440       441         1
       384              461       462       439       440         1
       385              462       448       438       439         1
       386              348       347       459       458         1
       387              347       346       460       459         1
       388              346       345       461       460         1
       389              345       344       462       461         1
       390              344       343       448       462         1
       391              128       463       447       127         1
       392              463       464       446       447         1
       393              464       465       445       446         1
       394              465       466       444       445         1
       395              466       458       443       444         1
       396              129       352       463       128         1
       397              352       351       464       463         1
       398              351       350       465       464         1
       399              350       349       466       465         1
       400              349       348       458       466         1
       401              123       467       429       122         1
       402              467       468       430       429         1
       403              468       469       431       430         1
       404              469       470       432       431         1
       405              470       471       433       432         1
       406              471       472       434       433         1
       407              472       473       435       434         1
       408              473       474       436       435         1
       409              474       475       437       436         1
       410              475       476       438       437         1
       411              476       477       439       438         1
       412              477       478       440       439         1
       413              478       479       441       440         1
       414              479       480       442       441         1
       415              480       481       443       442         1
       416              481       482       444       443         1
       417              482       483       445       444         1
       418              483       484       446       445         1
       419              484       485       447       446         1
       420              485       126       127       447         1
       421              124       486       467       123         1
       422              486       487       468       467         1
       423              487       488       469       468         1
       424              488       489       470       469         1
       425              489       490       471       470         1
       426              490       491       472       471         1
       427              491       492       473       472         1
       428              492       493       474       473         1
       429              493       494       475       474         1
       430              494       495       476       475         1
       431              495       496       477       476         1
       432              496       497       478       477         1
       433              497       498       479       478         1
       434              498       499       480       479         1
       435              499       500       481       480         1
       436              500       501       482       481         1
       437              501       502       483       482         1
       438              502       503       484       483         1
       439              503       504       485       484         1
       440              504       125       126       485         1
       441               21        20       486       124         1
       442               20        19       487       486         1
       443               19        18       488       487         1
       444               18        17       489       488         1
       445               17        16       490       489         1
       446               16        15       491       490         1
       447               15        14       492       491         1
       448               14        13       493       492         1
       449               13        12       494       493         1
       450               12        11       495       494         1
       451               11        10       496       495         1
       452               10         9       497       496         1
       453                9         8       498       497         1
       454                8         7       499       498         1
       455                7         6       500       499         1
       456                6         5       501       500         1
       457                5         4       502       501         1
       458                4         3       503       502         1
       459                3         2       504       503         1
       460                2         1       125       504         1
       461              526       529       530       525         2
       462              525       530       516       517         2
       463              529       513       514       530         2
       464              530       514       515       516         2
       465              527       531       529       526         2
       466              531       512       513       529         2
       467              508       509       532       528         2
       468              528       532       531       527         2
       469              509       510       511       532         2
       470              532       511       512       531         2
       471              522       533       535       521         2
       472              521       535       519       520         2
       473              533       534       536       535         2
       474              535       536       518       519         2
       475              534       526       525       536         2
       476              536       525       517       518         2
       477              505       506       537       524         2
       478              524       537       538       523         2
       479              523       538       533       522         2
       480              506       507       539       537         2
       481              537       539       540       538         2
       482              538       540       534       533         2
       483              507       508       528       539         2
       484              539       528       527       540         2
       485              540       527       526       534         2
       486              568       569       565       566         2
       487              569       561       562       565         2
       488              550       551       569       568         2
       489              551       552       561       569         2
       490              516       570       567       517         2
       491              570       568       566       567         2
       492              515       549       570       516         2
       493              549       550       568       570         2
       494              571       573       546       547         2
       495              573       564       545       546         2
       496              572       574       573       571         2
       497              574       563       564       573         2
       498              566       565       574       572         2
       499              565       562       563       574         2
       500              519       575       548       520         2
       501              575       571       547       548         2
       502              518       576       575       519         2
       503              576       572       571       575         2
       504              517       567       576       518         2
       505              567       566       572       576         2
       506              580       581       577       578         2
       507              581       557       558       577         2
       508              554       555       581       580         2
       509              555       556       557       581         2
       510              561       582       579       562         2
       511              582       580       578       579         2
       512              552       553       582       561         2
       513              553       554       580       582         2
       514              583       585       542       543         2
       515              585       560       541       542         2
       516              584       586       585       583         2
       517              586       559       560       585         2
       518              578       577       586       584         2
       519              577       558       559       586         2
       520              564       587       544       545         2
       521              587       583       543       544         2
       522              563       588       587       564         2
       523              588       584       583       587         2
       524              562       579       588       563         2
       525              579       578       584       588         2
       526              617       620       621       616         2
       527              616       621       612       613         2
       528              620       596       597       621         2
       529              621       597       598       612         2
       530              618       622       620       617         2
       531              622       595       596       620         2
       532              592       593       623       619         2
       533              619       623       622       618         2
       534              593        85       594       623         2
       535              623       594       595       622         2
       536              609       624       626       608         2
       537              608       626       615       607         2
       538              624       625       627       626         2
       539              626       627       614       615         2
       540              625       617       616       627         2
       541              627       616       613       614         2
       542              589       590       628       611         2
       543              611       628       629       610         2
       544              610       629       624       609         2
       545              619       630       591       592         2
       546              630       628       590       591         2
       547              617       625       631       618         2
       548              618       631       630       619         2
       549              625       624       629       631         2
       550              631       629       628       630         2
       551              633       636       637       632         2
       552              632       637       524       523         2
       553              636       601       602       637         2
       554              637       602       505       524         2
       555              634       638       636       633         2
       556              638       600       601       636         2
       557              613       612       639       635         2
       558              635       639       638       634         2
       559              612       598       599       639         2
       560              639       599       600       638         2
       561              604       640       642       603         2
       562              603       642       521       520         2
       563              640       641       643       642         2
       564              642       643       522       521         2
       565              641       633       632       643         2
       566              643       632       523       522         2
       567              607       615       644       606         2
       568              606       644       645       605         2
       569              605       645       640       604         2
       570              635       646       614       613         2
       571              646       644       615       614         2
       572              633       641       647       634         2
       573              634       647       646       635         2
       574              641       640       645       647         2
       575              647       645       644       646         2
       576              678       681       682       677         2
       577              677       682       674       675         2
       578              681       667       668       682         2
       579              682       668       669       674         2
       580              547       546       683       680         2
       581              680       683       684       679         2
       582              679       684       681       678         2
       583              546       545       665       683         2
       584              683       665       666       684         2
       585              684       666       667       681         2
       586              605       685       686       606         2
       587              606       686       676       607         2
       588              685       678       677       686         2
       589              686       677       675       676         2
       590              520       548       687       603         2
       591              603       687       688       604         2
       592              604       688       685       605         2
       593              548       547       680       687         2
       594              687       680       679       688         2
       595              688       679       678       685         2
       596              690       693       694       689         2
       597              689       694       653       654         2
       598              693       672       673       694         2
       599              694       673       652       653         2
       600              675       674       695       692         2
       601              692       695       696       691         2
       602              691       696       693       690         2
       603              674       669       670       695         2
       604              695       670       671       696         2
       605              696       671       672       693         2
       606              610       697       698       611         2
       607              611       698       655       589         2
       608              697       690       689       698         2
       609              698       689       654       655         2
       610              607       676       699       608         2
       611              608       699       700       609         2
       612              609       700       697       610         2
       613              676       675       692       699         2
       614              699       692       691       700         2
       615              700       691       690       697         2
       616              705       708       709       704         2
       617              704       709       701       702         2
       618              708       658       659       709         2
       619              709       659       660       701         2
       620              543       542       710       707         2
       621              707       710       711       706         2
       622              706       711       708       705         2
       623              542       541       656       710         2
       624              710       656       657       711         2
       625              711       657       658       708         2
       626              667       712       713       668         2
       627              668       713       703       669         2
       628              712       705       704       713         2
       629              713       704       702       703         2
       630              545       544       714       665         2
       631              665       714       715       666         2
       632              666       715       712       667         2
       633              544       543       707       714         2
       634              714       707       706       715         2
       635              715       706       705       712         2
       636              717       720       721       716         2
       637              716       721       649       650         2
       638              720       663       664       721         2
       639              721       664       648       649         2
       640              702       701       722       719         2
       641              719       722       723       718         2
       642              718       723       720       717         2
       643              701       660       661       722         2
       644              722       661       662       723         2
       645              723       662       663       720         2
       646              672       724       725       673         2
       647              673       725       651       652         2
       648              724       717       716       725         2
       649              725       716       650       651         2
       650              669       703       726       670         2
       651              670       726       727       671         2
       652              671       727       724       672         2
       653              703       702       719       726         2
       654              726       719       718       727         2
       655              727       718       717       724         2
       656              593       740        86        85         2
       657              740       728        87        86         2
       658              592       739       740       593         2
       659              739       729       728       740         2
       660              591       741       739       592         2
       661              741       730       729       739         2
       662              590       742       741       591         2
       663              742       731       730       741         2
       664              589       738       742       590         2
       665              738       732       731       742         2
       666              781       782       766       767         2
       667              782       783       765       766         2
       668              783       784       764       765         2
       669              784       737       736       764         2
       670               92        91       782       781         2
       671               91        90       783       782         2
       672               90        89       784       783         2
       673               89        88       737       784         2
       674              780       785       770       771         2
       675              785       786       769       770         2
       676              786       787       768       769         2
       677              787       781       767       768         2
       678               96        95       785       780         2
       679               95        94       786       785         2
       680               94        93       787       786         2
       681               93        92       781       787         2
       682              788       789       774       775         2
       683              789       790       773       774         2
       684              790       791       772       773         2
       685              791       780       771       772         2
       686              100        99       789       788         2
       687               99        98       790       789         2
       688               98        97       791       790         2
       689               97        96       780       791         2
       690              763       792       779       762         2
       691              792       793       778       779         2
       692              793       794       777       778         2
       693              794       795       776       777         2
       694              795       788       775       776         2
       695              105       104       792       763         2
       696              104       103       793       792         2
       697              103       102       794       793         2
       698              102       101       795       794         2
       699              101       100       788       795         2
       700              796       798       749       750         2
       701              798       799       748       749         2
       702              799       800       747       748         2
       703              800       801       746       747         2
       704              801       802       745       746         2
       705              802       803       744       745         2
       706              803       804       743       744         2
       707              804       734       733       743         2
       708              805       806       768       767         2
       709              806       807       769       768         2
       710              807       808       770       769         2
       711              808       797       771       770         2
       712              801       800       806       805         2
       713              800       799       807       806         2
       714              799       798       808       807         2
       715              798       796       797       808         2
       716              735       809       764       736         2
       717              809       810       765       764         2
       718              810       811       766       765         2
       719              811       805       767       766         2
       720              734       804       809       735         2
       721              804       803       810       809         2
       722              803       802       811       810         2
       723              802       801       805       811         2
       724              760       812       758       759         2
       725              812       813       757       758         2
       726              813       814       756       757         2
       727              814       815       755       756         2
       728              815       816       754       755         2
       729              816       817       753       754         2
       730              817       818       752       753         2
       731              818       819       751       752         2
       732              819       796       750       751         2
       733              820       821       777       776         2
       734              821       822       778       777         2
       735              822       823       779       778         2
       736              823       761       762       779         2
       737              815       814       821       820         2
       738              814       813       822       821         2
       739              813       812       823       822         2
       740              812       760       761       823         2
       741              797       824       772       771         2
       742              824       825       773       772         2
       743              825       826       774       773         2
       744              826       827       775       774         2
       745              827       820       776       775         2
       746              796       819       824       797         2
       747              819       818       825       824         2
       748              818       817       826       825         2
       749              817       816       827       826         2
       750              816       815       820       827         2
       751              886       887       880       881         2
       752              887       888       879       880         2
       753              888       889       878       879         2
       754              889       890       877       878         2
       755              890       874       875       877         2
       756              859       860       887       886         2
       757              860       861       888       887         2
       758              861       862       889       888         2
       759              862       863       890       889         2
       760              863       864       874       890         2
       761              653       891       885       654         2
       762              891       892       884       885         2
       763              892       893       883       884         2
       764              893       894       882       883         2
       765              894       886       881       882         2
       766              652       855       891       653         2
       767              855       856       892       891         2
       768              856       857       893       892         2
       769              857       858       894       893         2
       770              858       859       886       894         2
       771              895       896       745       744         2
       772              896       897       746       745         2
       773              897       898       747       746         2
       774              898       899       748       747         2
       775              899       876       749       748         2
       776              881       880       896       895         2
       777              880       879       897       896         2
       778              879       878       898       897         2
       779              878       877       899       898         2
       780              877       875       876       899         2
       781              655       900       738       589         2
       782              900       901       732       738         2
       783              901       902       733       732         2
       784              902       903       743       733         2
       785              903       895       744       743         2
       786              654       885       900       655         2
       787              885       884       901       900         2
       788              884       883       902       901         2
       789              883       882       903       902         2
       790              882       881       895       903         2
       791              913       914       907       908         2
       792              914       915       906       907         2
       793              915       916       905       906         2
       794              916       917       904       905         2
       795              917       852       853       904         2
       796              869       870       914       913         2
       797              870       871       915       914         2
       798              871       872       916       915         2
       799              872       873       917       916         2
       800              873       851       852       917         2
       801              874       918       912       875         2
       802              918       919       911       912         2
       803              919       920       910       911         2
       804              920       921       909       910         2
       805              921       913       908       909         2
       806              864       865       918       874         2
       807              865       866       919       918         2
       808              866       867       920       919         2
       809              867       868       921       920         2
       810              868       869       913       921         2
       811              922       923       755       754         2
       812              923       924       756       755         2
       813              924       925       757       756         2
       814              925       926       758       757         2
       815              926       854       759       758         2
       816              908       907       923       922         2
       817              907       906       924       923         2
       818              906       905       925       924         2
       819              905       904       926       925         2
       820              904       853       854       926         2
       821              876       927       750       749         2
       822              927       928       751       750         2
       823              928       929       752       751         2
       824              929       930       753       752         2
       825              930       922       754       753         2
       826              875       912       927       876         2
       827              912       911       928       927         2
       828              911       910       929       928         2
       829              910       909       930       929         2
       830              909       908       922       930         2
       831              943       944       937       938         2
       832              944       945       936       937         2
       833              945       946       935       936         2
       834              946       947       934       935         2
       835              947       931       932       934         2
       836              832       833       944       943         2
       837              833       834       945       944         2
       838              834       835       946       945         2
       839              835       836       947       946         2
       840              836       837       931       947         2
       841              649       948       942       650         2
       842              948       949       941       942         2
       843              949       950       940       941         2
       844              950       951       939       940         2
       845              951       943       938       939         2
       846              648       828       948       649         2
       847              828       829       949       948         2
       848              829       830       950       949         2
       849              830       831       951       950         2
       850              831       832       943       951         2
       851              952       953       860       859         2
       852              953       954       861       860         2
       853              954       955       862       861         2
       854              955       956       863       862         2
       855              956       933       864       863         2
       856              938       937       953       952         2
       857              937       936       954       953         2
       858              936       935       955       954         2
       859              935       934       956       955         2
       860              934       932       933       956         2
       861              651       957       855       652         2
       862              957       958       856       855         2
       863              958       959       857       856         2
       864              959       960       858       857         2
       865              960       952       859       858         2
       866              650       942       957       651         2
       867              942       941       958       957         2
       868              941       940       959       958         2
       869              940       939       960       959         2
       870              939       938       952       960         2
       871              970       971       964       965         2
       872              971       972       963       964         2
       873              972       973       962       963         2
       874              973       974       961       962         2
       875              974       848       849       961         2
       876              842       843       971       970         2
       877              843       844       972       971         2
       878              844       845       973       972         2
       879              845       846       974       973         2
       880              846       847       848       974         2
       881              931       975       969       932         2
       882              975       976       968       969         2
       883              976       977       967       968         2
       884              977       978       966       967         2
       885              978       970       965       966         2
       886              837       838       975       931         2
       887              838       839       976       975         2
       888              839       840       977       976         2
       889              840       841       978       977         2
       890              841       842       970       978         2
       891              979       980       870       869         2
       892              980       981       871       870         2
       893              981       982       872       871         2
       894              982       983       873       872         2
       895              983       850       851       873         2
       896              965       964       980       979         2
       897              964       963       981       980         2
       898              963       962       982       981         2
       899              962       961       983       982         2
       900              961       849       850       983         2
       901              933       984       865       864         2
       902              984       985       866       865         2
       903              985       986       867       866         2
       904              986       987       868       867         2
       905              987       979       869       868         2
       906              932       969       984       933         2
       907              969       968       985       984         2
       908              968       967       986       985         2
       909              967       966       987       986         2
       910              966       965       979       987         2
       911             1020      1021      1016      1017         2
       912             1021      1012      1013      1016         2
       913             1000      1001      1021      1020         2
       914             1001      1002      1012      1021         2
       915             1017      1018      1022      1020         2
       916             1020      1022       999      1000         2
       917              760      1023      1019       761         2
       918             1023      1022      1018      1019         2
       919              759       998      1023       760         2
       920              998       999      1022      1023         2
       921             1024      1026       994       995         2
       922             1026      1015       993       994         2
       923             1025      1027      1026      1024         2
       924             1027      1014      1015      1026         2
       925             1017      1016      1027      1025         2
       926             1016      1013      1014      1027         2
       927              763      1028       997       105         2
       928             1028      1029       996       997         2
       929             1029      1024       995       996         2
       930              761      1019      1030       762         2
       931              762      1030      1028       763         2
       932             1025      1031      1018      1017         2
       933             1031      1030      1019      1018         2
       934             1024      1029      1031      1025         2
       935             1029      1028      1030      1031         2
       936             1036      1037      1032      1033         2
       937             1037      1008      1009      1032         2
       938             1005      1006      1037      1036         2
       939             1006      1007      1008      1037         2
       940             1033      1034      1038      1036         2
       941             1036      1038      1004      1005         2
       942             1012      1039      1035      1013         2
       943             1039      1038      1034      1035         2
       944             1002      1003      1039      1012         2
       945             1003      1004      1038      1039         2
       946             1040      1042       989       990         2
       947             1042      1011       988       989         2
       948             1041      1043      1042      1040         2
       949             1043      1010      1011      1042         2
       950             1033      1032      1043      1041         2
       951             1032      1009      1010      1043         2
       952             1015      1044       992       993         2
       953             1044      1045       991       992         2
       954             1045      1040       990       991         2
       955             1013      1035      1046      1014         2
       956             1014      1046      1044      1015         2
       957             1041      1047      1034      1033         2
       958             1047      1046      1035      1034         2
       959             1040      1045      1047      1041         2
       960             1045      1044      1046      1047         2
       961             1078      1081      1082      1077         2
       962             1077      1082      1074      1075         2
       963             1081      1067      1068      1082         2
       964             1082      1068      1069      1074         2
       965              853       852      1083      1080         2
       966             1080      1083      1084      1079         2
       967             1079      1084      1081      1078         2
       968              852       851      1065      1083         2
       969             1083      1065      1066      1084         2
       970             1084      1066      1067      1081         2
       971             1000      1085      1086      1001         2
       972             1001      1086      1076      1002         2
       973             1085      1078      1077      1086         2
       974             1086      1077      1075      1076         2
       975              759       854      1087       998         2
       976              998      1087      1088       999         2
       977              999      1088      1085      1000         2
       978              854       853      1080      1087         2
       979             1087      1080      1079      1088         2
       980             1088      1079      1078      1085         2
       981             1090      1093      1094      1089         2
       982             1089      1094      1053      1054         2
       983             1093      1072      1073      1094         2
       984             1094      1073      1052      1053         2
       985             1075      1074      1095      1092         2
       986             1092      1095      1096      1091         2
       987             1091      1096      1093      1090         2
       988             1074      1069      1070      1095         2
       989             1095      1070      1071      1096         2
       990             1096      1071      1072      1093         2
       991             1005      1097      1098      1006         2
       992             1006      1098      1055      1007         2
       993             1097      1090      1089      1098         2
       994             1098      1089      1054      1055         2
       995             1002      1076      1099      1003         2
       996             1003      1099      1100      1004         2
       997             1004      1100      1097      1005         2
       998             1076      1075      1092      1099         2
       999             1099      1092      1091      1100         2
      1000             1100      1091      1090      1097         2
      1001             1105      1108      1109      1104         2
      1002             1104      1109      1101      1102         2
      1003             1108      1058      1059      1109         2
      1004             1109      1059      1060      1101         2
      1005              849       848      1110      1107         2
      1006             1107      1110      1111      1106         2
      1007             1106      1111      1108      1105         2
      1008              848       847      1056      1110         2
      1009             1110      1056      1057      1111         2
      1010             1111      1057      1058      1108         2
      1011             1067      1112      1113      1068         2
      1012             1068      1113      1103      1069         2
      1013             1112      1105      1104      1113         2
      1014             1113      1104      1102      1103         2
      1015              851       850      1114      1065         2
      1016             1065      1114      1115      1066         2
      1017             1066      1115      1112      1067         2
      1018              850       849      1107      1114         2
      1019             1114      1107      1106      1115         2
      1020             1115      1106      1105      1112         2
      1021             1117      1120      1121      1116         2
      1022             1116      1121      1049      1050         2
      1023             1120      1063      1064      1121         2
      1024             1121      1064      1048      1049         2
      1025             1102      1101      1122      1119         2
      1026             1119      1122      1123      1118         2
      1027             1118      1123      1120      1117         2
      1028             1101      1060      1061      1122         2
      1029             1122      1061      1062      1123         2
      1030             1123      1062      1063      1120         2
      1031             1072      1124      1125      1073         2
      1032             1073      1125      1051      1052         2
      1033             1124      1117      1116      1125         2
      1034             1125      1116      1050      1051         2
      1035             1069      1103      1126      1070         2
      1036             1070      1126      1127      1071         2
      1037             1071      1127      1124      1072         2
      1038             1103      1102      1119      1126         2
      1039             1126      1119      1118      1127         2
      1040             1127      1118      1117      1124         2
      1041             1160      1161      1156      1157         2
      1042             1161      1134      1135      1156         2
      1043             1131      1132      1161      1160         2
      1044             1132      1133      1134      1161         2
      1045             1151      1162      1159      1150         2
      1046             1162      1163      1158      1159         2
      1047             1163      1160      1157      1158         2
      1048             1128      1129      1162      1151         2
      1049             1129      1130      1163      1162         2
      1050             1130      1131      1160      1163         2
      1051             1164      1166      1152      1153         2
      1052             1166      1137      1138      1152         2
      1053             1165      1167      1166      1164         2
      1054             1167      1136      1137      1166         2
      1055             1157      1156      1167      1165         2
      1056             1156      1135      1136      1167         2
      1057             1148      1168      1155      1147         2
      1058             1168      1169      1154      1155         2
      1059             1169      1164      1153      1154         2
      1060             1150      1159      1170      1149         2
      1061             1149      1170      1168      1148         2
      1062             1165      1171      1158      1157         2
      1063             1171      1170      1159      1158         2
      1064             1164      1169      1171      1165         2
      1065             1169      1168      1170      1171         2
      1066             1176      1177      1172      1173         2
      1067             1177      1139      1140      1172         2
      1068             1153      1152      1177      1176         2
      1069             1152      1138      1139      1177         2
      1070             1173      1174      1178      1176         2
      1071             1176      1178      1154      1153         2
      1072             1146      1179      1175      1145         2
      1073             1179      1178      1174      1175         2
      1074             1147      1155      1179      1146         2
      1075             1155      1154      1178      1179         2
      1076             1180      1182      1011      1010         2
      1077             1182      1142       988      1011         2
      1078             1181      1183      1182      1180         2
      1079             1183      1141      1142      1182         2
      1080             1173      1172      1183      1181         2
      1081             1172      1140      1141      1183         2
      1082             1143      1184      1008      1007         2
      1083             1184      1185      1009      1008         2
      1084             1185      1180      1010      1009         2
      1085             1145      1175      1186      1144         2
      1086             1144      1186      1184      1143         2
      1087             1181      1187      1174      1173         2
      1088             1187      1186      1175      1174         2
      1089             1180      1185      1187      1181         2
      1090             1185      1184      1186      1187         2
      1091             1219      1220      1216      1217         2
      1092             1220      1212      1213      1216         2
      1093             1206      1207      1220      1219         2
      1094             1207      1208      1212      1220         2
      1095             1148      1221      1218      1149         2
      1096             1221      1219      1217      1218         2
      1097             1147      1205      1221      1148         2
      1098             1205      1206      1219      1221         2
      1099             1222      1224      1193      1194         2
      1100             1224      1215      1192      1193         2
      1101             1223      1225      1224      1222         2
      1102             1225      1214      1215      1224         2
      1103             1217      1216      1225      1223         2
      1104             1216      1213      1214      1225         2
      1105             1151      1226      1195      1128         2
      1106             1226      1222      1194      1195         2
      1107             1150      1227      1226      1151         2
      1108             1227      1223      1222      1226         2
      1109             1149      1218      1227      1150         2
      1110             1218      1217      1223      1227         2
      1111             1231      1232      1228      1229         2
      1112             1232      1201      1202      1228         2
      1113             1210      1211      1232      1231         2
      1114             1211      1200      1201      1232         2
      1115             1212      1233      1230      1213         2
      1116             1233      1231      1229      1230         2
      1117             1208      1209      1233      1212         2
      1118             1209      1210      1231      1233         2
      1119             1234      1236      1189      1190         2
      1120             1236      1204      1188      1189         2
      1121             1235      1237      1236      1234         2
      1122             1237      1203      1204      1236         2
      1123             1229      1228      1237      1235         2
      1124             1228      1202      1203      1237         2
      1125             1215      1238      1191      1192         2
      1126             1238      1234      1190      1191         2
      1127             1214      1239      1238      1215         2
      1128             1239      1235      1234      1238         2
      1129             1213      1230      1239      1214         2
      1130             1230      1229      1235      1239         2
      1131             1247      1248      1244      1245         2
      1132             1248      1240      1241      1244         2
      1133             1054      1053      1248      1247         2
      1134             1053      1052      1240      1248         2
      1135             1143      1249      1246      1144         2
      1136             1249      1247      1245      1246         2
      1137             1007      1055      1249      1143         2
      1138             1055      1054      1247      1249         2
      1139             1250      1252      1207      1206         2
      1140             1252      1243      1208      1207         2
      1141             1251      1253      1252      1250         2
      1142             1253      1242      1243      1252         2
      1143             1245      1244      1253      1251         2
      1144             1244      1241      1242      1253         2
      1145             1146      1254      1205      1147         2
      1146             1254      1250      1206      1205         2
      1147             1145      1255      1254      1146         2
      1148             1255      1251      1250      1254         2
      1149             1144      1246      1255      1145         2
      1150             1246      1245      1251      1255         2
      1151             1259      1260      1256      1257         2
      1152             1260      1196      1197      1256         2
      1153             1050      1049      1260      1259         2
      1154             1049      1048      1196      1260         2
      1155             1240      1261      1258      1241         2
      1156             1261      1259      1257      1258         2
      1157             1052      1051      1261      1240         2
      1158             1051      1050      1259      1261         2
      1159             1262      1264      1211      1210         2
      1160             1264      1199      1200      1211         2
      1161             1263      1265      1264      1262         2
      1162             1265      1198      1199      1264         2
      1163             1257      1256      1265      1263         2
      1164             1256      1197      1198      1265         2
      1165             1243      1266      1209      1208         2
      1166             1266      1262      1210      1209         2
      1167             1242      1267      1266      1243         2
      1168             1267      1263      1262      1266         2
      1169             1241      1258      1267      1242         2
      1170             1258      1257      1263      1267         2
      1171               88        87       728       737         3
      1172              737       728       729       736         3
      1173              736       729       730       735         3
      1174              735       730       731       734         3
      1175              734       731       732       733         3
      1176             1269      1268        85        86         4
      1177             1270      1269        86        87         5
      1178             1271      1270        87        88         6
      1179             1272      1271        88        89         7
      1180             1273      1272        89        90         8
      1181             1274      1273        90        91         9
      1182             1275      1274        91        92        10
      1183             1276      1275        92        93        11
      1184             1277      1276        93        94        12
      1185             1278      1277        94        95        13
      1186             1279      1278        95        96        14
      1187             1280      1279        96        97        15
      1188             1281      1280        97        98        16
      1189             1282      1281        98        99        17
      1190             1283      1282        99       100        18
      1191             1284      1283       100       101        19
      1192             1285      1284       101       102        20
      1193             1286      1285       102       103        21
      1194             1287      1286       103       104        22
      1195             1288      1287       104       105        23
