         1       430       427       407       418         1
         2       441       437       427       430         1
         3       451       446       437       441         1
         4       458       455       446       451         1
         5       461       460       455       458         1
         6       427       420       393       407         1
         7       437       431       420       427         1
         8       446       442       431       437         1
         9       455       453       442       446         1
        10       460       459       453       455         1
        11       420       410       376       393         1
        12       431       428       410       420         1
        13       442       439       428       431         1
        14       453       450       439       442         1
        15       459       457       450       453         1
        16       410       400       360       376         1
        17       428       425       400       410         1
        18       439       436       425       428         1
        19       450       447       436       439         1
        20       457       456       447       450         1
        21       400       386       341       360         1
        22       425       416       386       400         1
        23       436       432       416       425         1
        24       447       443       432       436         1
        25       456       454       443       447         1
        26       452       440       443       454         1
        27       449       438       440       452         1
        28       448       435       438       449         1
        29       445       434       435       448         1
        30       444       433       434       445         1
        31       440       429       432       443         1
        32       438       426       429       440         1
        33       435       423       426       438         1
        34       434       419       423       435         1
        35       433       417       419       434         1
        36       429       408       416       432         1
        37       426       399       408       429         1
        38       423       391       399       426         1
        39       419       384       391       423         1
        40       417       381       384       419         1
        41       408       371       386       416         1
        42       399       353       371       408         1
        43       391       340       353       399         1
        44       384       332       340       391         1
        45       381       329       332       384         1
        46       371       316       341       386         1
        47       353       292       316       371         1
        48       340       272       292       353         1
        49       332       263       272       340         1
        50       329       258       263       332         1
        51       170       176       172       167         1
        52       183       189       176       170         1
        53       201       204       189       183         1
        54       224       230       204       201         1
        55       259       264       230       224         1
        56       110       122       118       107         1
        57       120       131       122       110         1
        58       137       147       131       120         1
        59       162       174       147       137         1
        60       195       205       174       162         1
        61       122       136       128       118         1
        62       131       144       136       122         1
        63       147       160       144       131         1
        64       174       187       160       147         1
        65       205       220       187       174         1
        66       136       145       141       128         1
        67       144       155       145       136         1
        68       160       173       155       144         1
        69       187       199       173       160         1
        70       220       231       199       187         1
        71       145       158       154       141         1
        72       155       169       158       145         1
        73       173       188       169       155         1
        74       199       213       188       173         1
        75       231       244       213       199         1
        76       158       170       167       154         1
        77       169       183       170       158         1
        78       188       201       183       169         1
        79       213       224       201       188         1
        80       244       259       224       213         1
        81       105       110       107       103         1
        82       117       120       110       105         1
        83       135       137       120       117         1
        84       157       162       137       135         1
        85       191       195       162       157         1
        86       100       105       103        97         1
        87       113       117       105       100         1
        88       126       135       117       113         1
        89       152       157       135       126         1
        90       185       191       157       152         1
        91        60        67        64        56         1
        92        69        74        67        60         1
        93        82        89        74        69         1
        94       101       112        89        82         1
        95       134       143       112       101         1
        96        67        73        71        64         1
        97        74        84        73        67         1
        98        89        95        84        74         1
        99       112       121        95        89         1
       100       143       151       121       112         1
       101        73        83        79        71         1
       102        84        91        83        73         1
       103        95       108        91        84         1
       104       121       130       108        95         1
       105       151       163       130       121         1
       106        83        92        88        79         1
       107        91        99        92        83         1
       108       108       119        99        91         1
       109       130       142       119       108         1
       110       163       175       142       130         1
       111        92       100        97        88         1
       112        99       113       100        92         1
       113       119       126       113        99         1
       114       142       152       126       119         1
       115       175       185       152       142         1
       116        54        60        56        52         1
       117        65        69        60        54         1
       118        76        82        69        65         1
       119        98       101        82        76         1
       120       127       134       101        98         1
       121        51        54        52        49         1
       122        63        65        54        51         1
       123        75        76        65        63         1
       124        94        98        76        75         1
       125       125       127        98        94         1
       126        27        30        29        25         1
       127        31        35        30        27         1
       128        42        47        35        31         1
       129        58        66        47        42         1
       130        86        90        66        58         1
       131        30        34        33        29         1
       132        35        41        34        30         1
       133        47        50        41        35         1
       134        66        72        50        47         1
       135        90        96        72        66         1
       136        34        40        38        33         1
       137        41        48        40        34         1
       138        50        62        48        41         1
       139        72        78        62        50         1
       140        96       106        78        72         1
       141        40        46        44        38         1
       142        48        53        46        40         1
       143        62        70        53        48         1
       144        78        87        70        62         1
       145       106       116        87        78         1
       146        46        51        49        44         1
       147        53        63        51        46         1
       148        70        75        63        53         1
       149        87        94        75        70         1
       150       116       125        94        87         1
       151        17        18        27        25         1
       152        11        13        18        17         1
       153         6         8        13        11         1
       154         3         4         8         6         1
       155         1         2         4         3         1
       156        18        21        31        27         1
       157        13        14        21        18         1
       158         8         9        14        13         1
       159         4         7         9         8         1
       160         2         5         7         4         1
       161        21        23        42        31         1
       162        14        20        23        21         1
       163         9        15        20        14         1
       164         7        12        15         9         1
       165         5        10        12         7         1
       166        23        36        58        42         1
       167        20        26        36        23         1
       168        15        22        26        20         1
       169        12        19        22        15         1
       170        10        16        19        12         1
       171        36        57        86        58         1
       172        26        43        57        36         1
       173        22        32        43        26         1
       174        19        28        32        22         1
       175        16        24        28        19         1
       176       150       115       111       146         1
       177       161       124       115       150         1
       178       180       140       124       161         1
       179       203       165       140       180         1
       180       235       198       165       203         1
       181       115        85        80       111         1
       182       124        93        85       115         1
       183       140       109        93       124         1
       184       165       132       109       140         1
       185       198       164       132       165         1
       186        85        61        55        80         1
       187        93        68        61        85         1
       188       109        81        68        93         1
       189       132       102        81       109         1
       190       164       133       102       132         1
       191        61        39        37        55         1
       192        68        45        39        61         1
       193        81        59        45        68         1
       194       102        77        59        81         1
       195       133       104        77       102         1
       196        39        28        24        37         1
       197        45        32        28        39         1
       198        59        43        32        45         1
       199        77        57        43        59         1
       200       104        86        57        77         1
       201       284       291       264       259         1
       202       312       318       291       284         1
       203       338       342       318       312         1
       204       364       365       342       338         1
       205       383       387       365       364         1
       206       221       232       205       195         1
       207       248       262       232       221         1
       208       281       294       262       248         1
       209       317       325       294       281         1
       210       347       356       325       317         1
       211       232       242       220       205         1
       212       262       274       242       232         1
       213       294       306       274       262         1
       214       325       335       306       294         1
       215       356       363       335       325         1
       216       242       257       231       220         1
       217       274       289       257       242         1
       218       306       319       289       274         1
       219       335       344       319       306         1
       220       363       372       344       335         1
       221       257       271       244       231         1
       222       289       302       271       257         1
       223       319       327       302       289         1
       224       344       355       327       319         1
       225       372       377       355       344         1
       226       271       284       259       244         1
       227       302       312       284       271         1
       228       327       338       312       302         1
       229       355       364       338       327         1
       230       377       383       364       355         1
       231       216       221       195       191         1
       232       241       248       221       216         1
       233       280       281       248       241         1
       234       310       317       281       280         1
       235       343       347       317       310         1
       236       212       216       191       185         1
       237       238       241       216       212         1
       238       273       280       241       238         1
       239       307       310       280       273         1
       240       339       343       310       307         1
       241       156       166       143       134         1
       242       186       196       166       156         1
       243       219       228       196       186         1
       244       252       265       228       219         1
       245       293       303       265       252         1
       246       166       177       151       143         1
       247       196       206       177       166         1
       248       228       236       206       196         1
       249       265       276       236       228         1
       250       303       314       276       265         1
       251       177       190       163       151         1
       252       206       218       190       177         1
       253       236       249       218       206         1
       254       276       287       249       236         1
       255       314       323       287       276         1
       256       190       200       175       163         1
       257       218       229       200       190         1
       258       249       261       229       218         1
       259       287       298       261       249         1
       260       323       331       298       287         1
       261       200       212       185       175         1
       262       229       238       212       200         1
       263       261       273       238       229         1
       264       298       307       273       261         1
       265       331       339       307       298         1
       266       153       156       134       127         1
       267       184       186       156       153         1
       268       215       219       186       184         1
       269       250       252       219       215         1
       270       290       293       252       250         1
       271       149       153       127       125         1
       272       179       184       153       149         1
       273       211       215       184       179         1
       274       245       250       215       211         1
       275       286       290       250       245         1
       276       104       114        90        86         1
       277       133       139       114       104         1
       278       164       171       139       133         1
       279       198       207       171       164         1
       280       235       246       207       198         1
       281       114       123        96        90         1
       282       139       148       123       114         1
       283       171       181       148       139         1
       284       207       217       181       171         1
       285       246       253       217       207         1
       286       123       129       106        96         1
       287       148       159       129       123         1
       288       181       192       159       148         1
       289       217       226       192       181         1
       290       253       266       226       217         1
       291       129       138       116       106         1
       292       159       168       138       129         1
       293       192       202       168       159         1
       294       226       233       202       192         1
       295       266       277       233       226         1
       296       138       149       125       116         1
       297       168       179       149       138         1
       298       202       211       179       168         1
       299       233       245       211       202         1
       300       277       286       245       233         1
       301       182       197       194       178         1
       302       193       208       197       182         1
       303       210       225       208       193         1
       304       234       251       225       210         1
       305       270       283       251       234         1
       306       197       214       209       194         1
       307       208       222       214       197         1
       308       225       240       222       208         1
       309       251       268       240       225         1
       310       283       301       268       251         1
       311       214       227       223       209         1
       312       222       237       227       214         1
       313       240       256       237       222         1
       314       268       282       256       240         1
       315       301       315       282       268         1
       316       227       243       239       223         1
       317       237       254       243       227         1
       318       256       275       254       237         1
       319       282       300       275       256         1
       320       315       326       300       282         1
       321       243       263       258       239         1
       322       254       272       263       243         1
       323       275       292       272       254         1
       324       300       316       292       275         1
       325       326       341       316       300         1
       326       176       182       178       172         1
       327       189       193       182       176         1
       328       204       210       193       189         1
       329       230       234       210       204         1
       330       264       270       234       230         1
       331       295       309       283       270         1
       332       322       333       309       295         1
       333       348       358       333       322         1
       334       370       378       358       348         1
       335       390       397       378       370         1
       336       309       324       301       283         1
       337       333       345       324       309         1
       338       358       366       345       333         1
       339       378       385       366       358         1
       340       397       404       385       378         1
       341       324       334       315       301         1
       342       345       357       334       324         1
       343       366       374       357       345         1
       344       385       394       374       366         1
       345       404       409       394       385         1
       346       334       350       326       315         1
       347       357       367       350       334         1
       348       374       382       367       357         1
       349       394       402       382       374         1
       350       409       413       402       394         1
       351       350       360       341       326         1
       352       367       376       360       350         1
       353       382       393       376       367         1
       354       402       407       393       382         1
       355       413       418       407       402         1
       356       291       295       270       264         1
       357       318       322       295       291         1
       358       342       348       322       318         1
       359       365       370       348       342         1
       360       387       390       370       365         1
       361       269       255       247       260         2
       362       279       267       255       269         2
       363       288       278       267       279         2
       364       297       285       278       288         2
       365       305       296       285       297         2
       366       255       246       235       247         2
       367       267       253       246       255         2
       368       278       266       253       267         2
       369       285       277       266       278         2
       370       296       286       277       285         2
       371       405       403       396       401         2
       372       411       406       403       405         2
       373       414       412       406       411         2
       374       421       415       412       414         2
       375       424       422       415       421         2
       376       403       397       390       396         2
       377       406       404       397       403         2
       378       412       409       404       406         2
       379       415       413       409       412         2
       380       422       418       413       415         2
       381       392       396       390       387         2
       382       398       401       396       392         2
       383       389       392       387       383         2
       384       395       398       392       389         2
       385       368       362       352       361         2
       386       373       369       362       368         2
       387       379       375       369       373         2
       388       388       380       375       379         2
       389       395       389       380       388         2
       390       362       356       347       352         2
       391       369       363       356       362         2
       392       375       372       363       369         2
       393       380       377       372       375         2
       394       389       383       377       380         2
       395       351       352       347       343         2
       396       359       361       352       351         2
       397       349       351       343       339         2
       398       354       359       351       349         2
       399       320       311       304       313         2
       400       328       321       311       320         2
       401       336       330       321       328         2
       402       346       337       330       336         2
       403       354       349       337       346         2
       404       311       303       293       304         2
       405       321       314       303       311         2
       406       330       323       314       321         2
       407       337       331       323       330         2
       408       349       339       331       337         2
       409       299       304       293       290         2
       410       308       313       304       299         2
       411       296       299       290       286         2
       412       305       308       299       296         2
       413       462       463         3
       414       463       465         3
       415       465       468         3
       416       468       472         3
       417       472       476         3
       418       464       466         3
       419       466       467         3
       420       467       469         3
       421       469       474         3
       422       474       477         3
       423       470       471         3
       424       471       473         3
       425       473       475         3
       426       475       478         3
       427       478       479         3
