<?xml version="1.0" ?>
<VTKFile type="UnstructuredGrid" version="1.0" byte_order="LittleEndian">
  <UnstructuredGrid>
    <Piece NumberOfPoints="27" NumberOfCells="8">
      <Points>
        <DataArray type="Float64" NumberOfComponents="3" format="ascii">0.0 0.0 0.0
5.0 0.0 0.0
10.0 0.0 0.0
0.0 5.0 0.0
5.0 5.0 0.0
10.0 5.0 0.0
0.0 10.0 0.0
5.0 10.0 0.0
10.0 10.0 0.0
0.0 0.0 5.0
5.0 0.0 5.0
10.0 0.0 5.0
0.0 5.0 5.0
5.0 5.0 5.0
10.0 5.0 5.0
0.0 10.0 5.0
5.0 10.0 5.0
10.0 10.0 5.0
0.0 0.0 10.0
5.0 0.0 10.0
10.0 0.0 10.0
0.0 5.0 10.0
5.0 5.0 10.0
10.0 5.0 10.0
0.0 10.0 10.0
5.0 10.0 10.0
10.0 10.0 10.0</DataArray>
      </Points>
      <Cells>
        <DataArray type="Int32" Name="connectivity" format="ascii">0 1 4 3 9 10 13 12
1 2 5 4 10 11 14 13
3 4 7 6 12 13 16 15
4 5 8 7 13 14 17 16
9 10 13 12 18 19 22 21
10 11 14 13 19 20 23 22
12 13 16 15 21 22 25 24
13 14 17 16 22 23 26 25</DataArray>
        <DataArray type="Int32" Name="offsets" format="ascii">8 16 24 32 40 48 56 64</DataArray>
        <DataArray type="UInt8" Name="types" format="ascii">12 12 12 12 12 12 12 12</DataArray>
      </Cells>
      <CellData>
        <DataArray type="Int32" Name="GroupID" format="ascii">1 1 1 1 1 1 1 1</DataArray>
      </CellData>
      <PointData>
        <DataArray type="Float64" Name="Displacement" NumberOfComponents="3" format="ascii">0.0 0.0 0.0
0.001 0.0 0.0
0.002 0.0 0.0
-1.6627797e-19 0.001 0.0
0.001 0.001 0.0
0.002 0.001 0.0
-2.387372e-19 0.002 0.0
0.001 0.002 0.0
0.002 0.002 0.0
1.6373259e-19 -6.5326251e-20 -0.005
0.001 1.3772739e-19 -0.005
0.002 4.4955895e-19 -0.005
-1.4581976e-19 0.001 -0.005
0.001 0.001 -0.005
0.002 0.001 -0.005
-3.3975851e-19 0.002 -0.005
0.001 0.002 -0.005
0.002 0.002 -0.005
-6.8222095e-20 3.631489e-19 -0.01
0.001 4.3765794e-19 -0.01
0.002 4.8773072e-19 -0.01
-1.7918733e-19 0.001 -0.01
0.001 0.001 -0.01
0.002 0.001 -0.01
-9.470133e-19 0.002 -0.01
0.001 0.002 -0.01
0.002 0.002 -0.01</DataArray>
        <DataArray type="Float64" Name="DisplacementMag" format="ascii">0.0
0.001
0.002
0.001
0.001414213562373095
0.0022360679774997894
0.002
0.0022360679774997894
0.00282842712474619
0.005
0.005099019513592785
0.005385164807134504
0.005099019513592785
0.005196152422706632
0.005477225575051661
0.005385164807134504
0.005477225575051661
0.005744562646538029
0.01
0.01004987562112089
0.01019803902718557
0.01004987562112089
0.010099504938362078
0.010246950765959599
0.01019803902718557
0.010246950765959599
0.010392304845413263</DataArray>
        <DataArray type="Float64" Name="Stress" NumberOfComponents="6" format="ascii">9.3132257e-10 -9.3132257e-10 -25000000.0 -2.8234432e-10 -2.8234432e-10 1.4117216e-10
0.0 -9.3132257e-10 -25000000.0 -2.205815e-10 7.0586079e-11 -3.5293039e-11
9.3132257e-10 1.8626451e-09 -25000000.0 2.646978e-10 2.1175824e-10 3.5293039e-10
1.3969839e-09 -9.3132257e-10 -25000000.0 3.5293039e-11 -1.4117216e-10 -7.0586079e-11
1.1641532e-09 2.3283064e-10 -25000000.0 1.5881868e-10 4.7645603e-10 -1.4117216e-10
4.6566129e-10 4.6566129e-10 -25000000.0 2.4705128e-10 1.0587912e-10 -7.0586079e-11
-9.3132257e-10 -1.8626451e-09 -25000000.0 0.0 5.6468863e-10 0.0
-9.3132257e-10 9.3132257e-10 -25000000.0 7.0586079e-11 8.4703295e-10 0.0
-1.8626451e-09 9.3132257e-10 -25000000.0 0.0 2.1175824e-10 -2.8234432e-10
-1.3969839e-09 -4.6566129e-10 -25000000.0 -2.646978e-11 -5.6468863e-10 2.1175824e-10
-2.3283064e-10 0.0 -25000000.0 3.9263506e-10 -6.7056775e-10 1.764652e-10
1.3969839e-09 1.3969839e-09 -25000000.0 1.8528846e-10 -1.9058241e-09 7.7644687e-10
4.6566129e-10 0.0 -25000000.0 3.1763736e-10 -7.0586079e-10 -3.5293039e-11
2.3283064e-10 3.4924597e-10 -25000000.0 3.838118e-10 -1.4117216e-10 -1.0587912e-10
0.0 6.9849193e-10 -25000000.0 1.5881868e-10 -1.1293773e-09 -2.4705128e-10
1.3969839e-09 4.6566129e-10 -25000000.0 0.0 0.0 2.8234432e-10
0.0 6.9849193e-10 -25000000.0 2.8234432e-10 4.2351647e-10 -4.2351647e-10
-1.3969839e-09 0.0 -25000000.0 -8.4703295e-10 -1.0587912e-09 -1.4117216e-09
-1.8626451e-09 -1.8626451e-09 -25000000.0 7.0586079e-11 2.2587545e-09 -5.6468863e-10
-1.3969839e-09 -4.6566129e-10 -25000000.0 1.764652e-10 5.6468863e-10 5.6468863e-10
-1.8626451e-09 0.0 -25000000.0 6.3527471e-10 1.1293773e-09 1.6940659e-09
-4.6566129e-10 -1.8626451e-09 -25000000.0 -1.4117216e-10 0.0 -5.6468863e-10
0.0 -4.6566129e-10 -25000000.0 3.8822343e-10 2.8234432e-10 2.8234432e-10
1.3969839e-09 9.3132257e-10 -25000000.0 1.4117216e-10 -5.6468863e-10 -1.4117216e-09
2.7939677e-09 0.0 -25000000.0 -5.6468863e-10 0.0 0.0
4.6566129e-10 4.6566129e-10 -25000000.0 0.0 -2.8234432e-10 0.0
-9.3132257e-10 0.0 -25000000.0 -1.1293773e-09 -5.6468863e-10 -2.2587545e-09</DataArray>
      </PointData>
    </Piece>
  </UnstructuredGrid>
</VTKFile>
