1   31    30    36    34    235    238    237    236    1
2   235    238    237    236    239    242    241    240    1
3   239    242    241    240    243    246    245    244    1
4   243    246    245    244    247    250    249    248    1
5   247    250    249    248    251    254    253    252    1
6   251    254    253    252    255    139    138    256    1
7   30    29    37    36    238    141    140    237    1
8   238    141    140    237    242    143    142    241    1
9   242    143    142    241    246    145    144    245    1
10   246    145    144    245    250    147    146    249    1
11   250    147    146    249    254    149    148    253    1
12   254    149    148    253    139    151    150    138    1
13   29    20    19    37    141    153    152    140    1
14   141    153    152    140    143    155    154    142    1
15   143    155    154    142    145    157    156    144    1
16   145    157    156    144    147    159    158    146    1
17   147    159    158    146    149    161    160    148    1
18   149    161    160    148    151    163    162    150    1
19   34    36    38    35    236    237    165    164    1
20   236    237    165    164    240    241    167    166    1
21   240    241    167    166    244    245    169    168    1
22   244    245    169    168    248    249    171    170    1
23   248    249    171    170    252    253    173    172    1
24   252    253    173    172    256    138    175    174    1
25   36    37    39    38    237    140    176    165    1
26   237    140    176    165    241    142    257    167    1
27   241    142    257    167    245    144    258    169    1
28   245    144    258    169    249    146    259    171    1
29   249    146    259    171    253    148    260    173    1
30   253    148    260    173    138    150    261    175    1
31   37    19    18    39    140    152    262    176    1
32   140    152    262    176    142    154    263    257    1
33   142    154    263    257    144    156    264    258    1
34   144    156    264    258    146    158    265    259    1
35   146    158    265    259    148    160    266    260    1
36   148    160    266    260    150    162    267    261    1
37   35    38    15    14    164    165    269    268    1
38   164    165    269    268    166    167    271    270    1
39   166    167    271    270    168    169    273    272    1
40   168    169    273    272    170    171    275    274    1
41   170    171    275    274    172    173    277    276    1
42   172    173    277    276    174    175    279    278    1
43   38    39    16    15    165    176    280    269    1
44   165    176    280    269    167    257    281    271    1
45   167    257    281    271    169    258    282    273    1
46   169    258    282    273    171    259    283    275    1
47   171    259    283    275    173    260    284    277    1
48   173    260    284    277    175    261    285    279    1
49   39    18    17    16    176    262    286    280    1
50   176    262    286    280    257    263    287    281    1
51   257    263    287    281    258    264    288    282    1
52   258    264    288    282    259    265    289    283    1
53   259    265    289    283    260    266    290    284    1
54   260    266    290    284    261    267    291    285    1
55   8    33    40    9    292    295    294    293    1
56   292    295    294    293    296    299    298    297    1
57   296    299    298    297    300    303    302    301    1
58   300    303    302    301    304    307    306    305    1
59   304    307    306    305    308    311    310    309    1
60   308    311    310    309    312    315    314    313    1
61   33    32    41    40    295    317    316    294    1
62   295    317    316    294    299    319    318    298    1
63   299    319    318    298    303    321    320    302    1
64   303    321    320    302    307    323    322    306    1
65   307    323    322    306    311    325    324    310    1
66   311    325    324    310    315    327    326    314    1
67   32    31    34    41    317    235    236    316    1
68   317    235    236    316    319    239    240    318    1
69   319    239    240    318    321    243    244    320    1
70   321    243    244    320    323    247    248    322    1
71   323    247    248    322    325    251    252    324    1
72   325    251    252    324    327    255    256    326    1
73   9    40    42    10    293    294    329    328    1
74   293    294    329    328    297    298    331    330    1
75   297    298    331    330    301    302    333    332    1
76   301    302    333    332    305    306    335    334    1
77   305    306    335    334    309    310    337    336    1
78   309    310    337    336    313    314    339    338    1
79   40    41    43    42    294    316    340    329    1
80   294    316    340    329    298    318    341    331    1
81   298    318    341    331    302    320    342    333    1
82   302    320    342    333    306    322    343    335    1
83   306    322    343    335    310    324    344    337    1
84   310    324    344    337    314    326    345    339    1
85   41    34    35    43    316    236    164    340    1
86   316    236    164    340    318    240    166    341    1
87   318    240    166    341    320    244    168    342    1
88   320    244    168    342    322    248    170    343    1
89   322    248    170    343    324    252    172    344    1
90   324    252    172    344    326    256    174    345    1
91   10    42    12    11    328    329    347    346    1
92   328    329    347    346    330    331    349    348    1
93   330    331    349    348    332    333    351    350    1
94   332    333    351    350    334    335    353    352    1
95   334    335    353    352    336    337    355    354    1
96   336    337    355    354    338    339    357    356    1
97   42    43    13    12    329    340    358    347    1
98   329    340    358    347    331    341    359    349    1
99   331    341    359    349    333    342    360    351    1
100   333    342    360    351    335    343    361    353    1
101   335    343    361    353    337    344    362    355    1
102   337    344    362    355    339    345    363    357    1
103   43    35    14    13    340    164    268    358    1
104   340    164    268    358    341    166    270    359    1
105   341    166    270    359    342    168    272    360    1
106   342    168    272    360    343    170    274    361    1
107   343    170    274    361    344    172    276    362    1
108   344    172    276    362    345    174    278    363    1
109   26    25    46    44    364    367    366    365    1
110   364    367    366    365    368    371    370    369    1
111   368    371    370    369    372    375    374    373    1
112   372    375    374    373    376    379    378    377    1
113   376    379    378    377    380    383    382    381    1
114   380    383    382    381    384    387    386    385    1
115   25    24    47    46    367    389    388    366    1
116   367    389    388    366    371    391    390    370    1
117   371    391    390    370    375    393    392    374    1
118   375    393    392    374    379    395    394    378    1
119   379    395    394    378    383    397    396    382    1
120   383    397    396    382    387    399    398    386    1
121   24    23    22    47    389    401    400    388    1
122   389    401    400    388    391    403    402    390    1
123   391    403    402    390    393    405    404    392    1
124   393    405    404    392    395    407    406    394    1
125   395    407    406    394    397    409    408    396    1
126   397    409    408    396    399    411    410    398    1
127   44    46    48    45    365    366    413    412    1
128   365    366    413    412    369    370    415    414    1
129   369    370    415    414    373    374    417    416    1
130   373    374    417    416    377    378    419    418    1
131   377    378    419    418    381    382    421    420    1
132   381    382    421    420    385    386    423    422    1
133   46    47    49    48    366    388    424    413    1
134   366    388    424    413    370    390    425    415    1
135   370    390    425    415    374    392    426    417    1
136   374    392    426    417    378    394    427    419    1
137   378    394    427    419    382    396    428    421    1
138   382    396    428    421    386    398    429    423    1
139   47    22    21    49    388    400    430    424    1
140   388    400    430    424    390    402    431    425    1
141   390    402    431    425    392    404    432    426    1
142   392    404    432    426    394    406    433    427    1
143   394    406    433    427    396    408    434    428    1
144   396    408    434    428    398    410    435    429    1
145   45    48    30    31    412    413    238    235    1
146   412    413    238    235    414    415    242    239    1
147   414    415    242    239    416    417    246    243    1
148   416    417    246    243    418    419    250    247    1
149   418    419    250    247    420    421    254    251    1
150   420    421    254    251    422    423    139    255    1
151   48    49    29    30    413    424    141    238    1
152   413    424    141    238    415    425    143    242    1
153   415    425    143    242    417    426    145    246    1
154   417    426    145    246    419    427    147    250    1
155   419    427    147    250    421    428    149    254    1
156   421    428    149    254    423    429    151    139    1
157   49    21    20    29    424    430    153    141    1
158   424    430    153    141    425    431    155    143    1
159   425    431    155    143    426    432    157    145    1
160   426    432    157    145    427    433    159    147    1
161   427    433    159    147    428    434    161    149    1
162   428    434    161    149    429    435    163    151    1
163   5    28    50    6    436    439    438    437    1
164   436    439    438    437    440    443    442    441    1
165   440    443    442    441    444    447    446    445    1
166   444    447    446    445    448    451    450    449    1
167   448    451    450    449    452    455    454    453    1
168   452    455    454    453    456    459    458    457    1
169   28    27    51    50    439    461    460    438    1
170   439    461    460    438    443    463    462    442    1
171   443    463    462    442    447    465    464    446    1
172   447    465    464    446    451    467    466    450    1
173   451    467    466    450    455    469    468    454    1
174   455    469    468    454    459    471    470    458    1
175   27    26    44    51    461    364    365    460    1
176   461    364    365    460    463    368    369    462    1
177   463    368    369    462    465    372    373    464    1
178   465    372    373    464    467    376    377    466    1
179   467    376    377    466    469    380    381    468    1
180   469    380    381    468    471    384    385    470    1
181   6    50    52    7    437    438    473    472    1
182   437    438    473    472    441    442    475    474    1
183   441    442    475    474    445    446    477    476    1
184   445    446    477    476    449    450    479    478    1
185   449    450    479    478    453    454    481    480    1
186   453    454    481    480    457    458    483    482    1
187   50    51    53    52    438    460    484    473    1
188   438    460    484    473    442    462    485    475    1
189   442    462    485    475    446    464    486    477    1
190   446    464    486    477    450    466    487    479    1
191   450    466    487    479    454    468    488    481    1
192   454    468    488    481    458    470    489    483    1
193   51    44    45    53    460    365    412    484    1
194   460    365    412    484    462    369    414    485    1
195   462    369    414    485    464    373    416    486    1
196   464    373    416    486    466    377    418    487    1
197   466    377    418    487    468    381    420    488    1
198   468    381    420    488    470    385    422    489    1
199   7    52    33    8    472    473    295    292    1
200   472    473    295    292    474    475    299    296    1
201   474    475    299    296    476    477    303    300    1
202   476    477    303    300    478    479    307    304    1
203   478    479    307    304    480    481    311    308    1
204   480    481    311    308    482    483    315    312    1
205   52    53    32    33    473    484    317    295    1
206   473    484    317    295    475    485    319    299    1
207   475    485    319    299    477    486    321    303    1
208   477    486    321    303    479    487    323    307    1
209   479    487    323    307    481    488    325    311    1
210   481    488    325    311    483    489    327    315    1
211   53    45    31    32    484    412    235    317    1
212   484    412    235    317    485    414    239    319    1
213   485    414    239    319    486    416    243    321    1
214   486    416    243    321    487    418    247    323    1
215   487    418    247    323    488    420    251    325    1
216   488    420    251    325    489    422    255    327    1
217   73    72    78    76    490    493    492    491    1
218   490    493    492    491    494    497    496    495    1
219   494    497    496    495    498    501    500    499    1
220   498    501    500    499    502    505    504    503    1
221   502    505    504    503    506    509    508    507    1
222   506    509    508    507    510    513    512    511    1
223   72    71    79    78    493    515    514    492    1
224   493    515    514    492    497    517    516    496    1
225   497    517    516    496    501    519    518    500    1
226   501    519    518    500    505    521    520    504    1
227   505    521    520    504    509    523    522    508    1
228   509    523    522    508    513    525    524    512    1
229   71    14    15    79    515    268    269    514    1
230   515    268    269    514    517    270    271    516    1
231   517    270    271    516    519    272    273    518    1
232   519    272    273    518    521    274    275    520    1
233   521    274    275    520    523    276    277    522    1
234   523    276    277    522    525    278    279    524    1
235   76    78    80    77    491    492    527    526    1
236   491    492    527    526    495    496    529    528    1
237   495    496    529    528    499    500    531    530    1
238   499    500    531    530    503    504    533    532    1
239   503    504    533    532    507    508    535    534    1
240   507    508    535    534    511    512    537    536    1
241   78    79    81    80    492    514    538    527    1
242   492    514    538    527    496    516    539    529    1
243   496    516    539    529    500    518    540    531    1
244   500    518    540    531    504    520    541    533    1
245   504    520    541    533    508    522    542    535    1
246   508    522    542    535    512    524    543    537    1
247   79    15    16    81    514    269    280    538    1
248   514    269    280    538    516    271    281    539    1
249   516    271    281    539    518    273    282    540    1
250   518    273    282    540    520    275    283    541    1
251   520    275    283    541    522    277    284    542    1
252   522    277    284    542    524    279    285    543    1
253   77    80    64    63    526    527    545    544    1
254   526    527    545    544    528    529    547    546    1
255   528    529    547    546    530    531    549    548    1
256   530    531    549    548    532    533    551    550    1
257   532    533    551    550    534    535    553    552    1
258   534    535    553    552    536    537    555    554    1
259   80    81    65    64    527    538    556    545    1
260   527    538    556    545    529    539    557    547    1
261   529    539    557    547    531    540    558    549    1
262   531    540    558    549    533    541    559    551    1
263   533    541    559    551    535    542    560    553    1
264   535    542    560    553    537    543    561    555    1
265   81    16    17    65    538    280    286    556    1
266   538    280    286    556    539    281    287    557    1
267   539    281    287    557    540    282    288    558    1
268   540    282    288    558    541    283    289    559    1
269   541    283    289    559    542    284    290    560    1
270   542    284    290    560    543    285    291    561    1
271   57    75    82    58    562    565    564    563    1
272   562    565    564    563    566    569    568    567    1
273   566    569    568    567    570    573    572    571    1
274   570    573    572    571    574    577    576    575    1
275   574    577    576    575    578    581    580    579    1
276   578    581    580    579    582    585    584    583    1
277   75    74    83    82    565    587    586    564    1
278   565    587    586    564    569    589    588    568    1
279   569    589    588    568    573    591    590    572    1
280   573    591    590    572    577    593    592    576    1
281   577    593    592    576    581    595    594    580    1
282   581    595    594    580    585    597    596    584    1
283   74    73    76    83    587    490    491    586    1
284   587    490    491    586    589    494    495    588    1
285   589    494    495    588    591    498    499    590    1
286   591    498    499    590    593    502    503    592    1
287   593    502    503    592    595    506    507    594    1
288   595    506    507    594    597    510    511    596    1
289   58    82    84    59    563    564    599    598    1
290   563    564    599    598    567    568    601    600    1
291   567    568    601    600    571    572    603    602    1
292   571    572    603    602    575    576    605    604    1
293   575    576    605    604    579    580    607    606    1
294   579    580    607    606    583    584    609    608    1
295   82    83    85    84    564    586    610    599    1
296   564    586    610    599    568    588    611    601    1
297   568    588    611    601    572    590    612    603    1
298   572    590    612    603    576    592    613    605    1
299   576    592    613    605    580    594    614    607    1
300   580    594    614    607    584    596    615    609    1
301   83    76    77    85    586    491    526    610    1
302   586    491    526    610    588    495    528    611    1
303   588    495    528    611    590    499    530    612    1
304   590    499    530    612    592    503    532    613    1
305   592    503    532    613    594    507    534    614    1
306   594    507    534    614    596    511    536    615    1
307   59    84    61    60    598    599    617    616    1
308   598    599    617    616    600    601    619    618    1
309   600    601    619    618    602    603    621    620    1
310   602    603    621    620    604    605    623    622    1
311   604    605    623    622    606    607    625    624    1
312   606    607    625    624    608    609    627    626    1
313   84    85    62    61    599    610    628    617    1
314   599    610    628    617    601    611    629    619    1
315   601    611    629    619    603    612    630    621    1
316   603    612    630    621    605    613    631    623    1
317   605    613    631    623    607    614    632    625    1
318   607    614    632    625    609    615    633    627    1
319   85    77    63    62    610    526    544    628    1
320   610    526    544    628    611    528    546    629    1
321   611    528    546    629    612    530    548    630    1
322   612    530    548    630    613    532    550    631    1
323   613    532    550    631    614    534    552    632    1
324   614    534    552    632    615    536    554    633    1
325   68    67    88    86    634    637    636    635    1
326   634    637    636    635    638    641    640    639    1
327   638    641    640    639    642    645    644    643    1
328   642    645    644    643    646    649    648    647    1
329   646    649    648    647    650    653    652    651    1
330   650    653    652    651    654    657    656    655    1
331   67    66    89    88    637    659    658    636    1
332   637    659    658    636    641    661    660    640    1
333   641    661    660    640    645    663    662    644    1
334   645    663    662    644    649    665    664    648    1
335   649    665    664    648    653    667    666    652    1
336   653    667    666    652    657    669    668    656    1
337   66    11    12    89    659    346    347    658    1
338   659    346    347    658    661    348    349    660    1
339   661    348    349    660    663    350    351    662    1
340   663    350    351    662    665    352    353    664    1
341   665    352    353    664    667    354    355    666    1
342   667    354    355    666    669    356    357    668    1
343   86    88    90    87    635    636    671    670    1
344   635    636    671    670    639    640    673    672    1
345   639    640    673    672    643    644    675    674    1
346   643    644    675    674    647    648    677    676    1
347   647    648    677    676    651    652    679    678    1
348   651    652    679    678    655    656    681    680    1
349   88    89    91    90    636    658    682    671    1
350   636    658    682    671    640    660    683    673    1
351   640    660    683    673    644    662    684    675    1
352   644    662    684    675    648    664    685    677    1
353   648    664    685    677    652    666    686    679    1
354   652    666    686    679    656    668    687    681    1
355   89    12    13    91    658    347    358    682    1
356   658    347    358    682    660    349    359    683    1
357   660    349    359    683    662    351    360    684    1
358   662    351    360    684    664    353    361    685    1
359   664    353    361    685    666    355    362    686    1
360   666    355    362    686    668    357    363    687    1
361   87    90    72    73    670    671    493    490    1
362   670    671    493    490    672    673    497    494    1
363   672    673    497    494    674    675    501    498    1
364   674    675    501    498    676    677    505    502    1
365   676    677    505    502    678    679    509    506    1
366   678    679    509    506    680    681    513    510    1
367   90    91    71    72    671    682    515    493    1
368   671    682    515    493    673    683    517    497    1
369   673    683    517    497    675    684    519    501    1
370   675    684    519    501    677    685    521    505    1
371   677    685    521    505    679    686    523    509    1
372   679    686    523    509    681    687    525    513    1
373   91    13    14    71    682    358    268    515    1
374   682    358    268    515    683    359    270    517    1
375   683    359    270    517    684    360    272    519    1
376   684    360    272    519    685    361    274    521    1
377   685    361    274    521    686    362    276    523    1
378   686    362    276    523    687    363    278    525    1
379   54    70    92    55    688    691    690    689    1
380   688    691    690    689    692    695    694    693    1
381   692    695    694    693    696    699    698    697    1
382   696    699    698    697    700    703    702    701    1
383   700    703    702    701    704    707    706    705    1
384   704    707    706    705    708    711    710    709    1
385   70    69    93    92    691    713    712    690    1
386   691    713    712    690    695    715    714    694    1
387   695    715    714    694    699    717    716    698    1
388   699    717    716    698    703    719    718    702    1
389   703    719    718    702    707    721    720    706    1
390   707    721    720    706    711    723    722    710    1
391   69    68    86    93    713    634    635    712    1
392   713    634    635    712    715    638    639    714    1
393   715    638    639    714    717    642    643    716    1
394   717    642    643    716    719    646    647    718    1
395   719    646    647    718    721    650    651    720    1
396   721    650    651    720    723    654    655    722    1
397   55    92    94    56    689    690    725    724    1
398   689    690    725    724    693    694    727    726    1
399   693    694    727    726    697    698    729    728    1
400   697    698    729    728    701    702    731    730    1
401   701    702    731    730    705    706    733    732    1
402   705    706    733    732    709    710    735    734    1
403   92    93    95    94    690    712    736    725    1
404   690    712    736    725    694    714    737    727    1
405   694    714    737    727    698    716    738    729    1
406   698    716    738    729    702    718    739    731    1
407   702    718    739    731    706    720    740    733    1
408   706    720    740    733    710    722    741    735    1
409   93    86    87    95    712    635    670    736    1
410   712    635    670    736    714    639    672    737    1
411   714    639    672    737    716    643    674    738    1
412   716    643    674    738    718    647    676    739    1
413   718    647    676    739    720    651    678    740    1
414   720    651    678    740    722    655    680    741    1
415   56    94    75    57    724    725    565    562    1
416   724    725    565    562    726    727    569    566    1
417   726    727    569    566    728    729    573    570    1
418   728    729    573    570    730    731    577    574    1
419   730    731    577    574    732    733    581    578    1
420   732    733    581    578    734    735    585    582    1
421   94    95    74    75    725    736    587    565    1
422   725    736    587    565    727    737    589    569    1
423   727    737    589    569    729    738    591    573    1
424   729    738    591    573    731    739    593    577    1
425   731    739    593    577    733    740    595    581    1
426   733    740    595    581    735    741    597    585    1
427   95    87    73    74    736    670    490    587    1
428   736    670    490    587    737    672    494    589    1
429   737    672    494    589    738    674    498    591    1
430   738    674    498    591    739    676    502    593    1
431   739    676    502    593    740    678    506    595    1
432   740    678    506    595    741    680    510    597    1
433   1366    100    118    102    1373    745    744    743    1
434   1373    745    744    743    1374    749    748    747    1
435   1374    749    748    747    1375    753    752    751    1
436   1375    753    752    751    1376    757    756    755    1
437   1376    757    756    755    1377    761    760    759    1
438   1377    761    760    759    1378    765    764    763    1
439   100    99    119    118    745    767    766    744    1
440   745    767    766    744    749    769    768    748    1
441   749    769    768    748    753    771    770    752    1
442   753    771    770    752    757    773    772    756    1
443   757    773    772    756    761    775    774    760    1
444   761    775    774    760    765    777    776    764    1
445   99    98    120    119    767    779    778    766    1
446   767    779    778    766    769    781    780    768    1
447   769    781    780    768    771    783    782    770    1
448   771    783    782    770    773    785    784    772    1
449   773    785    784    772    775    787    786    774    1
450   775    787    786    774    777    789    788    776    1
451   98    97    121    120    779    791    790    778    1
452   779    791    790    778    781    793    792    780    1
453   781    793    792    780    783    795    794    782    1
454   783    795    794    782    785    797    796    784    1
455   785    797    796    784    787    799    798    786    1
456   787    799    798    786    789    801    800    788    1
457   97    96    122    121    791    803    802    790    1
458   791    803    802    790    793    805    804    792    1
459   793    805    804    792    795    807    806    794    1
460   795    807    806    794    797    809    808    796    1
461   797    809    808    796    799    811    810    798    1
462   799    811    810    798    801    813    812    800    1
463   96    17    18    122    803    286    262    802    1
464   803    286    262    802    805    287    263    804    1
465   805    287    263    804    807    288    264    806    1
466   807    288    264    806    809    289    265    808    1
467   809    289    265    808    811    290    266    810    1
468   811    290    266    810    813    291    267    812    1
469   102    118    123    103    743    744    815    814    1
470   743    744    815    814    747    748    817    816    1
471   747    748    817    816    751    752    819    818    1
472   751    752    819    818    755    756    821    820    1
473   755    756    821    820    759    760    823    822    1
474   759    760    823    822    763    764    825    824    1
475   118    119    124    123    744    766    826    815    1
476   744    766    826    815    748    768    827    817    1
477   748    768    827    817    752    770    828    819    1
478   752    770    828    819    756    772    829    821    1
479   756    772    829    821    760    774    830    823    1
480   760    774    830    823    764    776    831    825    1
481   119    120    125    124    766    778    832    826    1
482   766    778    832    826    768    780    833    827    1
483   768    780    833    827    770    782    834    828    1
484   770    782    834    828    772    784    835    829    1
485   772    784    835    829    774    786    836    830    1
486   774    786    836    830    776    788    837    831    1
487   120    121    126    125    778    790    838    832    1
488   778    790    838    832    780    792    839    833    1
489   780    792    839    833    782    794    840    834    1
490   782    794    840    834    784    796    841    835    1
491   784    796    841    835    786    798    842    836    1
492   786    798    842    836    788    800    843    837    1
493   121    122    127    126    790    802    844    838    1
494   790    802    844    838    792    804    845    839    1
495   792    804    845    839    794    806    846    840    1
496   794    806    846    840    796    808    847    841    1
497   796    808    847    841    798    810    848    842    1
498   798    810    848    842    800    812    849    843    1
499   122    18    19    127    802    262    152    844    1
500   802    262    152    844    804    263    154    845    1
501   804    263    154    845    806    264    156    846    1
502   806    264    156    846    808    265    158    847    1
503   808    265    158    847    810    266    160    848    1
504   810    266    160    848    812    267    162    849    1
505   103    123    113    104    814    815    851    850    1
506   814    815    851    850    816    817    853    852    1
507   816    817    853    852    818    819    855    854    1
508   818    819    855    854    820    821    857    856    1
509   820    821    857    856    822    823    859    858    1
510   822    823    859    858    824    825    861    860    1
511   123    124    114    113    815    826    862    851    1
512   815    826    862    851    817    827    863    853    1
513   817    827    863    853    819    828    864    855    1
514   819    828    864    855    821    829    865    857    1
515   821    829    865    857    823    830    866    859    1
516   823    830    866    859    825    831    867    861    1
517   124    125    115    114    826    832    868    862    1
518   826    832    868    862    827    833    869    863    1
519   827    833    869    863    828    834    870    864    1
520   828    834    870    864    829    835    871    865    1
521   829    835    871    865    830    836    872    866    1
522   830    836    872    866    831    837    873    867    1
523   125    126    116    115    832    838    874    868    1
524   832    838    874    868    833    839    875    869    1
525   833    839    875    869    834    840    876    870    1
526   834    840    876    870    835    841    877    871    1
527   835    841    877    871    836    842    878    872    1
528   836    842    878    872    837    843    879    873    1
529   126    127    117    116    838    844    880    874    1
530   838    844    880    874    839    845    881    875    1
531   839    845    881    875    840    846    882    876    1
532   840    846    882    876    841    847    883    877    1
533   841    847    883    877    842    848    884    878    1
534   842    848    884    878    843    849    885    879    1
535   127    19    20    117    844    152    153    880    1
536   844    152    153    880    845    154    155    881    1
537   845    154    155    881    846    156    157    882    1
538   846    156    157    882    847    158    159    883    1
539   847    158    159    883    848    160    161    884    1
540   848    160    161    884    849    162    163    885    1
541   104    113    128    105    850    851    887    886    1
542   850    851    887    886    852    853    889    888    1
543   852    853    889    888    854    855    891    890    1
544   854    855    891    890    856    857    893    892    1
545   856    857    893    892    858    859    895    894    1
546   858    859    895    894    860    861    897    896    1
547   113    114    129    128    851    862    898    887    1
548   851    862    898    887    853    863    899    889    1
549   853    863    899    889    855    864    900    891    1
550   855    864    900    891    857    865    901    893    1
551   857    865    901    893    859    866    902    895    1
552   859    866    902    895    861    867    903    897    1
553   114    115    130    129    862    868    904    898    1
554   862    868    904    898    863    869    905    899    1
555   863    869    905    899    864    870    906    900    1
556   864    870    906    900    865    871    907    901    1
557   865    871    907    901    866    872    908    902    1
558   866    872    908    902    867    873    909    903    1
559   115    116    131    130    868    874    910    904    1
560   868    874    910    904    869    875    911    905    1
561   869    875    911    905    870    876    912    906    1
562   870    876    912    906    871    877    913    907    1
563   871    877    913    907    872    878    914    908    1
564   872    878    914    908    873    879    915    909    1
565   116    117    132    131    874    880    916    910    1
566   874    880    916    910    875    881    917    911    1
567   875    881    917    911    876    882    918    912    1
568   876    882    918    912    877    883    919    913    1
569   877    883    919    913    878    884    920    914    1
570   878    884    920    914    879    885    921    915    1
571   117    20    21    132    880    153    430    916    1
572   880    153    430    916    881    155    431    917    1
573   881    155    431    917    882    157    432    918    1
574   882    157    432    918    883    159    433    919    1
575   883    159    433    919    884    161    434    920    1
576   884    161    434    920    885    163    435    921    1
577   105    128    133    106    886    887    923    922    1
578   886    887    923    922    888    889    925    924    1
579   888    889    925    924    890    891    927    926    1
580   890    891    927    926    892    893    929    928    1
581   892    893    929    928    894    895    931    930    1
582   894    895    931    930    896    897    933    932    1
583   128    129    134    133    887    898    934    923    1
584   887    898    934    923    889    899    935    925    1
585   889    899    935    925    891    900    936    927    1
586   891    900    936    927    893    901    937    929    1
587   893    901    937    929    895    902    938    931    1
588   895    902    938    931    897    903    939    933    1
589   129    130    135    134    898    904    940    934    1
590   898    904    940    934    899    905    941    935    1
591   899    905    941    935    900    906    942    936    1
592   900    906    942    936    901    907    943    937    1
593   901    907    943    937    902    908    944    938    1
594   902    908    944    938    903    909    945    939    1
595   130    131    136    135    904    910    946    940    1
596   904    910    946    940    905    911    947    941    1
597   905    911    947    941    906    912    948    942    1
598   906    912    948    942    907    913    949    943    1
599   907    913    949    943    908    914    950    944    1
600   908    914    950    944    909    915    951    945    1
601   131    132    137    136    910    916    952    946    1
602   910    916    952    946    911    917    953    947    1
603   911    917    953    947    912    918    954    948    1
604   912    918    954    948    913    919    955    949    1
605   913    919    955    949    914    920    956    950    1
606   914    920    956    950    915    921    957    951    1
607   132    21    22    137    916    430    400    952    1
608   916    430    400    952    917    431    402    953    1
609   917    431    402    953    918    432    404    954    1
610   918    432    404    954    919    433    406    955    1
611   919    433    406    955    920    434    408    956    1
612   920    434    408    956    921    435    410    957    1
613   106    133    108    107    922    923    959    958    1
614   922    923    959    958    924    925    961    960    1
615   924    925    961    960    926    927    963    962    1
616   926    927    963    962    928    929    965    964    1
617   928    929    965    964    930    931    967    966    1
618   930    931    967    966    932    933    969    968    1
619   133    134    109    108    923    934    970    959    1
620   923    934    970    959    925    935    971    961    1
621   925    935    971    961    927    936    972    963    1
622   927    936    972    963    929    937    973    965    1
623   929    937    973    965    931    938    974    967    1
624   931    938    974    967    933    939    975    969    1
625   134    135    110    109    934    940    976    970    1
626   934    940    976    970    935    941    977    971    1
627   935    941    977    971    936    942    978    972    1
628   936    942    978    972    937    943    979    973    1
629   937    943    979    973    938    944    980    974    1
630   938    944    980    974    939    945    981    975    1
631   135    136    111    110    940    946    982    976    1
632   940    946    982    976    941    947    983    977    1
633   941    947    983    977    942    948    984    978    1
634   942    948    984    978    943    949    985    979    1
635   943    949    985    979    944    950    986    980    1
636   944    950    986    980    945    951    987    981    1
637   136    137    112    111    946    952    988    982    1
638   946    952    988    982    947    953    989    983    1
639   947    953    989    983    948    954    990    984    1
640   948    954    990    984    949    955    991    985    1
641   949    955    991    985    950    956    992    986    1
642   950    956    992    986    951    957    993    987    1
643   137    22    23    112    952    400    401    988    1
644   952    400    401    988    953    402    403    989    1
645   953    402    403    989    954    404    405    990    1
646   954    404    405    990    955    406    407    991    1
647   955    406    407    991    956    408    409    992    1
648   956    408    409    992    957    410    411    993    1
649   186    200    199    178    994    997    996    995    1
650   994    997    996    995    998    1001    1000    999    1
651   998    1001    1000    999    1002    1005    1004    1003    1
652   1002    1005    1004    1003    1006    1009    1008    1007    1
653   1006    1009    1008    1007    1010    1013    1012    1011    1
654   1010    1013    1012    1011    1014    1017    1016    1015    1
655   206    207    181    179    1018    1021    1020    1019    1
656   1018    1021    1020    1019    1022    1025    1024    1023    1
657   1022    1025    1024    1023    1026    1029    1028    1027    1
658   1026    1029    1028    1027    1030    1033    1032    1031    1
659   1030    1033    1032    1031    1034    1037    1036    1035    1
660   1034    1037    1036    1035    1038    1041    1040    1039    1
661   205    206    179    198    1042    1018    1019    1043    1
662   1042    1018    1019    1043    1044    1022    1023    1045    1
663   1044    1022    1023    1045    1046    1026    1027    1047    1
664   1046    1026    1027    1047    1048    1030    1031    1049    1
665   1048    1030    1031    1049    1050    1034    1035    1051    1
666   1050    1034    1035    1051    1052    1038    1039    1053    1
667   180    1369    1370    187    1054    1380    1379    1055    1
668   1054    1380    1379    1055    1058    1382    1381    1059    1
669   1058    1382    1381    1059    1062    1384    1383    1063    1
670   1062    1384    1383    1063    1066    1386    1385    1067    1
671   1066    1386    1385    1067    1070    1388    1387    1071    1
672   1070    1388    1387    1071    1074    1390    1389    1075    1
673   181    1368    1369    180    1020    1391    1380    1054    1
674   1020    1391    1380    1054    1024    1392    1382    1058    1
675   1024    1392    1382    1058    1028    1393    1384    1062    1
676   1028    1393    1384    1062    1032    1394    1386    1066    1
677   1032    1394    1386    1066    1036    1395    1388    1070    1
678   1036    1395    1388    1070    1040    1396    1390    1074    1
679   207    1367    1368    181    1021    1397    1391    1020    1
680   1021    1397    1391    1020    1025    1398    1392    1024    1
681   1025    1398    1392    1024    1029    1399    1393    1028    1
682   1029    1399    1393    1028    1033    1400    1394    1032    1
683   1033    1400    1394    1032    1037    1401    1395    1036    1
684   1037    1401    1395    1036    1041    1402    1396    1040    1
685   202    182    103    104    1090    1091    814    850    1
686   1090    1091    814    850    1092    1093    816    852    1
687   1092    1093    816    852    1094    1095    818    854    1
688   1094    1095    818    854    1096    1097    820    856    1
689   1096    1097    820    856    1098    1099    822    858    1
690   1098    1099    822    858    1100    1101    824    860    1
691   201    183    182    202    1102    1103    1091    1090    1
692   1102    1103    1091    1090    1104    1105    1093    1092    1
693   1104    1105    1093    1092    1106    1107    1095    1094    1
694   1106    1107    1095    1094    1108    1109    1097    1096    1
695   1108    1109    1097    1096    1110    1111    1099    1098    1
696   1110    1111    1099    1098    1112    1113    1101    1100    1
697   200    186    183    201    997    994    1103    1102    1
698   997    994    1103    1102    1001    998    1105    1104    1
699   1001    998    1105    1104    1005    1002    1107    1106    1
700   1005    1002    1107    1106    1009    1006    1109    1108    1
701   1009    1006    1109    1108    1013    1010    1111    1110    1
702   1013    1010    1111    1110    1017    1014    1113    1112    1
703   182    184    102    103    1091    1114    743    814    1
704   1091    1114    743    814    1093    1115    747    816    1
705   1093    1115    747    816    1095    1116    751    818    1
706   1095    1116    751    818    1097    1117    755    820    1
707   1097    1117    755    820    1099    1118    759    822    1
708   1099    1118    759    822    1101    1119    763    824    1
709   183    185    184    182    1103    1120    1114    1091    1
710   1103    1120    1114    1091    1105    1121    1115    1093    1
711   1105    1121    1115    1093    1107    1122    1116    1095    1
712   1107    1122    1116    1095    1109    1123    1117    1097    1
713   1109    1123    1117    1097    1111    1124    1118    1099    1
714   1111    1124    1118    1099    1113    1125    1119    1101    1
715   186    187    185    183    994    1055    1120    1103    1
716   994    1055    1120    1103    998    1059    1121    1105    1
717   998    1059    1121    1105    1002    1063    1122    1107    1
718   1002    1063    1122    1107    1006    1067    1123    1109    1
719   1006    1067    1123    1109    1010    1071    1124    1111    1
720   1010    1071    1124    1111    1014    1075    1125    1113    1
721   184    1372    1366    102    1114    1403    1373    743    1
722   1114    1403    1373    743    1115    1404    1374    747    1
723   1115    1404    1374    747    1116    1405    1375    751    1
724   1116    1405    1375    751    1117    1406    1376    755    1
725   1117    1406    1376    755    1118    1407    1377    759    1
726   1118    1407    1377    759    1119    1408    1378    763    1
727   185    1371    1372    184    1120    1409    1403    1114    1
728   1120    1409    1403    1114    1121    1410    1404    1115    1
729   1121    1410    1404    1115    1122    1411    1405    1116    1
730   1122    1411    1405    1116    1123    1412    1406    1117    1
731   1123    1412    1406    1117    1124    1413    1407    1118    1
732   1124    1413    1407    1118    1125    1414    1408    1119    1
733   187    1370    1371    185    1055    1379    1409    1120    1
734   1055    1379    1409    1120    1059    1381    1410    1121    1
735   1059    1381    1410    1121    1063    1383    1411    1122    1
736   1063    1383    1411    1122    1067    1385    1412    1123    1
737   1067    1385    1412    1123    1071    1387    1413    1124    1
738   1071    1387    1413    1124    1075    1389    1414    1125    1
739   190    188    189    191    1138    1141    1140    1139    1
740   1138    1141    1140    1139    1142    1145    1144    1143    1
741   1142    1145    1144    1143    1146    1149    1148    1147    1
742   1146    1149    1148    1147    1150    1153    1152    1151    1
743   1150    1153    1152    1151    1154    1157    1156    1155    1
744   1154    1157    1156    1155    1158    1161    1160    1159    1
745   197    196    188    190    1162    1163    1141    1138    1
746   1162    1163    1141    1138    1164    1165    1145    1142    1
747   1164    1165    1145    1142    1166    1167    1149    1146    1
748   1166    1167    1149    1146    1168    1169    1153    1150    1
749   1168    1169    1153    1150    1170    1171    1157    1154    1
750   1170    1171    1157    1154    1172    1173    1161    1158    1
751   188    4    3    189    1141    1175    1174    1140    1
752   1141    1175    1174    1140    1145    1177    1176    1144    1
753   1145    1177    1176    1144    1149    1179    1178    1148    1
754   1149    1179    1178    1148    1153    1181    1180    1152    1
755   1153    1181    1180    1152    1157    1183    1182    1156    1
756   1157    1183    1182    1156    1161    1185    1184    1160    1
757   196    1    4    188    1163    1186    1175    1141    1
758   1163    1186    1175    1141    1165    1187    1177    1145    1
759   1165    1187    1177    1145    1167    1188    1179    1149    1
760   1167    1188    1179    1149    1169    1189    1181    1153    1
761   1169    1189    1181    1153    1171    1190    1183    1157    1
762   1171    1190    1183    1157    1173    1191    1185    1161    1
763   203    204    191    189    1192    1193    1139    1140    1
764   1192    1193    1139    1140    1194    1195    1143    1144    1
765   1194    1195    1143    1144    1196    1197    1147    1148    1
766   1196    1197    1147    1148    1198    1199    1151    1152    1
767   1198    1199    1151    1152    1200    1201    1155    1156    1
768   1200    1201    1155    1156    1202    1203    1159    1160    1
769   2    203    189    3    1204    1192    1140    1174    1
770   1204    1192    1140    1174    1205    1194    1144    1176    1
771   1205    1194    1144    1176    1206    1196    1148    1178    1
772   1206    1196    1148    1178    1207    1198    1152    1180    1
773   1207    1198    1152    1180    1208    1200    1156    1182    1
774   1208    1200    1156    1182    1209    1202    1160    1184    1
775   190    199    200    197    1138    996    997    1162    1
776   1138    996    997    1162    1142    1000    1001    1164    1
777   1142    1000    1001    1164    1146    1004    1005    1166    1
778   1146    1004    1005    1166    1150    1008    1009    1168    1
779   1150    1008    1009    1168    1154    1012    1013    1170    1
780   1154    1012    1013    1170    1158    1016    1017    1172    1
781   191    198    199    190    1139    1043    996    1138    1
782   1139    1043    996    1138    1143    1045    1000    1142    1
783   1143    1045    1000    1142    1147    1047    1004    1146    1
784   1147    1047    1004    1146    1151    1049    1008    1150    1
785   1151    1049    1008    1150    1155    1051    1012    1154    1
786   1155    1051    1012    1154    1159    1053    1016    1158    1
787   204    205    198    191    1193    1042    1043    1139    1
788   1193    1042    1043    1139    1195    1044    1045    1143    1
789   1195    1044    1045    1143    1197    1046    1047    1147    1
790   1197    1046    1047    1147    1199    1048    1049    1151    1
791   1199    1048    1049    1151    1201    1050    1051    1155    1
792   1201    1050    1051    1155    1203    1052    1053    1159    1
793   214    192    106    107    1210    1211    922    958    1
794   1210    1211    922    958    1212    1213    924    960    1
795   1212    1213    924    960    1214    1215    926    962    1
796   1214    1215    926    962    1216    1217    928    964    1
797   1216    1217    928    964    1218    1219    930    966    1
798   1218    1219    930    966    1220    1221    932    968    1
799   215    193    192    214    1222    1223    1211    1210    1
800   1222    1223    1211    1210    1224    1225    1213    1212    1
801   1224    1225    1213    1212    1226    1227    1215    1214    1
802   1226    1227    1215    1214    1228    1229    1217    1216    1
803   1228    1229    1217    1216    1230    1231    1219    1218    1
804   1230    1231    1219    1218    1232    1233    1221    1220    1
805   1    196    193    215    1186    1163    1223    1222    1
806   1186    1163    1223    1222    1187    1165    1225    1224    1
807   1187    1165    1225    1224    1188    1167    1227    1226    1
808   1188    1167    1227    1226    1189    1169    1229    1228    1
809   1189    1169    1229    1228    1190    1171    1231    1230    1
810   1190    1171    1231    1230    1191    1173    1233    1232    1
811   192    194    105    106    1211    1234    886    922    1
812   1211    1234    886    922    1213    1235    888    924    1
813   1213    1235    888    924    1215    1236    890    926    1
814   1215    1236    890    926    1217    1237    892    928    1
815   1217    1237    892    928    1219    1238    894    930    1
816   1219    1238    894    930    1221    1239    896    932    1
817   193    195    194    192    1223    1240    1234    1211    1
818   1223    1240    1234    1211    1225    1241    1235    1213    1
819   1225    1241    1235    1213    1227    1242    1236    1215    1
820   1227    1242    1236    1215    1229    1243    1237    1217    1
821   1229    1243    1237    1217    1231    1244    1238    1219    1
822   1231    1244    1238    1219    1233    1245    1239    1221    1
823   196    197    195    193    1163    1162    1240    1223    1
824   1163    1162    1240    1223    1165    1164    1241    1225    1
825   1165    1164    1241    1225    1167    1166    1242    1227    1
826   1167    1166    1242    1227    1169    1168    1243    1229    1
827   1169    1168    1243    1229    1171    1170    1244    1231    1
828   1171    1170    1244    1231    1173    1172    1245    1233    1
829   194    202    104    105    1234    1090    850    886    1
830   1234    1090    850    886    1235    1092    852    888    1
831   1235    1092    852    888    1236    1094    854    890    1
832   1236    1094    854    890    1237    1096    856    892    1
833   1237    1096    856    892    1238    1098    858    894    1
834   1238    1098    858    894    1239    1100    860    896    1
835   195    201    202    194    1240    1102    1090    1234    1
836   1240    1102    1090    1234    1241    1104    1092    1235    1
837   1241    1104    1092    1235    1242    1106    1094    1236    1
838   1242    1106    1094    1236    1243    1108    1096    1237    1
839   1243    1108    1096    1237    1244    1110    1098    1238    1
840   1244    1110    1098    1238    1245    1112    1100    1239    1
841   197    200    201    195    1162    997    1102    1240    1
842   1162    997    1102    1240    1164    1001    1104    1241    1
843   1164    1001    1104    1241    1166    1005    1106    1242    1
844   1166    1005    1106    1242    1168    1009    1108    1243    1
845   1168    1009    1108    1243    1170    1013    1110    1244    1
846   1170    1013    1110    1244    1172    1017    1112    1245    1
847   178    199    198    179    995    996    1043    1019    1
848   995    996    1043    1019    999    1000    1045    1023    1
849   999    1000    1045    1023    1003    1004    1047    1027    1
850   1003    1004    1047    1027    1007    1008    1049    1031    1
851   1007    1008    1049    1031    1011    1012    1051    1035    1
852   1011    1012    1051    1035    1015    1016    1053    1039    1
853   187    186    178    180    1055    994    995    1054    1
854   1055    994    995    1054    1059    998    999    1058    1
855   1059    998    999    1058    1063    1002    1003    1062    1
856   1063    1002    1003    1062    1067    1006    1007    1066    1
857   1067    1006    1007    1066    1071    1010    1011    1070    1
858   1071    1010    1011    1070    1075    1014    1015    1074    1
859   180    178    179    181    1054    995    1019    1020    1
860   1054    995    1019    1020    1058    999    1023    1024    1
861   1058    999    1023    1024    1062    1003    1027    1028    1
862   1062    1003    1027    1028    1066    1007    1031    1032    1
863   1066    1007    1031    1032    1070    1011    1035    1036    1
864   1070    1011    1035    1036    1074    1015    1039    1040    1
865   101    213    226    177    742    1126    1247    1246    2
866   177    226    227    216    1246    1247    1259    1258    2
867   226    213    212    227    1247    1126    1132    1259    2
868   216    227    228    217    1258    1259    1271    1270    2
869   227    212    211    228    1259    1132    1056    1271    2
870   217    228    229    218    1270    1271    1283    1282    2
871   228    211    210    229    1271    1056    1057    1283    2
872   218    229    230    219    1282    1283    1295    1294    2
873   229    210    209    230    1283    1057    1078    1295    2
874   220    219    231    221    1306    1294    1308    1307    2
875   230    232    231    219    1295    1324    1308    1294    2
876   222    232    230    223    1330    1324    1295    1331    2
877   221    231    232    222    1307    1308    1324    1330    2
878   223    230    233    224    1331    1295    1343    1342    2
879   209    234    233    230    1078    1354    1343    1295    2
880   225    234    209    208    1360    1354    1078    1084    2
881   224    233    234    225    1342    1343    1354    1360    2
882   742    1126    1247    1246    746    1127    1249    1248    2
883   1246    1247    1259    1258    1248    1249    1261    1260    2
884   1247    1126    1132    1259    1249    1127    1133    1261    2
885   1258    1259    1271    1270    1260    1261    1273    1272    2
886   1259    1132    1056    1271    1261    1133    1060    1273    2
887   1270    1271    1283    1282    1272    1273    1285    1284    2
888   1271    1056    1057    1283    1273    1060    1061    1285    2
889   1282    1283    1295    1294    1284    1285    1297    1296    2
890   1283    1057    1078    1295    1285    1061    1079    1297    2
891   1306    1294    1308    1307    1309    1296    1311    1310    2
892   1295    1324    1308    1294    1297    1325    1311    1296    2
893   1330    1324    1295    1331    1332    1325    1297    1333    2
894   1307    1308    1324    1330    1310    1311    1325    1332    2
895   1331    1295    1343    1342    1333    1297    1345    1344    2
896   1078    1354    1343    1295    1079    1355    1345    1297    2
897   1360    1354    1078    1084    1361    1355    1079    1085    2
898   1342    1343    1354    1360    1344    1345    1355    1361    2
899   746    1127    1249    1248    750    1128    1251    1250    2
900   1248    1249    1261    1260    1250    1251    1263    1262    2
901   1249    1127    1133    1261    1251    1128    1134    1263    2
902   1260    1261    1273    1272    1262    1263    1275    1274    2
903   1261    1133    1060    1273    1263    1134    1064    1275    2
904   1272    1273    1285    1284    1274    1275    1287    1286    2
905   1273    1060    1061    1285    1275    1064    1065    1287    2
906   1284    1285    1297    1296    1286    1287    1299    1298    2
907   1285    1061    1079    1297    1287    1065    1080    1299    2
908   1309    1296    1311    1310    1312    1298    1314    1313    2
909   1312    1298    1314    1313    1315    1300    1317    1316    2
910   1315    1300    1317    1316    1318    1302    1320    1319    2
911   1318    1302    1320    1319    1321    1304    1323    1322    2
912   1297    1325    1311    1296    1299    1326    1314    1298    2
913   1299    1326    1314    1298    1301    1327    1317    1300    2
914   1301    1327    1317    1300    1303    1328    1320    1302    2
915   1303    1328    1320    1302    1305    1329    1323    1304    2
916   1332    1325    1297    1333    1334    1326    1299    1335    2
917   1334    1326    1299    1335    1336    1327    1301    1337    2
918   1336    1327    1301    1337    1338    1328    1303    1339    2
919   1338    1328    1303    1339    1340    1329    1305    1341    2
920   1310    1311    1325    1332    1313    1314    1326    1334    2
921   1313    1314    1326    1334    1316    1317    1327    1336    2
922   1316    1317    1327    1336    1319    1320    1328    1338    2
923   1319    1320    1328    1338    1322    1323    1329    1340    2
924   1333    1297    1345    1344    1335    1299    1347    1346    2
925   1335    1299    1347    1346    1337    1301    1349    1348    2
926   1337    1301    1349    1348    1339    1303    1351    1350    2
927   1339    1303    1351    1350    1341    1305    1353    1352    2
928   1079    1355    1345    1297    1080    1356    1347    1299    2
929   1080    1356    1347    1299    1081    1357    1349    1301    2
930   1081    1357    1349    1301    1082    1358    1351    1303    2
931   1082    1358    1351    1303    1083    1359    1353    1305    2
932   1361    1355    1079    1085    1362    1356    1080    1086    2
933   1362    1356    1080    1086    1363    1357    1081    1087    2
934   1363    1357    1081    1087    1364    1358    1082    1088    2
935   1364    1358    1082    1088    1365    1359    1083    1089    2
936   1344    1345    1355    1361    1346    1347    1356    1362    2
937   1346    1347    1356    1362    1348    1349    1357    1363    2
938   1348    1349    1357    1363    1350    1351    1358    1364    2
939   1350    1351    1358    1364    1352    1353    1359    1365    2
940   1286    1287    1299    1298    1288    1289    1301    1300    2
941   1288    1289    1301    1300    1290    1291    1303    1302    2
942   1290    1291    1303    1302    1292    1293    1305    1304    2
943   1287    1065    1080    1299    1289    1069    1081    1301    2
944   1289    1069    1081    1301    1291    1073    1082    1303    2
945   1291    1073    1082    1303    1293    1077    1083    1305    2
946   750    1128    1251    1250    754    1129    1253    1252    2
947   754    1129    1253    1252    758    1130    1255    1254    2
948   758    1130    1255    1254    762    1131    1257    1256    2
949   1250    1251    1263    1262    1252    1253    1265    1264    2
950   1252    1253    1265    1264    1254    1255    1267    1266    2
951   1254    1255    1267    1266    1256    1257    1269    1268    2
952   1262    1263    1275    1274    1264    1265    1277    1276    2
953   1264    1265    1277    1276    1266    1267    1279    1278    2
954   1266    1267    1279    1278    1268    1269    1281    1280    2
955   1274    1275    1287    1286    1276    1277    1289    1288    2
956   1276    1277    1289    1288    1278    1279    1291    1290    2
957   1278    1279    1291    1290    1280    1281    1293    1292    2
958   1275    1064    1065    1287    1277    1068    1069    1289    2
959   1277    1068    1069    1289    1279    1072    1073    1291    2
960   1279    1072    1073    1291    1281    1076    1077    1293    2
961   1251    1128    1134    1263    1253    1129    1135    1265    2
962   1253    1129    1135    1265    1255    1130    1136    1267    2
963   1255    1130    1136    1267    1257    1131    1137    1269    2
964   1263    1134    1064    1275    1265    1135    1068    1277    2
965   1265    1135    1068    1277    1267    1136    1072    1279    2
966   1267    1136    1072    1279    1269    1137    1076    1281    2
967   1370    1379    1380    1369    211    1056    1057    210    3
968   1379    1381    1382    1380    1056    1060    1061    1057    3
969   1381    1383    1384    1382    1060    1064    1065    1061    3
970   1383    1385    1386    1384    1064    1068    1069    1065    3
971   1385    1387    1388    1386    1068    1072    1073    1069    3
972   1387    1389    1390    1388    1072    1076    1077    1073    3
973   1369    1380    1391    1368    210    1057    1078    209    3
974   1380    1382    1392    1391    1057    1061    1079    1078    3
975   1382    1384    1393    1392    1061    1065    1080    1079    3
976   1384    1386    1394    1393    1065    1069    1081    1080    3
977   1386    1388    1395    1394    1069    1073    1082    1081    3
978   1388    1390    1396    1395    1073    1077    1083    1082    3
979   1368    1391    1397    1367    209    1078    1084    208    3
980   1391    1392    1398    1397    1078    1079    1085    1084    3
981   1392    1393    1399    1398    1079    1080    1086    1085    3
982   1393    1394    1400    1399    1080    1081    1087    1086    3
983   1394    1395    1401    1400    1081    1082    1088    1087    3
984   1395    1396    1402    1401    1082    1083    1089    1088    3
985   1366    1373    1403    1372    101    742    1126    213    3
986   1373    1374    1404    1403    742    746    1127    1126    3
987   1374    1375    1405    1404    746    750    1128    1127    3
988   1375    1376    1406    1405    750    754    1129    1128    3
989   1376    1377    1407    1406    754    758    1130    1129    3
990   1377    1378    1408    1407    758    762    1131    1130    3
991   1372    1403    1409    1371    213    1126    1132    212    3
992   1403    1404    1410    1409    1126    1127    1133    1132    3
993   1404    1405    1411    1410    1127    1128    1134    1133    3
994   1405    1406    1412    1411    1128    1129    1135    1134    3
995   1406    1407    1413    1412    1129    1130    1136    1135    3
996   1407    1408    1414    1413    1130    1131    1137    1136    3
997   1371    1409    1379    1370    212    1132    1056    211    3
998   1409    1410    1381    1379    1132    1133    1060    1056    3
999   1410    1411    1383    1381    1133    1134    1064    1060    3
1000   1411    1412    1385    1383    1134    1135    1068    1064    3
1001   1412    1413    1387    1385    1135    1136    1072    1068    3
1002   1413    1414    1389    1387    1136    1137    1076    1072    3
