<?xml version="1.0" ?>
<VTKFile type="UnstructuredGrid" version="1.0" byte_order="LittleEndian">
  <UnstructuredGrid>
    <Piece NumberOfPoints="46" NumberOfCells="32">
      <Points>
        <DataArray type="Float64" NumberOfComponents="3" format="ascii">0.0 -40.0 0.0
16.0 -40.0 0.0
32.0 -40.0 0.0
48.0 -40.0 0.0
64.0 -40.0 0.0
80.0 -40.0 0.0
0.0 -30.0 0.0
16.0 -30.0 0.0
32.0 -30.0 0.0
48.0 -30.0 0.0
64.0 -30.0 0.0
80.0 -30.0 0.0
0.0 -20.0 0.0
16.0 -20.0 0.0
32.0 -20.0 0.0
48.0 -20.0 0.0
64.0 -20.0 0.0
80.0 -20.0 0.0
0.0 -10.0 0.0
16.0 -10.0 0.0
32.0 -10.0 0.0
48.0 -10.0 0.0
64.0 -10.0 0.0
80.0 -10.0 0.0
0.0 0.0 0.0
16.0 0.0 0.0
32.0 0.0 0.0
48.0 0.0 0.0
64.0 0.0 0.0
80.0 0.0 0.0
16.0 15.0 0.0
32.0 15.0 0.0
48.0 15.0 0.0
64.0 15.0 0.0
16.0 30.0 0.0
32.0 30.0 0.0
48.0 30.0 0.0
64.0 30.0 0.0
16.0 45.0 0.0
32.0 45.0 0.0
48.0 45.0 0.0
64.0 45.0 0.0
16.0 60.0 0.0
32.0 60.0 0.0
48.0 60.0 0.0
64.0 60.0 0.0</DataArray>
      </Points>
      <Cells>
        <DataArray type="Int32" Name="connectivity" format="ascii">0 1 7 6
1 2 8 7
2 3 9 8
3 4 10 9
4 5 11 10
6 7 13 12
7 8 14 13
8 9 15 14
9 10 16 15
10 11 17 16
12 13 19 18
13 14 20 19
14 15 21 20
15 16 22 21
16 17 23 22
18 19 25 24
19 20 26 25
20 21 27 26
21 22 28 27
22 23 29 28
25 26 31 30
26 27 32 31
27 28 33 32
30 31 35 34
31 32 36 35
32 33 37 36
34 35 39 38
35 36 40 39
36 37 41 40
38 39 43 42
39 40 44 43
40 41 45 44</DataArray>
        <DataArray type="Int32" Name="offsets" format="ascii">4 8 12 16 20 24 28 32 36 40 44 48 52 56 60 64 68 72 76 80 84 88 92 96 100 104 108 112 116 120 124 128</DataArray>
        <DataArray type="UInt8" Name="types" format="ascii">9 9 9 9 9 9 9 9 9 9 9 9 9 9 9 9 9 9 9 9 9 9 9 9 9 9 9 9 9 9 9 9</DataArray>
      </Cells>
      <CellData>
        <DataArray type="Int32" Name="GroupID" format="ascii">1 1 1 1 1 1 1 1 1 1 1 1 1 1 1 1 1 1 1 1 2 2 2 2 2 2 2 2 2 2 2 2</DataArray>
      </CellData>
      <PointData>
        <DataArray type="Float64" Name="Displacement" NumberOfComponents="3" format="ascii">0.0 0.0 0.0
-0.00017252167 0.0 0.0
-0.00021599553 0.0 0.0
-0.00013516038 0.0 0.0
-3.7981543e-05 0.0 0.0
0.0 0.0 0.0
0.0 -2.2816242e-05 0.0
-0.00015799965 -0.00012075436 0.0
-0.00018537259 -0.00031308025 0.0
-9.539839e-05 -0.000443763 0.0
-5.2708562e-06 -0.0004522092 0.0
0.0 -0.00040772015 0.0
0.0 -2.7783997e-05 0.0
-9.9078836e-05 -0.00024395125 0.0
-7.5954228e-05 -0.00064812442 0.0
3.2494954e-05 -0.00090711974 0.0
9.8531148e-05 -0.00090016759 0.0
0.0 -0.00075379001 0.0
0.0 -5.7442793e-06 0.0
6.5737687e-05 -0.00038613005 0.0
0.00018315711 -0.0010212068 0.0
0.00025903547 -0.0013982635 0.0
0.00028686637 -0.0013597374 0.0
0.0 -0.00093403042 0.0
0.0 -2.6936827e-05 0.0
0.00059527149 -0.0005778194 0.0
0.00066447316 -0.0014206378 0.0
0.00064035794 -0.0018832431 0.0
0.00049643493 -0.0019112094 0.0
0.0 -0.00074784384 0.0
0.0017357771 -0.0010741302 0.0
0.0015566531 -0.0019385807 0.0
0.0014601872 -0.0025112674 0.0
0.0015835407 -0.0032276295 0.0
0.0025616681 -0.0014858369 0.0
0.0024658074 -0.0023052277 0.0
0.0024355053 -0.0030634224 0.0
0.0024974696 -0.0039032504 0.0
0.0033477496 -0.0017483852 0.0
0.0033092582 -0.0025656917 0.0
0.003305066 -0.0033869463 0.0
0.0033363753 -0.0042378886 0.0
0.0040971637 -0.0018425476 0.0
0.0041012448 -0.0026576365 0.0
0.0041125094 -0.0034944532 0.0
0.004129543 -0.0043418928 0.0</DataArray>
        <DataArray type="Float64" Name="DisplacementMag" format="ascii">0.0
0.00017252167
0.00021599553
0.00013516038
3.7981543e-05
0.0
2.2816242e-05
0.00019886051608887094
0.00036384370279471737
0.0004539013692241874
0.000452239916957494
0.00040772015
2.7783997e-05
0.000263303680414227
0.0006525598122405428
0.0009077015725077983
0.0009055440780064801
0.00075379001
5.7442793e-06
0.00039168591882414217
0.00103750173749724
0.0014220549181203834
0.0013896683457558271
0.00093403042
2.6936827e-05
0.0008295923130207873
0.0015683546598742346
0.001989136210775585
0.0019746313606272096
0.00074784384
0.002041244186136595
0.0024862147944520203
0.0029049286761203964
0.0035951624911576305
0.0029613940548260747
0.003375541568806708
0.0039135971774251176
0.004633866429670187
0.003776807936853448
0.004187357607574988
0.004732321470847019
0.0053936165907913815
0.004492408267606969
0.00488704825796301
0.0053966597754609835
0.005992091327369839</DataArray>
        <DataArray type="Float64" Name="Stress" NumberOfComponents="4" format="ascii">-650887.36 -1231012.5 -22757.218 -470474.97
-602757.96 -1388356.8 -29525.874 -497778.68
-523316.68 -1718765.0 -20405.623 -560520.43
-518936.76 -1963778.4 14315.924 -620678.8
-601484.64 -2016463.7 30718.3 -654487.09
-657100.57 -1997199.6 28288.035 -663575.04
-577952.27 -1080913.5 -45291.542 -414716.43
-534917.74 -1253544.1 -56977.208 -447115.45
-469612.19 -1608438.8 -36084.325 -519512.75
-482652.37 -1856842.0 34420.94 -584873.59
-585381.68 -1883014.4 68772.163 -617099.03
-652799.77 -1843047.9 65196.672 -623961.92
-374008.55 -761999.66 -86707.434 -284002.05
-359249.31 -980420.31 -98750.865 -334917.4
-363790.99 -1405965.1 -47208.923 -442439.02
-431318.29 -1665414.6 87983.888 -524183.21
-580624.74 -1607295.1 165505.13 -546979.96
-681704.8 -1496850.2 171418.94 -544638.76
61314.606 -423115.21 -75516.21 -90450.15
-81339.689 -716195.84 -65078.198 -199383.88
-310572.35 -1228889.3 15276.818 -384865.41
-464161.37 -1514961.2 160152.27 -494780.65
-638954.95 -1316163.1 304122.35 -488779.52
-746737.89 -1050905.8 373133.99 -449410.93
365629.13 -253045.5 -45443.419 28145.906
-32055.065 -701628.59 40039.483 -150277.09
-299686.76 -1063997.9 141355.02 -288052.74
-423913.61 -1420464.2 273537.88 -389394.8
-579088.96 -1358237.7 399942.91 -426079.52
-778565.15 -797007.39 505535.4 -393893.14
-321633.66 -832829.38 105070.91 -192795.33
-305021.85 -887826.1 175553.34 -199205.61
-251720.04 -1172805.3 269355.17 -237895.73
-215030.04 -1402787.8 292674.57 -270175.58
-287881.36 -615506.58 44910.869 -150865.79
-244968.72 -650070.66 100026.92 -149471.58
-127133.05 -751726.71 126993.78 -146769.58
-52210.021 -818818.68 98844.602 -145461.79
-134139.98 -330835.54 18951.5 -77650.913
-107880.23 -341498.54 34224.574 -75046.255
-50095.904 -364322.23 36508.625 -69207.828
-18571.341 -376482.91 23519.603 -65974.06
-62135.952 -171995.73 3938.2031 -39099.991
-45963.643 -174473.21 10000.414 -36812.955
-13592.715 -178872.13 9526.9924 -32141.63
2605.9053 -180793.57 2991.3601 -29757.34</DataArray>
      </PointData>
    </Piece>
  </UnstructuredGrid>
</VTKFile>
