<?xml version="1.0" ?>
<VTKFile type="UnstructuredGrid" version="1.0" byte_order="LittleEndian">
  <UnstructuredGrid>
    <Piece NumberOfPoints="46" NumberOfCells="32">
      <Points>
        <DataArray type="Float64" NumberOfComponents="3" format="ascii">0.0 -40.0 0.0
16.0 -40.0 0.0
32.0 -40.0 0.0
48.0 -40.0 0.0
64.0 -40.0 0.0
80.0 -40.0 0.0
0.0 -30.0 0.0
16.0 -30.0 0.0
32.0 -30.0 0.0
48.0 -30.0 0.0
64.0 -30.0 0.0
80.0 -30.0 0.0
0.0 -20.0 0.0
16.0 -20.0 0.0
32.0 -20.0 0.0
48.0 -20.0 0.0
64.0 -20.0 0.0
80.0 -20.0 0.0
0.0 -10.0 0.0
16.0 -10.0 0.0
32.0 -10.0 0.0
48.0 -10.0 0.0
64.0 -10.0 0.0
80.0 -10.0 0.0
0.0 0.0 0.0
16.0 0.0 0.0
32.0 0.0 0.0
48.0 0.0 0.0
64.0 0.0 0.0
80.0 0.0 0.0
16.0 15.0 0.0
32.0 15.0 0.0
48.0 15.0 0.0
64.0 15.0 0.0
16.0 30.0 0.0
32.0 30.0 0.0
48.0 30.0 0.0
64.0 30.0 0.0
16.0 45.0 0.0
32.0 45.0 0.0
48.0 45.0 0.0
64.0 45.0 0.0
16.0 60.0 0.0
32.0 60.0 0.0
48.0 60.0 0.0
64.0 60.0 0.0</DataArray>
      </Points>
      <Cells>
        <DataArray type="Int32" Name="connectivity" format="ascii">0 1 7 6
1 2 8 7
2 3 9 8
3 4 10 9
4 5 11 10
6 7 13 12
7 8 14 13
8 9 15 14
9 10 16 15
10 11 17 16
12 13 19 18
13 14 20 19
14 15 21 20
15 16 22 21
16 17 23 22
18 19 25 24
19 20 26 25
20 21 27 26
21 22 28 27
22 23 29 28
25 26 31 30
26 27 32 31
27 28 33 32
30 31 35 34
31 32 36 35
32 33 37 36
34 35 39 38
35 36 40 39
36 37 41 40
38 39 43 42
39 40 44 43
40 41 45 44</DataArray>
        <DataArray type="Int32" Name="offsets" format="ascii">4 8 12 16 20 24 28 32 36 40 44 48 52 56 60 64 68 72 76 80 84 88 92 96 100 104 108 112 116 120 124 128</DataArray>
        <DataArray type="UInt8" Name="types" format="ascii">9 9 9 9 9 9 9 9 9 9 9 9 9 9 9 9 9 9 9 9 9 9 9 9 9 9 9 9 9 9 9 9</DataArray>
      </Cells>
      <CellData>
        <DataArray type="Int32" Name="GroupID" format="ascii">1 1 1 1 1 1 1 1 1 1 1 1 1 1 1 1 1 1 1 1 2 2 2 2 2 2 2 2 2 2 2 2</DataArray>
      </CellData>
      <PointData>
        <DataArray type="Float64" Name="Displacement" NumberOfComponents="3" format="ascii">0.0 0.0 0.0
-1.4356454e-05 0.0 0.0
-8.8110413e-06 0.0 0.0
8.8110413e-06 0.0 0.0
1.4356454e-05 0.0 0.0
0.0 0.0 0.0
0.0 -0.00039666012 0.0
-1.5947011e-05 -0.00041044122 0.0
-9.7379324e-06 -0.00043149747 0.0
9.7379324e-06 -0.00043149747 0.0
1.5947011e-05 -0.00041044122 0.0
0.0 -0.00039666012 0.0
0.0 -0.00068055036 0.0
-1.9093062e-05 -0.00071320697 0.0
-1.1436477e-05 -0.00076136785 0.0
1.1436477e-05 -0.00076136785 0.0
1.9093062e-05 -0.00071320697 0.0
0.0 -0.00068055036 0.0
0.0 -0.00084557353 0.0
-1.5473211e-05 -0.0009082181 0.0
-7.9203976e-06 -0.00099273889 0.0
7.9203976e-06 -0.00099273889 0.0
1.5473211e-05 -0.0009082181 0.0
0.0 -0.00084557353 0.0
0.0 -0.00089271912 0.0
2.9430483e-05 -0.00099967987 0.0
1.6797683e-05 -0.0011209106 0.0
-1.6797683e-05 -0.0011209106 0.0
-2.9430483e-05 -0.00099967987 0.0
0.0 -0.00089271912 0.0
0.0 0.0 0.0
0.0 0.0 0.0
0.0 0.0 0.0
0.0 0.0 0.0
0.0 0.0 0.0
0.0 0.0 0.0
0.0 0.0 0.0
0.0 0.0 0.0
0.0 0.0 0.0
0.0 0.0 0.0
0.0 0.0 0.0
0.0 0.0 0.0
0.0 0.0 0.0
0.0 0.0 0.0
0.0 0.0 0.0
0.0 0.0 0.0</DataArray>
        <DataArray type="Float64" Name="DisplacementMag" format="ascii">0.0
1.4356454e-05
8.8110413e-06
8.8110413e-06
1.4356454e-05
0.0
0.00039666012
0.00041075090046757353
0.0004316073376853409
0.0004316073376853409
0.00041075090046757353
0.00039666012
0.00068055036
0.0007134624917072493
0.000761453738594666
0.000761453738594666
0.0007134624917072493
0.00068055036
0.00084557353
0.0009083498981264105
0.0009927704852666472
0.0009927704852666472
0.0009083498981264105
0.00084557353
0.00089271912
0.001000112991522873
0.0011210364558508026
0.0011210364558508026
0.001000112991522873
0.00089271912
0.0
0.0
0.0
0.0
0.0
0.0
0.0
0.0
0.0
0.0
0.0
0.0
0.0
0.0
0.0
0.0</DataArray>
        <DataArray type="Float64" Name="Stress" NumberOfComponents="4" format="ascii">-345568.13 -976097.47 -4081.4986 -330416.4
-336763.87 -991742.64 -5176.2709 -332126.63
-322667.06 -1016853.6 -3135.5216 -334880.17
-322667.06 -1016853.6 3135.5216 -334880.17
-336763.87 -991742.64 5176.2709 -332126.63
-345568.13 -976097.47 4081.4986 -330416.4
-303255.29 -844422.34 -8474.674 -286919.41
-294281.35 -862982.36 -10615.628 -289315.93
-280031.0 -892626.47 -6378.2909 -293164.37
-280031.0 -892626.47 6378.2909 -293164.37
-294281.35 -862982.36 10615.628 -289315.93
-303255.29 -844422.34 8474.674 -286919.41
-215440.44 -576714.97 -17622.603 -198038.85
-208170.47 -604245.78 -21200.842 -203104.06
-197499.31 -647566.73 -12389.541 -211266.51
-197499.31 -647566.73 12389.541 -211266.51
-208170.47 -604245.78 21200.842 -203104.06
-215440.44 -576714.97 17622.603 -198038.85
-107456.71 -301761.12 -23408.604 -102304.46
-116430.65 -344052.16 -25180.603 -115120.7
-130681.0 -407587.29 -13476.301 -134567.07
-130681.0 -407587.29 13476.301 -134567.07
-116430.65 -344052.16 25180.603 -115120.7
-107456.71 -301761.12 23408.604 -102304.46
-44974.99 -162839.51 -24439.853 -51953.626
-68319.181 -213834.83 -24014.508 -70538.502
-103758.32 -288440.42 -11794.581 -98049.685
-103758.32 -288440.42 11794.581 -98049.685
-68319.181 -213834.83 24014.508 -70538.502
-44974.99 -162839.51 24439.853 -51953.626
0.0 0.0 0.0 0.0
0.0 0.0 0.0 0.0
0.0 0.0 0.0 0.0
0.0 0.0 0.0 0.0
0.0 0.0 0.0 0.0
0.0 0.0 0.0 0.0
0.0 0.0 0.0 0.0
0.0 0.0 0.0 0.0
0.0 0.0 0.0 0.0
0.0 0.0 0.0 0.0
0.0 0.0 0.0 0.0
0.0 0.0 0.0 0.0
0.0 0.0 0.0 0.0
0.0 0.0 0.0 0.0
0.0 0.0 0.0 0.0
0.0 0.0 0.0 0.0</DataArray>
      </PointData>
    </Piece>
  </UnstructuredGrid>
</VTKFile>
