  1  1  2  9  8
  2  2  3  10  9
  3  3  4  11  10
  4  4  5  12  11
  5  5  6  13  12
  6  6  7  14  13
  7  8  9  16  15
  8  9  10  17  16
  9  10  11  18  17
  10  11  12  19  18
  11  12  13  20  19
  12  13  14  21  20
  13  15  16  23  22
  14  16  17  24  23
  15  17  18  25  24
  16  18  19  26  25
  17  19  20  27  26
  18  20  21  28  27
  19  22  23  30  29
  20  23  24  31  30
  21  24  25  32  31
  22  25  26  33  32
  23  26  27  34  33
  24  27  28  35  34
  25  36  37  41  40
  26  37  32  42  41
  27  32  38  43  42
  28  38  39  44  43
  29  40  41  46  45
  30  41  42  47  46
  31  42  43  48  47
  32  43  44  49  48
  33  45  46  51  50
  34  46  47  52  51
  35  47  48  53  52
  36  48  49  54  53
  37  50  51  56  55
  38  51  52  57  56
  39  52  53  58  57
  40  53  54  59  58
  41  55  56  61  60
  42  56  57  62  61
  43  57  58  63  62
  44  58  59  64  63
