         1         1        11       108        56         1
         2        11        12       109       108         1
         3        12        13       110       109         1
         4        13        14       111       110         1
         5        14        15       112       111         1
         6        15        16       113       112         1
         7        16        17       114       113         1
         8        17        18       115       114         1
         9        18        19       116       115         1
        10        19        20       117       116         1
        11        20        21       118       117         1
        12        21        22       119       118         1
        13        22        23       120       119         1
        14        23        24       121       120         1
        15        24        25       122       121         1
        16        25        26       123       122         1
        17        26        27       124       123         1
        18        27        28       125       124         1
        19        28        29       126       125         1
        20        29         2        30       126         1
        21        56       108       127        55         1
        22       108       109       128       127         1
        23       109       110       129       128         1
        24       110       111       130       129         1
        25       111       112       131       130         1
        26       112       113       132       131         1
        27       113       114       133       132         1
        28       114       115       134       133         1
        29       115       116       135       134         1
        30       116       117       136       135         1
        31       117       118       137       136         1
        32       118       119       138       137         1
        33       119       120       139       138         1
        34       120       121       140       139         1
        35       121       122       141       140         1
        36       122       123       142       141         1
        37       123       124       143       142         1
        38       124       125       144       143         1
        39       125       126       145       144         1
        40       126        30        31       145         1
        41        55       127       146        54         1
        42       127       128       147       146         1
        43       128       129       148       147         1
        44       129       130       149       148         1
        45       130       131       150       149         1
        46       131       132       151       150         1
        47       132       133       152       151         1
        48       133       134       153       152         1
        49       134       135       154       153         1
        50       135       136       155       154         1
        51       136       137       156       155         1
        52       137       138       157       156         1
        53       138       139       158       157         1
        54       139       140       159       158         1
        55       140       141       160       159         1
        56       141       142       161       160         1
        57       142       143       162       161         1
        58       143       144       163       162         1
        59       144       145       164       163         1
        60       145        31        32       164         1
        61        54       146       165        53         1
        62       146       147       166       165         1
        63       147       148       167       166         1
        64       148       149       168       167         1
        65       149       150       169       168         1
        66       150       151       170       169         1
        67       151       152       171       170         1
        68       152       153       172       171         1
        69       153       154       173       172         1
        70       154       155       174       173         1
        71       155       156       175       174         1
        72       156       157       176       175         1
        73       157       158       177       176         1
        74       158       159       178       177         1
        75       159       160       179       178         1
        76       160       161       180       179         1
        77       161       162       181       180         1
        78       162       163       182       181         1
        79       163       164       183       182         1
        80       164        32        33       183         1
        81        53       165        52         4         1
        82       165       166        51        52         1
        83       166       167        50        51         1
        84       167       168        49        50         1
        85       168       169        48        49         1
        86       169       170        47        48         1
        87       170       171        46        47         1
        88       171       172        45        46         1
        89       172       173        44        45         1
        90       173       174        43        44         1
        91       174       175        42        43         1
        92       175       176        41        42         1
        93       176       177        40        41         1
        94       177       178        39        40         1
        95       178       179        38        39         1
        96       179       180        37        38         1
        97       180       181        36        37         1
        98       181       182        35        36         1
        99       182       183        34        35         1
       100       183        33         3        34         1
       101         7        57       184        72         2
       102        57        58       185       184         2
       103        58        59       186       185         2
       104        59        60       187       186         2
       105        60         8        61       187         2
       106        72       184       188        71         2
       107       184       185       189       188         2
       108       185       186       190       189         2
       109       186       187       191       190         2
       110       187        61        62       191         2
       111        71       188       192        70         2
       112       188       189       193       192         2
       113       189       190       194       193         2
       114       190       191       195       194         2
       115       191        62        63       195         2
       116        70       192       196        69         2
       117       192       193       197       196         2
       118       193       194       198       197         2
       119       194       195       199       198         2
       120       195        63        64       199         2
       121        69       196        68         5         2
       122       196       197        67        68         2
       123       197       198        66        67         2
       124       198       199        65        66         2
       125       199        64         1        65         2
       126         8        73       200        61         2
       127        73        74       201       200         2
       128        74        75       202       201         2
       129        75        76       203       202         2
       130        76        77       204       203         2
       131        77        78       205       204         2
       132        78        79       206       205         2
       133        79        80       207       206         2
       134        80        81       208       207         2
       135        81        82       209       208         2
       136        82        83       210       209         2
       137        83        84       211       210         2
       138        84        85       212       211         2
       139        85        86       213       212         2
       140        86        87       214       213         2
       141        87        88       215       214         2
       142        88        89       216       215         2
       143        89        90       217       216         2
       144        90        91       218       217         2
       145        91         9        92       218         2
       146        61       200       219        62         2
       147       200       201       220       219         2
       148       201       202       221       220         2
       149       202       203       222       221         2
       150       203       204       223       222         2
       151       204       205       224       223         2
       152       205       206       225       224         2
       153       206       207       226       225         2
       154       207       208       227       226         2
       155       208       209       228       227         2
       156       209       210       229       228         2
       157       210       211       230       229         2
       158       211       212       231       230         2
       159       212       213       232       231         2
       160       213       214       233       232         2
       161       214       215       234       233         2
       162       215       216       235       234         2
       163       216       217       236       235         2
       164       217       218       237       236         2
       165       218        92        93       237         2
       166        62       219       238        63         2
       167       219       220       239       238         2
       168       220       221       240       239         2
       169       221       222       241       240         2
       170       222       223       242       241         2
       171       223       224       243       242         2
       172       224       225       244       243         2
       173       225       226       245       244         2
       174       226       227       246       245         2
       175       227       228       247       246         2
       176       228       229       248       247         2
       177       229       230       249       248         2
       178       230       231       250       249         2
       179       231       232       251       250         2
       180       232       233       252       251         2
       181       233       234       253       252         2
       182       234       235       254       253         2
       183       235       236       255       254         2
       184       236       237       256       255         2
       185       237        93        94       256         2
       186        63       238       257        64         2
       187       238       239       258       257         2
       188       239       240       259       258         2
       189       240       241       260       259         2
       190       241       242       261       260         2
       191       242       243       262       261         2
       192       243       244       263       262         2
       193       244       245       264       263         2
       194       245       246       265       264         2
       195       246       247       266       265         2
       196       247       248       267       266         2
       197       248       249       268       267         2
       198       249       250       269       268         2
       199       250       251       270       269         2
       200       251       252       271       270         2
       201       252       253       272       271         2
       202       253       254       273       272         2
       203       254       255       274       273         2
       204       255       256       275       274         2
       205       256        94        95       275         2
       206        64       257        11         1         2
       207       257       258        12        11         2
       208       258       259        13        12         2
       209       259       260        14        13         2
       210       260       261        15        14         2
       211       261       262        16        15         2
       212       262       263        17        16         2
       213       263       264        18        17         2
       214       264       265        19        18         2
       215       265       266        20        19         2
       216       266       267        21        20         2
       217       267       268        22        21         2
       218       268       269        23        22         2
       219       269       270        24        23         2
       220       270       271        25        24         2
       221       271       272        26        25         2
       222       272       273        27        26         2
       223       273       274        28        27         2
       224       274       275        29        28         2
       225       275        95         2        29         2
       226         9        96       276        92         2
       227        96        97       277       276         2
       228        97        98       278       277         2
       229        98        99       279       278         2
       230        99        10       100       279         2
       231        92       276       280        93         2
       232       276       277       281       280         2
       233       277       278       282       281         2
       234       278       279       283       282         2
       235       279       100       101       283         2
       236        93       280       284        94         2
       237       280       281       285       284         2
       238       281       282       286       285         2
       239       282       283       287       286         2
       240       283       101       102       287         2
       241        94       284       288        95         2
       242       284       285       289       288         2
       243       285       286       290       289         2
       244       286       287       291       290         2
       245       287       102       103       291         2
       246        95       288       107         2         2
       247       288       289       106       107         2
       248       289       290       105       106         2
       249       290       291       104       105         2
       250       291       103         6       104         2
